<svg viewBox="0 0 1513 400" xmlns="http://www.w3.org/2000/svg"><g><g><g><g><g><line x1="82.47800064086914" y1="377.95999908447266" x2="77.47800064086914" y2="377.95999908447266" style="visibility: inherit;" fill="rgb(0, 0, 0)" stroke="rgb(204, 204, 204)" stroke-width="1px"></line><line x1="82.47800064086914" y1="330.7149991989136" x2="77.47800064086914" y2="330.7149991989136" style="visibility: inherit;" fill="rgb(0, 0, 0)" stroke="rgb(204, 204, 204)" stroke-width="1px"></line><line x1="82.47800064086914" y1="283.4699993133545" x2="77.47800064086914" y2="283.4699993133545" style="visibility: inherit;" fill="rgb(0, 0, 0)" stroke="rgb(204, 204, 204)" stroke-width="1px"></line><line x1="82.47800064086914" y1="236.2249994277954" x2="77.47800064086914" y2="236.2249994277954" style="visibility: inherit;" fill="rgb(0, 0, 0)" stroke="rgb(204, 204, 204)" stroke-width="1px"></line><line x1="82.47800064086914" y1="188.97999954223633" x2="77.47800064086914" y2="188.97999954223633" style="visibility: inherit;" fill="rgb(0, 0, 0)" stroke="rgb(204, 204, 204)" stroke-width="1px"></line><line x1="82.47800064086914" y1="141.73499965667725" x2="77.47800064086914" y2="141.73499965667725" style="visibility: inherit;" fill="rgb(0, 0, 0)" stroke="rgb(204, 204, 204)" stroke-width="1px"></line><line x1="82.47800064086914" y1="94.48999977111816" x2="77.47800064086914" y2="94.48999977111816" style="visibility: inherit;" fill="rgb(0, 0, 0)" stroke="rgb(204, 204, 204)" stroke-width="1px"></line><line x1="82.47800064086914" y1="47.24499988555908" x2="77.47800064086914" y2="47.24499988555908" style="visibility: inherit;" fill="rgb(0, 0, 0)" stroke="rgb(204, 204, 204)" stroke-width="1px"></line><line x1="82.47800064086914" y1="0" x2="77.47800064086914" y2="0" style="visibility: inherit;" fill="rgb(0, 0, 0)" stroke="rgb(204, 204, 204)" stroke-width="1px"></line></g><g transform="translate(72.47800064086914, 0)"><text style="text-anchor: end; visibility: hidden; font-family: &quot;Helvetica Neue&quot;, sans-serif; font-size: 12px; font-weight: 200;" x="0" y="377.95999908447266" dx="0em" dy="0.3em" fill="rgb(50, 49, 63)" stroke="none" stroke-width="1px">-1.4e+4</text><text style="text-anchor: end; visibility: inherit; font-family: &quot;Helvetica Neue&quot;, sans-serif; font-size: 12px; font-weight: 200;" x="0" y="330.7149991989136" dx="0em" dy="0.3em" fill="rgb(50, 49, 63)" stroke="none" stroke-width="1px">-1.2e+4</text><text style="text-anchor: end; visibility: inherit; font-family: &quot;Helvetica Neue&quot;, sans-serif; font-size: 12px; font-weight: 200;" x="0" y="283.4699993133545" dx="0em" dy="0.3em" fill="rgb(50, 49, 63)" stroke="none" stroke-width="1px">-1e+4</text><text style="text-anchor: end; visibility: inherit; font-family: &quot;Helvetica Neue&quot;, sans-serif; font-size: 12px; font-weight: 200;" x="0" y="236.2249994277954" dx="0em" dy="0.3em" fill="rgb(50, 49, 63)" stroke="none" stroke-width="1px">-8e+3</text><text style="text-anchor: end; visibility: inherit; font-family: &quot;Helvetica Neue&quot;, sans-serif; font-size: 12px; font-weight: 200;" x="0" y="188.97999954223633" dx="0em" dy="0.3em" fill="rgb(50, 49, 63)" stroke="none" stroke-width="1px">-6e+3</text><text style="text-anchor: end; visibility: inherit; font-family: &quot;Helvetica Neue&quot;, sans-serif; font-size: 12px; font-weight: 200;" x="0" y="141.73499965667725" dx="0em" dy="0.3em" fill="rgb(50, 49, 63)" stroke="none" stroke-width="1px">-4e+3</text><text style="text-anchor: end; visibility: inherit; font-family: &quot;Helvetica Neue&quot;, sans-serif; font-size: 12px; font-weight: 200;" x="0" y="94.48999977111816" dx="0em" dy="0.3em" fill="rgb(50, 49, 63)" stroke="none" stroke-width="1px">-2e+3</text><text style="text-anchor: end; visibility: inherit; font-family: &quot;Helvetica Neue&quot;, sans-serif; font-size: 12px; font-weight: 200;" x="0" y="47.24499988555908" dx="0em" dy="0.3em" fill="rgb(50, 49, 63)" stroke="none" stroke-width="1px">0</text><text style="text-anchor: end; visibility: hidden; font-family: &quot;Helvetica Neue&quot;, sans-serif; font-size: 12px; font-weight: 200;" x="0" y="0" dx="0em" dy="0.3em" fill="rgb(50, 49, 63)" stroke="none" stroke-width="1px">2e+3</text></g><line x1="82.47800064086914" y1="0" x2="82.47800064086914" y2="377.95999908447266" fill="rgb(0, 0, 0)" stroke="rgb(204, 204, 204)" stroke-width="1px"></line></g></g><g transform="translate(82, 0)" clip-path="url(#clip_0)"><clipPath id="clip_0"><rect width="1430" height="377"></rect></clipPath><g><g><g><line x1="0" y1="0" x2="0" y2="377.95999908447266" fill="rgb(0, 0, 0)" stroke="rgb(60, 60, 60)" stroke-width="1px" opacity="0.25"></line><line x1="143.05219993591308" y1="0" x2="143.05219993591308" y2="377.95999908447266" fill="rgb(0, 0, 0)" stroke="rgb(60, 60, 60)" stroke-width="1px" opacity="0.25"></line><line x1="286.10439987182616" y1="0" x2="286.10439987182616" y2="377.95999908447266" fill="rgb(0, 0, 0)" stroke="rgb(60, 60, 60)" stroke-width="1px" opacity="0.25"></line><line x1="429.15659980773927" y1="0" x2="429.15659980773927" y2="377.95999908447266" fill="rgb(0, 0, 0)" stroke="rgb(60, 60, 60)" stroke-width="1px" opacity="0.25"></line><line x1="572.2087997436523" y1="0" x2="572.2087997436523" y2="377.95999908447266" fill="rgb(0, 0, 0)" stroke="rgb(60, 60, 60)" stroke-width="1px" opacity="0.25"></line><line x1="715.2609996795654" y1="0" x2="715.2609996795654" y2="377.95999908447266" fill="rgb(0, 0, 0)" stroke="rgb(60, 60, 60)" stroke-width="1px" opacity="0.25"></line><line x1="858.3131996154785" y1="0" x2="858.3131996154785" y2="377.95999908447266" fill="rgb(0, 0, 0)" stroke="rgb(60, 60, 60)" stroke-width="1px" opacity="0.25"></line><line x1="1001.3653995513915" y1="0" x2="1001.3653995513915" y2="377.95999908447266" fill="rgb(0, 0, 0)" stroke="rgb(60, 60, 60)" stroke-width="1px" opacity="0.25"></line><line x1="1144.4175994873046" y1="0" x2="1144.4175994873046" y2="377.95999908447266" fill="rgb(0, 0, 0)" stroke="rgb(60, 60, 60)" stroke-width="1px" opacity="0.25"></line><line x1="1287.4697994232179" y1="0" x2="1287.4697994232179" y2="377.95999908447266" fill="rgb(0, 0, 0)" stroke="rgb(60, 60, 60)" stroke-width="1px" opacity="0.25"></line><line x1="1430.5219993591309" y1="0" x2="1430.5219993591309" y2="377.95999908447266" fill="rgb(0, 0, 0)" stroke="rgb(60, 60, 60)" stroke-width="1px" opacity="0.25"></line></g><g><line x1="0" y1="377.95999908447266" x2="1430.5219993591309" y2="377.95999908447266" fill="rgb(0, 0, 0)" stroke="rgb(60, 60, 60)" stroke-width="1px" opacity="0.25"></line><line x1="0" y1="330.7149991989136" x2="1430.5219993591309" y2="330.7149991989136" fill="rgb(0, 0, 0)" stroke="rgb(60, 60, 60)" stroke-width="1px" opacity="0.25"></line><line x1="0" y1="283.4699993133545" x2="1430.5219993591309" y2="283.4699993133545" fill="rgb(0, 0, 0)" stroke="rgb(60, 60, 60)" stroke-width="1px" opacity="0.25"></line><line x1="0" y1="236.2249994277954" x2="1430.5219993591309" y2="236.2249994277954" fill="rgb(0, 0, 0)" stroke="rgb(60, 60, 60)" stroke-width="1px" opacity="0.25"></line><line x1="0" y1="188.97999954223633" x2="1430.5219993591309" y2="188.97999954223633" fill="rgb(0, 0, 0)" stroke="rgb(60, 60, 60)" stroke-width="1px" opacity="0.25"></line><line x1="0" y1="141.73499965667725" x2="1430.5219993591309" y2="141.73499965667725" fill="rgb(0, 0, 0)" stroke="rgb(60, 60, 60)" stroke-width="1px" opacity="0.25"></line><line x1="0" y1="94.48999977111816" x2="1430.5219993591309" y2="94.48999977111816" fill="rgb(0, 0, 0)" stroke="rgb(60, 60, 60)" stroke-width="1px" opacity="0.25"></line><line x1="0" y1="47.24499988555908" x2="1430.5219993591309" y2="47.24499988555908" fill="rgb(0, 0, 0)" stroke="rgb(60, 60, 60)" stroke-width="1px" opacity="0.25"></line><line x1="0" y1="0" x2="1430.5219993591309" y2="0" fill="rgb(0, 0, 0)" stroke="rgb(60, 60, 60)" stroke-width="1px" opacity="0.25"></line></g></g></g><g><g><line x1="0" y1="47.24499988555908" x2="1430.5219993591309" y2="47.24499988555908" fill="rgb(0, 0, 0)" stroke="rgb(153, 153, 153)" stroke-width="1.5px"></line></g></g><g><g><line x1="0" y1="0" x2="0" y2="377.95999908447266" fill="rgb(0, 0, 0)" stroke="rgb(153, 153, 153)" stroke-width="1.5px"></line></g></g><g><g><g><g><g><path style="fill: none;" stroke="rgb(255, 112, 67)" stroke-width="2px" d="M180.2457719192505,540.7538057451932L205.99516790771483,372.18386613145793L209.57147290611266,229.6594498132265L212.57556910476686,156.08379806929895L216.00882190322875,116.92043589948321L241.04295689201356,153.55473679947573L243.90400089073182,114.85102830272001L246.76504488945005,92.09839820755786L249.6260888881683,78.74050285965166L252.48713288688657,71.09748216120977L255.34817688560486,66.08290189951839L259.0675340839386,64.88291982469627L261.9285780826569,62.66219912568124L264.7896220813751,61.167839646714185L267.7937182800293,60.62795930401808L271.0839188785553,60.83944818657568L273.94496287727355,59.97323765592358L277.09211127586366,60.193915722133795L279.95315527458195,59.695553997067236L282.8141992733002,59.37204723985468L287.96407847099306,61.918428517069856L290.9681746696472,60.912903406670125L293.82921866836546,60.029771877489566L296.69026266708374,59.62383395095617L299.55130666580203,59.25098206837532L302.55540286445614,59.32286663402925L305.55949906311037,59.45892389202544L308.42054306182865,59.1473662660419L311.4246392604828,59.536151316499684L314.28568325920105,59.289316832151144L317.4328316577911,59.73972534997631L322.4396586555481,61.906194621036036L325.30070265426633,60.74402848776049L328.1617466529846,60.018865986134244L331.02279065170285,59.565827850172866L333.88383465042114,59.20357999056375L336.7448786491394,59.07659425950396L339.60592264785765,58.9112281720478L342.46696664657594,58.91845048966508L345.4710628452301,59.04994023338628L348.33210684394834,58.914279955456266L351.1931508426666,58.95021483127533L354.0541948413849,58.84321479922454L357.058291040039,59.25917611794307L360.0623872386932,59.33072138466429L362.9234312374115,59.07656763692489L365.7844752361297,59.02708327167659L368.645519234848,58.98935287077893L371.5065632335663,58.967446489430756L374.3676072322845,58.94799765621218L377.2286512310028,58.941487992407474L380.3757996295929,59.61845605908428L383.2368436283112,59.34568899454456L386.09788762702937,59.21414751233493L388.95893162574765,58.99856219310334L390.81861022491455,56.25103276094234L393.67965422363284,57.17737148827746L396.54069822235107,57.876585387752755L399.40174222106936,58.30317279480357L404.6946736186981,62.320668666140875L407.6987698173523,61.12280279350887L410.41676161613464,60.08022923436761L413.134753414917,59.4337209952655L416.13884961357115,59.37319298875536L418.99989361228944,59.0388800205626L421.86093761100767,58.97889946101651L424.72198160972596,58.97113268836142L427.869130008316,59.37611970455606L431.01627840690617,59.60935148485311L433.8773224056244,59.35804174428671L436.88141860427856,59.488927105868584L439.88551480293273,59.481538976651336L443.4618198013306,60.451472512593284L447.46728139953615,62.434441812527496L452.9032649971008,68.44394177967803L458.33924859466555,74.15041905456229L462.77386679267886,72.28093053271778L465.9210151912689,67.70707146111528L468.7820591899872,64.23768022266893L474.6471993873596,71.02201609032733L480.655391784668,76.5630478723752L484.8039055828094,72.91877685460275L489.38157598075867,70.73743472415123L495.9619771778107,78.65331717646512L500.82575197563176,76.50507666456195L503.8298481742859,69.99195420918574L506.976996572876,65.85603941021844L514.5587631694794,76.71334920934305L521.854425366211,83.30744026416176L529.4361919628143,91.14386052315274L536.0165931598663,90.91927030498243L679.2118452957153,453.5001155564656L745.588066065979,465.52750277745207L752.4545716629028,316.0148004513568L758.3197118602753,221.65660549616382L766.6167394565583,177.9889615876333L771.0513576545716,133.40445994329608L775.6290280525208,107.4441253580996L778.3470198513031,88.1069374274627L785.0704732482909,90.85595228827879L841.5760922229767,221.07842063551513L844.437136221695,156.22134737178231L847.4412324203491,117.49632015713337L850.5883808189392,94.09753980939252L853.4494248176575,79.91258807946389L856.3104688163758,71.52193838337837L859.171512815094,66.48562231695246L862.0325568138123,63.45848964363205L864.8936008125305,61.64794264826844L867.7546448112488,60.565043058524964L872.7614718090057,62.744559626499836L875.622515807724,61.24744575031792L878.4835598064423,60.326859756358374L881.3446038051605,59.76590434490953L884.2056478038787,59.42147067658095L887.066691802597,59.208326687605165L889.9277358013153,59.09945450349369L892.7887798000336,59.07259618951565L895.7928759986877,59.04776867411135L898.653919997406,58.880902670974194L901.801068395996,59.288627600820746L1044.9963205318452,433.48042060836593L1060.1598537250518,315.7962896812506L1066.3110983222962,223.8142851297523L1069.1721423210142,158.27697523995946L1072.0331863197325,118.53218919062135L1075.180334718323,95.32707300437966L1078.8996919166564,82.29320298109354L1080.9024227157593,70.44268091282783L1084.7648321140289,67.72128599946353L1098.211738908005,124.59129801642368L1108.2253929035187,129.45239368053478L1118.0959946990965,133.24787959030039L1139.6968768894194,147.726570685706L1142.7009730880736,112.45159493155512L1145.562017086792,91.03264078714432L1148.5661132854461,78.37278270130963L1153.715992483139,75.20346885159847L1156.7200886817932,68.71441671697698L1184.9013720691682,131.4314198190135L1187.7624160678863,102.30814285230741L1190.6234600666046,84.95297547021369L1193.4845040653229,74.51832960238056L1196.3455480640412,68.1940136473558L1199.2065920627595,64.49919655185192L1210.0785592578889,83.35768797723318L1213.0826554565429,73.79389899839299L1327.9535720050812,368.22950871979725L1335.6783908016205,260.573572615117L1343.40320959816,197.96196176635559L1347.4086711963653,144.83752303373606L1353.8460201934815,121.01914096001354L1359.8542125907898,105.91200509422168L1366.1485093879699,96.2189256147218" fill="none"></path></g></g></g></g><g opacity="0.2"><g><g><g><path style="fill: none;" stroke="rgb(255, 112, 67)" stroke-width="2px" d="M143.195252135849,993.1421254654191L180.2457719192505,269.3208139130576L205.99516790771483,210.35672410227218L209.57147290611266,62.05073622298636L212.57556910476686,60.023427152427075L216.00882190322875,62.74340720824699L241.04295689201356,205.94237323527946L243.90400089073182,58.42064975884858L246.76504488945005,58.54268828806346L249.6260888881683,58.905585050566344L252.48713288688657,59.70227274875555L255.34817688560486,58.58832063132144L259.0675340839386,63.08686486213918L261.9285780826569,59.33546870019035L264.7896220813751,58.928056991735104L267.7937182800293,59.81851955541981L271.0839188785553,61.156592015404954L273.94496287727355,58.67414179070522L277.09211127586366,60.52489920336694L279.95315527458195,58.94805696170312L282.8141992733002,58.88680484591521L287.96407847099306,65.73791664313211L290.9681746696472,59.404635593409694L293.82921866836546,58.70508504525367L296.69026266708374,59.014929946389145L299.55130666580203,58.69170583454695L302.55540286445614,59.43069329857724L305.55949906311037,59.663009570139764L308.42054306182865,58.68003011405523L311.4246392604828,60.11932867731076L314.28568325920105,58.91906518748135L317.4328316577911,60.41533803709791L322.4396586555481,65.15589826899259L325.30070265426633,59.0007793710908L328.1617466529846,58.931122264859994L331.02279065170285,58.88627065791297L333.88383465042114,58.66020820675459L336.7448786491394,58.886115664093154L339.60592264785765,58.663179041784645L342.46696664657594,58.92928396606686L345.4710628452301,59.24717484870439L348.33210684394834,58.710789538724384L351.1931508426666,59.004117144977954L354.0541948413849,58.68271475119474L357.058291040039,59.88311809591278L360.0623872386932,59.438039284735L362.9234312374115,58.69533701533959L365.7844752361297,58.952856723806974L368.645519234848,58.93275726943364L371.5065632335663,58.93458691740898L374.3676072322845,58.918824406384545L377.2286512310028,58.931723496700556L380.3757996295929,60.63390815909656L383.2368436283112,58.93653839773566L386.09788762702937,59.01683528902066L388.95893162574765,58.67518421425615L390.81861022491455,52.1297386127024L393.67965422363284,58.566879579279885L396.54069822235107,58.9254062369655L399.40174222106936,58.94305390537977L404.6946736186981,68.34691247314657L407.6987698173523,59.32600398456083L410.41676161613464,58.51636889565589L413.134753414917,58.46395863661229L416.13884961357115,59.282400978990154L418.99989361228944,58.5374105682734L421.86093761100767,58.8889286216974L424.72198160972596,58.95948252937865L427.869130008316,59.98360022884805L431.01627840690617,59.959199155298734L433.8773224056244,58.98107713343711L436.88141860427856,59.68525514824137L439.88551480293273,59.47045678282541L443.4618198013306,61.906372816506234L447.46728139953615,65.40889576242887L452.9032649971008,77.45819173040388L458.33924859466555,82.71013496688869L462.77386679267886,69.47669774995092L465.9210151912689,60.8462828537115L468.7820591899872,59.03359336499932L474.6471993873596,81.1985198918149L480.655391784668,84.87459554544705L484.8039055828094,67.45237032794404L489.38157598075867,67.46542152847394L495.9619771778107,90.52714085493608L500.82575197563176,73.28271589670703L503.8298481742859,60.22227052612146L506.976996572876,59.65216721176762L514.5587631694794,92.99931390802982L521.854425366211,93.19857684638993L529.4361919628143,102.8984909116391L536.0165931598663,90.58238497772709L679.2118452957153,997.3713834336903L745.588066065979,483.5685836089319L752.4545716629028,91.74574696221379L758.3197118602753,80.11931306337436L766.6167394565583,112.48749572483757L771.0513576545716,66.52770747679028L775.6290280525208,68.50362348030484L778.3470198513031,59.10115553150746L785.0704732482909,94.97947457950283L841.5760922229767,416.41212315636966L844.437136221695,58.93573747618302L847.4412324203491,59.40877933515986L850.5883808189392,58.999369287781235L853.4494248176575,58.63516048457103L856.3104688163758,58.93596383925012L859.171512815094,58.931148217313535L862.0325568138123,58.91779063365141L864.8936008125305,58.93212215522317L867.7546448112488,58.940693673909664L872.7614718090057,66.01383447846229L875.622515807724,59.001774936045024L878.4835598064423,58.94598076541905L881.3446038051605,58.924471227736205L884.2056478038787,58.904820174088115L887.066691802597,58.8886107041414L889.9277358013153,58.93614622732645L892.7887798000336,59.03230871854856L895.7928759986877,59.010527401004936L898.653919997406,58.630603666268485L901.801068395996,59.900214995590545L1044.9963205318452,994.7681101196837L1060.1598537250518,139.27009329057765L1066.3110983222962,85.84127830250486L1069.1721423210142,59.971010405270135L1072.0331863197325,58.9150101166141L1075.180334718323,60.519398725017254L1078.8996919166564,62.74239794616449L1080.9024227157593,52.66689781042919L1084.7648321140289,63.63919362941698L1098.211738908005,209.896316041864L1108.2253929035187,136.74403717670137L1118.0959946990965,138.94110845494873L1139.6968768894194,169.44460732881444L1142.7009730880736,59.539131300328734L1145.562017086792,58.904209570528224L1148.5661132854461,59.38299557255749L1153.715992483139,70.44949807703182L1156.7200886817932,58.980838515044695L1184.9013720691682,225.5069244720682L1187.7624160678863,58.62322740224823L1190.6234600666046,58.92022439707324L1193.4845040653229,58.866360800630844L1196.3455480640412,58.707539714818665L1199.2065920627595,58.95697090859619L1210.0785592578889,111.64542511530499L1213.0826554565429,59.4482155301327L1327.9535720050812,809.8829233019035L1335.6783908016205,99.08966845809658L1343.40320959816,104.0445454932136L1347.4086711963653,65.1508649348068L1353.8460201934815,85.29156784942967L1359.8542125907898,83.25130129553389L1366.1485093879699,81.67930639547211" fill="none"></path></g></g></g></g></g></g><g transform="translate(82, 377)" clip-path="url(#clip_1)"><clipPath id="clip_1"><rect width="1430" height="22"></rect></clipPath><g><g><line x1="0" y1="0" x2="0" y2="5" style="visibility: inherit;" fill="rgb(0, 0, 0)" stroke="rgb(204, 204, 204)" stroke-width="1px"></line><line x1="143.05219993591308" y1="0" x2="143.05219993591308" y2="5" style="visibility: inherit;" fill="rgb(0, 0, 0)" stroke="rgb(204, 204, 204)" stroke-width="1px"></line><line x1="286.10439987182616" y1="0" x2="286.10439987182616" y2="5" style="visibility: inherit;" fill="rgb(0, 0, 0)" stroke="rgb(204, 204, 204)" stroke-width="1px"></line><line x1="429.15659980773927" y1="0" x2="429.15659980773927" y2="5" style="visibility: inherit;" fill="rgb(0, 0, 0)" stroke="rgb(204, 204, 204)" stroke-width="1px"></line><line x1="572.2087997436523" y1="0" x2="572.2087997436523" y2="5" style="visibility: inherit;" fill="rgb(0, 0, 0)" stroke="rgb(204, 204, 204)" stroke-width="1px"></line><line x1="715.2609996795654" y1="0" x2="715.2609996795654" y2="5" style="visibility: inherit;" fill="rgb(0, 0, 0)" stroke="rgb(204, 204, 204)" stroke-width="1px"></line><line x1="858.3131996154785" y1="0" x2="858.3131996154785" y2="5" style="visibility: inherit;" fill="rgb(0, 0, 0)" stroke="rgb(204, 204, 204)" stroke-width="1px"></line><line x1="1001.3653995513915" y1="0" x2="1001.3653995513915" y2="5" style="visibility: inherit;" fill="rgb(0, 0, 0)" stroke="rgb(204, 204, 204)" stroke-width="1px"></line><line x1="1144.4175994873046" y1="0" x2="1144.4175994873046" y2="5" style="visibility: inherit;" fill="rgb(0, 0, 0)" stroke="rgb(204, 204, 204)" stroke-width="1px"></line><line x1="1287.4697994232179" y1="0" x2="1287.4697994232179" y2="5" style="visibility: inherit;" fill="rgb(0, 0, 0)" stroke="rgb(204, 204, 204)" stroke-width="1px"></line><line x1="1430.5219993591309" y1="0" x2="1430.5219993591309" y2="5" style="visibility: inherit;" fill="rgb(0, 0, 0)" stroke="rgb(204, 204, 204)" stroke-width="1px"></line></g><g transform="translate(0, 8)"><text style="text-anchor: middle; visibility: hidden; font-family: &quot;Helvetica Neue&quot;, sans-serif; font-size: 12px; font-weight: 200;" x="0" y="0" dx="0em" dy="0.95em" fill="rgb(50, 49, 63)" stroke="none" stroke-width="1px">0</text><text style="text-anchor: middle; visibility: inherit; font-family: &quot;Helvetica Neue&quot;, sans-serif; font-size: 12px; font-weight: 200;" x="143.05219993591308" y="0" dx="0em" dy="0.95em" fill="rgb(50, 49, 63)" stroke="none" stroke-width="1px">1k</text><text style="text-anchor: middle; visibility: inherit; font-family: &quot;Helvetica Neue&quot;, sans-serif; font-size: 12px; font-weight: 200;" x="286.10439987182616" y="0" dx="0em" dy="0.95em" fill="rgb(50, 49, 63)" stroke="none" stroke-width="1px">2k</text><text style="text-anchor: middle; visibility: inherit; font-family: &quot;Helvetica Neue&quot;, sans-serif; font-size: 12px; font-weight: 200;" x="429.15659980773927" y="0" dx="0em" dy="0.95em" fill="rgb(50, 49, 63)" stroke="none" stroke-width="1px">3k</text><text style="text-anchor: middle; visibility: inherit; font-family: &quot;Helvetica Neue&quot;, sans-serif; font-size: 12px; font-weight: 200;" x="572.2087997436523" y="0" dx="0em" dy="0.95em" fill="rgb(50, 49, 63)" stroke="none" stroke-width="1px">4k</text><text style="text-anchor: middle; visibility: inherit; font-family: &quot;Helvetica Neue&quot;, sans-serif; font-size: 12px; font-weight: 200;" x="715.2609996795654" y="0" dx="0em" dy="0.95em" fill="rgb(50, 49, 63)" stroke="none" stroke-width="1px">5k</text><text style="text-anchor: middle; visibility: inherit; font-family: &quot;Helvetica Neue&quot;, sans-serif; font-size: 12px; font-weight: 200;" x="858.3131996154785" y="0" dx="0em" dy="0.95em" fill="rgb(50, 49, 63)" stroke="none" stroke-width="1px">6k</text><text style="text-anchor: middle; visibility: inherit; font-family: &quot;Helvetica Neue&quot;, sans-serif; font-size: 12px; font-weight: 200;" x="1001.3653995513915" y="0" dx="0em" dy="0.95em" fill="rgb(50, 49, 63)" stroke="none" stroke-width="1px">7k</text><text style="text-anchor: middle; visibility: inherit; font-family: &quot;Helvetica Neue&quot;, sans-serif; font-size: 12px; font-weight: 200;" x="1144.4175994873046" y="0" dx="0em" dy="0.95em" fill="rgb(50, 49, 63)" stroke="none" stroke-width="1px">8k</text><text style="text-anchor: middle; visibility: inherit; font-family: &quot;Helvetica Neue&quot;, sans-serif; font-size: 12px; font-weight: 200;" x="1287.4697994232179" y="0" dx="0em" dy="0.95em" fill="rgb(50, 49, 63)" stroke="none" stroke-width="1px">9k</text><text style="text-anchor: middle; visibility: hidden; font-family: &quot;Helvetica Neue&quot;, sans-serif; font-size: 12px; font-weight: 200;" x="1430.5219993591309" y="0" dx="0em" dy="0.95em" fill="rgb(50, 49, 63)" stroke="none" stroke-width="1px">10k</text></g><line x1="0" y1="0" x2="1430.5219993591309" y2="0" fill="rgb(0, 0, 0)" stroke="rgb(204, 204, 204)" stroke-width="1px"></line></g></g></g></g></svg>