<svg viewBox="0 0 1513 400" xmlns="http://www.w3.org/2000/svg"><g><g><g><g><g><line x1="41.0620002746582" y1="377.95999908447266" x2="36.0620002746582" y2="377.95999908447266" style="visibility: inherit;" fill="rgb(0, 0, 0)" stroke="rgb(204, 204, 204)" stroke-width="1px"></line><line x1="41.0620002746582" y1="343.59999916770244" x2="36.0620002746582" y2="343.59999916770244" style="visibility: inherit;" fill="rgb(0, 0, 0)" stroke="rgb(204, 204, 204)" stroke-width="1px"></line><line x1="41.0620002746582" y1="309.23999925093216" x2="36.0620002746582" y2="309.23999925093216" style="visibility: inherit;" fill="rgb(0, 0, 0)" stroke="rgb(204, 204, 204)" stroke-width="1px"></line><line x1="41.0620002746582" y1="274.87999933416194" x2="36.0620002746582" y2="274.87999933416194" style="visibility: inherit;" fill="rgb(0, 0, 0)" stroke="rgb(204, 204, 204)" stroke-width="1px"></line><line x1="41.0620002746582" y1="240.5199994173917" x2="36.0620002746582" y2="240.5199994173917" style="visibility: inherit;" fill="rgb(0, 0, 0)" stroke="rgb(204, 204, 204)" stroke-width="1px"></line><line x1="41.0620002746582" y1="206.15999950062147" x2="36.0620002746582" y2="206.15999950062147" style="visibility: inherit;" fill="rgb(0, 0, 0)" stroke="rgb(204, 204, 204)" stroke-width="1px"></line><line x1="41.0620002746582" y1="171.79999958385122" x2="36.0620002746582" y2="171.79999958385122" style="visibility: inherit;" fill="rgb(0, 0, 0)" stroke="rgb(204, 204, 204)" stroke-width="1px"></line><line x1="41.0620002746582" y1="137.43999966708097" x2="36.0620002746582" y2="137.43999966708097" style="visibility: inherit;" fill="rgb(0, 0, 0)" stroke="rgb(204, 204, 204)" stroke-width="1px"></line><line x1="41.0620002746582" y1="103.07999975031072" x2="36.0620002746582" y2="103.07999975031072" style="visibility: inherit;" fill="rgb(0, 0, 0)" stroke="rgb(204, 204, 204)" stroke-width="1px"></line><line x1="41.0620002746582" y1="68.71999983354044" x2="36.0620002746582" y2="68.71999983354044" style="visibility: inherit;" fill="rgb(0, 0, 0)" stroke="rgb(204, 204, 204)" stroke-width="1px"></line><line x1="41.0620002746582" y1="34.35999991677028" x2="36.0620002746582" y2="34.35999991677028" style="visibility: inherit;" fill="rgb(0, 0, 0)" stroke="rgb(204, 204, 204)" stroke-width="1px"></line><line x1="41.0620002746582" y1="0" x2="36.0620002746582" y2="0" style="visibility: inherit;" fill="rgb(0, 0, 0)" stroke="rgb(204, 204, 204)" stroke-width="1px"></line></g><g transform="translate(31.062000274658203, 0)"><text style="text-anchor: end; visibility: hidden; font-family: &quot;Helvetica Neue&quot;, sans-serif; font-size: 12px; font-weight: 200;" x="0" y="377.95999908447266" dx="0em" dy="0.3em" fill="rgb(50, 49, 63)" stroke="none" stroke-width="1px">-41</text><text style="text-anchor: end; visibility: inherit; font-family: &quot;Helvetica Neue&quot;, sans-serif; font-size: 12px; font-weight: 200;" x="0" y="343.59999916770244" dx="0em" dy="0.3em" fill="rgb(50, 49, 63)" stroke="none" stroke-width="1px">-40</text><text style="text-anchor: end; visibility: inherit; font-family: &quot;Helvetica Neue&quot;, sans-serif; font-size: 12px; font-weight: 200;" x="0" y="309.23999925093216" dx="0em" dy="0.3em" fill="rgb(50, 49, 63)" stroke="none" stroke-width="1px">-39</text><text style="text-anchor: end; visibility: inherit; font-family: &quot;Helvetica Neue&quot;, sans-serif; font-size: 12px; font-weight: 200;" x="0" y="274.87999933416194" dx="0em" dy="0.3em" fill="rgb(50, 49, 63)" stroke="none" stroke-width="1px">-38</text><text style="text-anchor: end; visibility: inherit; font-family: &quot;Helvetica Neue&quot;, sans-serif; font-size: 12px; font-weight: 200;" x="0" y="240.5199994173917" dx="0em" dy="0.3em" fill="rgb(50, 49, 63)" stroke="none" stroke-width="1px">-37</text><text style="text-anchor: end; visibility: inherit; font-family: &quot;Helvetica Neue&quot;, sans-serif; font-size: 12px; font-weight: 200;" x="0" y="206.15999950062147" dx="0em" dy="0.3em" fill="rgb(50, 49, 63)" stroke="none" stroke-width="1px">-36</text><text style="text-anchor: end; visibility: inherit; font-family: &quot;Helvetica Neue&quot;, sans-serif; font-size: 12px; font-weight: 200;" x="0" y="171.79999958385122" dx="0em" dy="0.3em" fill="rgb(50, 49, 63)" stroke="none" stroke-width="1px">-35</text><text style="text-anchor: end; visibility: inherit; font-family: &quot;Helvetica Neue&quot;, sans-serif; font-size: 12px; font-weight: 200;" x="0" y="137.43999966708097" dx="0em" dy="0.3em" fill="rgb(50, 49, 63)" stroke="none" stroke-width="1px">-34</text><text style="text-anchor: end; visibility: inherit; font-family: &quot;Helvetica Neue&quot;, sans-serif; font-size: 12px; font-weight: 200;" x="0" y="103.07999975031072" dx="0em" dy="0.3em" fill="rgb(50, 49, 63)" stroke="none" stroke-width="1px">-33</text><text style="text-anchor: end; visibility: inherit; font-family: &quot;Helvetica Neue&quot;, sans-serif; font-size: 12px; font-weight: 200;" x="0" y="68.71999983354044" dx="0em" dy="0.3em" fill="rgb(50, 49, 63)" stroke="none" stroke-width="1px">-32</text><text style="text-anchor: end; visibility: inherit; font-family: &quot;Helvetica Neue&quot;, sans-serif; font-size: 12px; font-weight: 200;" x="0" y="34.35999991677028" dx="0em" dy="0.3em" fill="rgb(50, 49, 63)" stroke="none" stroke-width="1px">-31</text><text style="text-anchor: end; visibility: hidden; font-family: &quot;Helvetica Neue&quot;, sans-serif; font-size: 12px; font-weight: 200;" x="0" y="0" dx="0em" dy="0.3em" fill="rgb(50, 49, 63)" stroke="none" stroke-width="1px">-30</text></g><line x1="41.0620002746582" y1="0" x2="41.0620002746582" y2="377.95999908447266" fill="rgb(0, 0, 0)" stroke="rgb(204, 204, 204)" stroke-width="1px"></line></g></g><g transform="translate(41, 0)" clip-path="url(#clip_0)"><clipPath id="clip_0"><rect width="1471" height="377"></rect></clipPath><g><g><g><line x1="0" y1="0" x2="0" y2="377.95999908447266" fill="rgb(0, 0, 0)" stroke="rgb(60, 60, 60)" stroke-width="1px" opacity="0.25"></line><line x1="133.81254542957652" y1="0" x2="133.81254542957652" y2="377.95999908447266" fill="rgb(0, 0, 0)" stroke="rgb(60, 60, 60)" stroke-width="1px" opacity="0.25"></line><line x1="267.62509085915303" y1="0" x2="267.62509085915303" y2="377.95999908447266" fill="rgb(0, 0, 0)" stroke="rgb(60, 60, 60)" stroke-width="1px" opacity="0.25"></line><line x1="401.43763628872955" y1="0" x2="401.43763628872955" y2="377.95999908447266" fill="rgb(0, 0, 0)" stroke="rgb(60, 60, 60)" stroke-width="1px" opacity="0.25"></line><line x1="535.2501817183061" y1="0" x2="535.2501817183061" y2="377.95999908447266" fill="rgb(0, 0, 0)" stroke="rgb(60, 60, 60)" stroke-width="1px" opacity="0.25"></line><line x1="669.0627271478826" y1="0" x2="669.0627271478826" y2="377.95999908447266" fill="rgb(0, 0, 0)" stroke="rgb(60, 60, 60)" stroke-width="1px" opacity="0.25"></line><line x1="802.8752725774591" y1="0" x2="802.8752725774591" y2="377.95999908447266" fill="rgb(0, 0, 0)" stroke="rgb(60, 60, 60)" stroke-width="1px" opacity="0.25"></line><line x1="936.6878180070357" y1="0" x2="936.6878180070357" y2="377.95999908447266" fill="rgb(0, 0, 0)" stroke="rgb(60, 60, 60)" stroke-width="1px" opacity="0.25"></line><line x1="1070.5003634366121" y1="0" x2="1070.5003634366121" y2="377.95999908447266" fill="rgb(0, 0, 0)" stroke="rgb(60, 60, 60)" stroke-width="1px" opacity="0.25"></line><line x1="1204.3129088661888" y1="0" x2="1204.3129088661888" y2="377.95999908447266" fill="rgb(0, 0, 0)" stroke="rgb(60, 60, 60)" stroke-width="1px" opacity="0.25"></line><line x1="1338.1254542957652" y1="0" x2="1338.1254542957652" y2="377.95999908447266" fill="rgb(0, 0, 0)" stroke="rgb(60, 60, 60)" stroke-width="1px" opacity="0.25"></line><line x1="1471.9379997253418" y1="0" x2="1471.9379997253418" y2="377.95999908447266" fill="rgb(0, 0, 0)" stroke="rgb(60, 60, 60)" stroke-width="1px" opacity="0.25"></line></g><g><line x1="0" y1="377.95999908447266" x2="1471.9379997253418" y2="377.95999908447266" fill="rgb(0, 0, 0)" stroke="rgb(60, 60, 60)" stroke-width="1px" opacity="0.25"></line><line x1="0" y1="343.59999916770244" x2="1471.9379997253418" y2="343.59999916770244" fill="rgb(0, 0, 0)" stroke="rgb(60, 60, 60)" stroke-width="1px" opacity="0.25"></line><line x1="0" y1="309.23999925093216" x2="1471.9379997253418" y2="309.23999925093216" fill="rgb(0, 0, 0)" stroke="rgb(60, 60, 60)" stroke-width="1px" opacity="0.25"></line><line x1="0" y1="274.87999933416194" x2="1471.9379997253418" y2="274.87999933416194" fill="rgb(0, 0, 0)" stroke="rgb(60, 60, 60)" stroke-width="1px" opacity="0.25"></line><line x1="0" y1="240.5199994173917" x2="1471.9379997253418" y2="240.5199994173917" fill="rgb(0, 0, 0)" stroke="rgb(60, 60, 60)" stroke-width="1px" opacity="0.25"></line><line x1="0" y1="206.15999950062147" x2="1471.9379997253418" y2="206.15999950062147" fill="rgb(0, 0, 0)" stroke="rgb(60, 60, 60)" stroke-width="1px" opacity="0.25"></line><line x1="0" y1="171.79999958385122" x2="1471.9379997253418" y2="171.79999958385122" fill="rgb(0, 0, 0)" stroke="rgb(60, 60, 60)" stroke-width="1px" opacity="0.25"></line><line x1="0" y1="137.43999966708097" x2="1471.9379997253418" y2="137.43999966708097" fill="rgb(0, 0, 0)" stroke="rgb(60, 60, 60)" stroke-width="1px" opacity="0.25"></line><line x1="0" y1="103.07999975031072" x2="1471.9379997253418" y2="103.07999975031072" fill="rgb(0, 0, 0)" stroke="rgb(60, 60, 60)" stroke-width="1px" opacity="0.25"></line><line x1="0" y1="68.71999983354044" x2="1471.9379997253418" y2="68.71999983354044" fill="rgb(0, 0, 0)" stroke="rgb(60, 60, 60)" stroke-width="1px" opacity="0.25"></line><line x1="0" y1="34.35999991677028" x2="1471.9379997253418" y2="34.35999991677028" fill="rgb(0, 0, 0)" stroke="rgb(60, 60, 60)" stroke-width="1px" opacity="0.25"></line><line x1="0" y1="0" x2="1471.9379997253418" y2="0" fill="rgb(0, 0, 0)" stroke="rgb(60, 60, 60)" stroke-width="1px" opacity="0.25"></line></g></g></g><g><g><line x1="0" y1="-1030.799997503107" x2="1471.9379997253418" y2="-1030.799997503107" fill="rgb(0, 0, 0)" stroke="rgb(153, 153, 153)" stroke-width="1.5px"></line></g></g><g><g><line x1="0" y1="0" x2="0" y2="377.95999908447266" fill="rgb(0, 0, 0)" stroke="rgb(153, 153, 153)" stroke-width="1.5px"></line></g></g><g><g><g><g><g><path style="fill: none;" stroke="rgb(255, 112, 67)" stroke-width="2px" d="M136.3549837927385,341.3720203522984L137.15785906531593,340.48875218884956L139.29885979218915,344.6419439009586L139.5664848830483,341.10247017812594L139.96792251933704,344.3598802729989L141.4398605190624,346.3233471015404L143.44704870050606,347.89899933990245L143.84848633679476,340.6026388513235L146.5247372453863,335.88998926800565L147.5952376088229,329.10922866928723L148.13048779054122,330.43393785612966L150.80673869913275,336.5591689401402L154.68730251659048,333.66579992407117L155.0887401528792,338.49487136383834L156.29305306174538,336.15725123855304L157.76499106147074,340.57058263864786L158.43405378861863,337.1534260023815L158.70167887947775,334.87724726839355L159.37074160662564,339.6250429762732L164.58943087837912,339.24419793468786L165.258493605527,333.665339971187L167.26568178697065,332.38892685237823L168.0685570595481,333.37020173221873L168.737619786696,327.98876808163686L169.67430760470305,329.7948193724077L170.4771828772805,332.0224015070453L173.01962124044246,326.0808767765667L175.16062196731568,311.1111400065138L175.42824705817483,308.4169302748888L176.49874742161143,321.8880638877611L178.10449796676636,328.8829934116493L179.30881087563253,331.55866477024534L180.37931123906915,320.90187335079503L182.52031196594237,326.6302688693312L183.05556214766068,284.11264041870754L190.2814396008578,286.8269564338889L190.4152521462874,302.4665155602722L192.69006541859022,313.55136877420557L193.09150305487893,325.54701810194194L193.49294069116766,325.7942357529891L195.5001288726113,304.5660808433728L195.90156650890003,298.3461373587406L196.0353790543296,310.8310468456289L197.3735045086254,308.7227304720831L199.64831778092818,325.78080200707745L199.9159428717873,308.68828805783596L202.72600632580844,303.0061787259177L205.00081959811124,305.4677251245327L205.66988232525912,276.36542745138865L209.2828210518577,280.2673746018419L210.62094650615347,295.65764625410264L211.42382177873094,306.68163724401103L212.36050959673796,308.64598131208186L212.49432214216753,308.4174404784968L214.50151032361117,323.2288767941967L216.91013614134354,319.5659709138098L217.1777612322027,327.93763934728315L218.78351177735763,286.2849167655387L219.72019959536468,302.6126301623105L219.85401214079423,287.6361470543242L220.12163723165338,294.00283741357543L220.5230748679421,286.8882702957495L220.79069995880127,291.0611029416178L222.39645050395617,298.1284497348812L223.73457595825195,314.7946304247836L226.00938923055475,293.5432855696974L229.48851541172374,305.4632480060654L230.02376559344208,311.2010002515853L230.55901577516033,314.55955516355436L231.62951613859698,303.39430203426423L232.83382904746315,301.761593381722L233.36907922918147,308.5997909251661L234.57339213804767,311.29304557525285L235.10864231976595,316.5723837934425L236.31295522863215,304.0984167549205L236.84820541035046,278.23125831705835L237.11583050120962,279.84875770745737L237.38345559206874,284.4166344081782L238.32014341007581,283.36667690507784L238.9892061372237,243.30658921747863L239.25683122808283,263.3922766713835L239.92589395523072,275.9066914009057L240.19351904608985,242.41062091655758L240.7287692278082,259.619918965268L241.2640194095265,284.8093330246032L242.06689468210396,296.6928185041614L242.2007072275335,295.79662856133837L245.27839577241377,297.0372081704386L245.81364595413208,263.08087108343005L250.22945995330812,277.02606911430564L251.16614777131514,284.6237894361594L251.9690230438926,254.64956264309606L253.84239867990667,266.76609778340696L254.37764886162498,261.65832382921656L255.314336679632,261.12305373768476L255.58196177049118,277.16588358648687L256.3848370430686,264.0677180254211L256.65246213392777,271.8276868150108L258.52583776994186,253.78968926189998L258.65965031537144,239.30523546546559L259.9977757696672,257.597355358573L260.3992134059559,240.9163296319368L261.60352631482215,239.81606427203275L262.1387764965404,195.1096106071188L262.6740266782587,232.50584494206413L263.8783395871249,226.50577823886903L264.0121521325545,227.22003215181408L264.81502740513196,201.21126571596363L264.94883995056153,222.313680448154L265.6179026777094,211.7405529887687L268.02652849544177,210.5064262566194L268.4279661317305,215.83368628661637L269.6322790405967,216.37833070215115L273.646655403484,197.0079391154928L275.3862184940685,178.78392427226265L276.18909376664595,207.06215223423104L276.5905314029347,198.96976686752294L276.85815649379384,219.09275953718858L277.39340667551215,249.75553739376488L278.1962819480896,169.96005136094345L278.8653446752375,202.52569256031063L280.2034701295333,201.49144012273499L281.0063454021107,160.4050890755921L281.6754081292586,187.59977942035226L283.01353358355436,230.24160906637115L283.68259631070225,164.00752912839698L288.6336604915966,154.23626673144622L289.1689106733149,195.45346206009384L289.30272321874446,196.51126185856953L289.43653576417404,167.9706128898688L291.8451615819064,162.76615920975547L293.4509121270613,197.35040970087752L293.5847246724909,214.2300597974079L294.38759994506836,195.8328003638749L295.3242877630754,190.7299543329325L298.8034139442444,166.37968499835594L300.4091644893993,152.64000539013023L301.88110248912466,140.27688788175493L302.2825401254134,117.55918092697414L302.6839777617021,114.93575252822427L305.3602286702936,152.3819696254132L306.1631039428711,206.48595047848113L307.09979176087813,167.2627863685547L307.9026670334556,172.40231202747955L310.04366776032884,202.86859223687713L310.4451053966175,186.31686465831316L311.9170433963429,171.89841296091188L312.3184810326316,150.9389583052934L312.71991866892034,172.80287295291367L312.8537312143499,191.21646599135474L319.2767333949696,184.445719635902L319.67817103125833,171.14776354422017L320.07960866754706,146.4157636114329L320.21342121297664,126.81578265743295L323.1572972124273,151.83592583187868L324.7630477575822,103.29063649377167L325.0306728484414,130.09144594024815L325.5659230301597,107.90317761147662L326.101173211878,129.54250919312358L326.6364233935963,158.12321815071778L329.9817370293357,174.79060562360726L330.1155495747653,171.46741545895063L331.58748757449064,169.90425965989448L332.65798793792726,162.93061192262024L333.1932381196455,142.74676188102316L333.4608632105047,145.05673606185746L335.7356764828075,113.16378452426011L337.74286466425116,124.06850287830045L338.27811484596947,129.699590118519L341.62342848170886,157.64058822834824L343.7644292085821,140.9179236255569L343.8982417540117,134.64203042118626L345.9054299354553,108.36229539538488L346.4406801171736,123.58839485658544L348.58168084404684,143.66870227290826L348.7154933894764,163.53649205044027L350.45505648006093,138.1657446205712L351.65936938892713,101.15361616171947L352.328432116075,159.79158736469935L352.99749484322285,144.399486908213L353.3989324795116,121.00965360952529L354.0679952066595,93.72616101103995L354.4694328429482,143.17001963823176L356.07518338810314,119.37123960714052L357.14568375153976,101.87177018027046L358.0823715695468,131.47539262622544L359.0190593875538,124.19717089078142L360.22337229642005,71.32740904854569L360.7586224781383,130.26040822995995L361.02624756899746,109.357385609468L361.2938726598566,142.79157558791545L361.69531029614535,96.74191041383267L362.6319981141524,109.43802979080357L363.83631102301854,137.65046754141616L365.1744364773143,84.23600686974032L365.7096866590326,103.22807329353878L365.9773117498918,86.70518406505306L366.3787493861805,124.86876394910232L367.0478121133284,102.57635016038279L367.44924974961714,121.18418135069436L367.5830622950467,108.44415374339064L367.7168748404763,106.03031679280434L370.25931320363827,128.23492350070532L371.4636261125044,91.22114748624261L372.2665013850819,77.16087749381461L373.20318920308887,102.32399395090641L373.33700174851856,95.00214213874568L374.54131465738465,74.57911800434061L375.47800247539175,75.24317660031716L378.2880659294128,113.1490413545493L378.82331611113113,157.287081334464L380.1614415654269,151.89022595627543L380.69669174714517,95.66323193730608L381.90100465601137,141.2933609562353L383.6405677465959,134.65191366972437L384.04200538288467,178.08102449204955L384.8448806554621,136.36740722626595L385.11250574632123,109.90844402358186L389.6621322909268,104.37178958767021L390.4650075635043,91.45210774038736L392.73982083580717,77.03544641427476L393.00744592666626,31.806908142269606L394.07794629010283,56.09465053301648L394.4793839263916,68.77654176061856L394.7470090172508,117.70366028381466L397.1556348349832,138.60147627906113L399.0290104709972,117.93769781698649L399.29663556185636,105.44982923849363L401.70526137958876,46.45983801350246L402.2405115613071,54.95699972736668L403.3110119247437,-4.608255944126427L405.58582519704646,62.605711741486346L406.3887004696239,73.8715911415133L409.60020155993374,78.83657215501688L411.33976465051825,63.24726182738402L411.741202286807,92.10373513907876L411.8750148322365,118.81529091729652L412.1426399230957,133.2838712996232L412.41026501395487,100.15865775284476L412.9455151956732,64.87744540306232L413.48076537739144,66.23702055092753L414.4174531953985,116.34945115866367L416.42464137684215,116.65909227361004L420.97426792144773,101.33238766130592L421.5095181031661,135.72275040846182L422.4462059211731,123.36500323188619L423.6505188300393,128.14003885637504L425.25626937519417,157.8765452123646L426.59439482948994,142.06655787212114L426.8620199203491,125.64984478163836L427.1296450112083,129.72270532135772L427.2634575566379,136.167293827881L427.79870773835614,100.59869082614671L428.2001453746449,107.45594460621567L429.2706457380815,84.83761819755614L429.80589591979975,46.94631598426923L432.4821468283913,78.87668180171431L433.15120955553925,74.48753239170043L433.28502210096883,110.9524363887777L433.552647191828,104.8656964206827L433.95408482811666,62.477465918665644L434.4893350098349,42.42279350408592L434.6231475552646,24.83582420575476L435.5598353732716,-2.504134493223603L435.9612730095603,40.493307776558765L436.6303357367082,55.85532162562231L439.1727740998702,92.26944295511925L440.51089955416586,58.029551783454906L441.3137748267434,96.59222518313277L442.1166500993209,92.67557605360923L442.65190028103916,83.09565245034184L444.2576508261941,121.84572271672727L444.3914633716236,125.02838406579244L447.73677700736306,130.11655349936797L448.94108991622926,133.7893255803751L451.2159031885321,128.93229615809415L453.6245290062644,150.86883729462755L453.758341551694,152.02610068970827L454.0259666425532,57.618007266448274L455.89934227856725,15.985832938822625L459.91371864145447,18.95661302185863L460.98421900489114,60.72090671946165L461.9209068228982,72.7591632063789L462.18853191375734,103.08037747959031L462.45615700461644,76.2853404664553L463.1252197317644,48.00715233353907L466.4705333675038,66.9163869498949L466.60434591293335,111.2642735259978L467.94247136722913,99.99175568548901L468.2100964580883,93.74273271187093L468.8791591852361,100.50851909754198L470.75253482125026,118.16324925782936L471.5554100938277,101.12034193754505L472.7597230026939,58.87765853601451L474.7669111841375,121.93166278292006L475.30216136585585,109.66901418287694L475.569786456715,106.71432430417826L477.30934954729946,52.985694523806785L478.9151000924544,44.03788146733439L480.52085063760927,24.216036319827992L481.85897609190505,83.50573826300052L482.6618513644826,131.18247303484117L484.93666463678534,91.53987877883952L485.7395399093628,106.99356691168384L485.8733524547924,124.3152871571462L486.943852818229,108.61399234126435L487.7467280908064,82.31161627998091L488.54960336338394,82.51876326683532L489.21866609053177,77.95514705135815L492.29635463541206,94.78717203785095L493.2330424534191,45.95774984338698L493.90210518056693,42.5892977273283L495.64166827115145,56.432908883863945L496.5783560891585,93.79355512166495L498.5855442706021,89.63253326075494L500.19129481575703,90.52662130787081L500.5927324520458,85.68729863646661L502.46610808805985,73.26033423760066L502.59992063348943,72.89507370244263L502.8675457243486,78.40532782889528L507.149547178095,90.49777520535906L507.2833597235246,138.78837188877205L507.4171722689542,139.86106358456965L508.3538600869612,155.54194962275267L509.8257980866866,100.26399077124802L511.8329862681302,136.81302928683493L512.5020489952781,137.86556475144454L516.5164253581654,115.99227175366877L518.2559884487498,89.20228442194394L519.460301357616,93.1094005865699L520.6646142664823,100.04772642656098L521.4674895390598,110.84647594280204L522.002739720778,28.407455512707656L524.2775529930808,16.4604644589416L524.54517808394,6.414273800938474L524.6789906293695,42.29290366497895L526.2847411745245,89.36904001761002L530.9681802645597,48.15140702552492L532.0386806279963,63.88937934782376L535.1163691728766,69.80834384104719L536.3206820817428,117.0201380806372L536.5883071726018,99.53248329005521L536.855932263461,76.56680044958154L537.3911824451793,34.00575275349115L537.5249949906089,81.54030184580051L538.9969329903342,155.26019140898595L539.398370626623,129.25256983608043L540.4688709900596,119.32303826042659L540.8703086263483,104.95866424506573L544.0818097166582,118.97587468092098L544.6170598983765,159.40146221742296L544.8846849892356,140.29660878966763L546.8918731706793,175.52724630252635L548.6314362612637,133.6022152667103L551.709124806144,128.5210262474751L553.7163129875877,150.1025544144559L554.7868133510243,99.59677865829121L555.4558760781721,97.98587398714164L556.1249388053201,40.79981557356132L556.6601889870384,100.76888293375697L556.9278140778974,131.1007625725436L559.0688148047708,170.98822471490152L561.4774406225031,168.75627719797106L561.6112531679327,151.010858849624L562.5479409859397,205.39626210203332L562.9493786222284,154.75336826886453L566.1608797125382,124.9778554171921L566.562317348827,121.52308008095014L567.499005166834,167.75543802879773L567.9004428031228,149.75142517393482L568.0342553485524,163.76496326272215L568.3018804394115,121.68554998340704L568.4356929848411,97.9377178996362L571.7810066205805,136.72663238198527L572.9853195294467,150.51658753967865L576.1968206197565,183.29303225463028L577.2673209831931,102.47335825034577L579.1406966192072,115.98914817999679L579.2745091646368,86.26985397990774L579.9435718917847,112.26552271502027L581.5493224369396,155.59629254125346L585.4298862543973,94.0268245343621L585.6975113452565,112.1610736505283L585.9651364361156,121.33426625180516L587.0356367995522,44.350117009939595L589.310450071855,73.14245241746772L589.9795127990029,120.66992097151797L592.9233887984535,134.81461490731547L593.3248264347424,104.3883224152986L593.9938891618903,88.22420981785405L595.4658271616155,96.13518978753297L595.7334522524746,136.13538095543024L596.6701400704817,151.8676731053948L597.4730153430592,184.10200585968911L598.4097031610662,189.18574312004176L599.2125784336437,231.9277203654604L599.6140160699324,207.50836935839632L601.8888293422352,150.53273728075106L603.49457988739,94.60226906706117L603.8960175236789,62.2737674327434L604.8327053416858,95.24200677941047L606.9737060685592,122.43586241779443L607.2413311594183,136.0421104997722L608.0442064319957,107.11419330111005L608.5794566137141,109.55837860289466L610.7204573405872,103.48625253415975L612.9952706128901,153.3350207086582L615.6715215214816,109.68352004227495L618.0801473392139,134.4625830504752L618.3477724300731,129.55592898434872L618.6153975209323,121.62738772862173L619.0168351572211,143.8492278146199L619.4182727935097,130.62374434510207L621.6930860658126,63.8441494437709L623.1650240655379,64.01944663522846L625.038399701552,108.51443551152335L629.0527760644393,120.10322111022481L629.3204011552984,113.35548444599294L632.5319022456083,119.5649298249495L633.0671524273265,81.28794035474948L633.3347775181857,152.33909721393553L634.1376527907631,159.07256729530675L634.5390904270519,98.62662191244243L634.806715517911,135.62969928063197L636.0110284267772,128.05731811253466L636.9477162447843,125.52119372810316L638.6872793353688,134.26452712922L639.7577796988054,163.11027284026378L641.4973427893899,100.35681280701175L641.7649678802491,174.73240851276782L642.1664055165377,145.22041424812758L643.7721560616926,54.792896179701984L644.307406243411,133.25233066536384L644.9764689705588,158.25535096833264L645.244094061418,192.18211171267075L646.5822195157137,122.74737128814976L647.1174696974322,119.31456975699984L650.9980335148898,191.56085283068296L651.6670962420377,185.2726940231527L652.6037840600447,181.03768777783966L656.0829102412138,130.45208642974467L658.491536058946,125.25095999600157L659.5620364223827,147.69560048007938L660.4987242403897,135.68672235664917L661.033974422108,141.1739278615143L662.5059124218334,141.49923035863205L663.3087876944109,151.99811263760813L664.1116629669883,179.17401507454204L667.055538966439,199.5775275961117L668.5274769661644,181.09927019323277L669.1965396933122,198.2147159517459L670.4008526021784,225.68065585055L670.5346651476079,149.16471433882467L672.1404156927629,175.4250429947663L673.6123536924882,222.11499194445548L674.013791328777,168.2429410048079L675.3519167830727,159.67181536395375L681.6411064182629,160.76270960545517L682.3101691454107,162.96584740392888L682.4439816908402,145.44347005785846L683.782107145136,135.80975318177664L693.5504229614952,115.19295100954668L695.0223609612206,145.43936746674885L695.1561735066501,135.75486242801927L695.4237985975092,120.48404443746222L695.6914236883683,144.92122531466964L696.0928613246571,143.37960828210032L696.2266738700866,167.367368165787L699.5719875058261,124.3376777995455L700.241050232974,53.11263819540528L700.6424878692627,115.03245625095025L701.7129882326993,146.69217876261996L703.1849262324247,124.36918961580153L704.3892391412909,93.24863826659714L704.7906767775795,129.8285305593215L704.9244893230091,143.27821705417418L706.9316775044529,167.15102842452532L709.072678231326,195.12465723027353L709.8755535039035,196.77016542197453L710.4108036856218,174.5814050244818L711.615116594488,164.1612968502673L711.8827416853471,112.28896051083382L713.0870545942133,168.34105605460357L713.6223047759316,130.0435417045114L714.4251800485091,102.67888494223877L715.094242775657,143.91288972593665L718.5733689568259,141.22044818018347L719.7776818656921,182.38180950409435L721.7848700471359,197.7286650784134L722.7215578651428,150.1264905967485L723.5244331377203,113.17373530551754L724.0596833194386,166.19252671182986L724.1934958648682,147.50824375556843L726.7359342280301,185.5460984230647L727.1373718643189,184.8489152234054L727.9402471368963,233.57401405908206L731.9546234997836,202.48346016432902L732.757498772361,179.40053823859517L733.2927489540793,198.92684622057016L734.7646869538047,188.13891774639453L735.0323120446639,184.10023865892268L737.3071253169666,164.52413714398506L737.4409378623963,216.66759723504984L739.9833762255581,251.46050512933857L740.1171887709878,182.36507033531277L740.5186264072765,165.0495681894813L741.7229393161426,144.53555940697618L743.194877315868,182.21178939237268L746.5401909516074,181.80021768594708L746.9416285878963,149.41365132685712L748.4135665876215,172.05520005695007L748.8150042239103,163.00738777268037L749.0826293147693,186.65860810755774L749.3502544056284,191.80205285481324L750.9560049507835,176.9015489459539L753.2308182230862,199.4635405917136L756.0408816771074,196.00062020286813L756.9775694951145,165.0899542210429L758.048069858551,184.69434293064893L758.5833200402693,117.16452346762225L759.5200078582764,156.91012567497492L759.6538204037058,167.14849222033985L759.7876329491355,140.30914186612327L761.1257584034312,185.43077747696793L764.6048845846003,175.22890517399946L765.2739473117481,173.45872373724552L767.4149480386213,167.26982564200642L768.8868860383467,155.95981041166243L769.422136220065,179.99918187505773L769.5559487654947,143.47981616799734L770.6264491289312,233.5180635380163L771.02788676522,207.65663361349138L771.4293244015087,260.93333365864265L771.8307620377974,229.68111671728397L773.0350749466636,204.83919135237812L773.5703251283819,186.32638294393155L774.507012946389,122.08191433616955L774.6408254918184,153.34848666451404L775.443700764396,140.15529738745553L776.2465760369735,220.7999033210571L776.5142011278326,178.77193632630272L776.9156387641214,187.78235288492078L781.5990778541566,157.92341278100224L783.2048283993114,183.35928927526328L785.7472667624734,204.96936203144168L786.0148918533325,196.59782266798692L788.5573302164945,251.9546716087352L788.8249553073535,230.89208176383744L791.5012062159451,202.56786877624398L794.712707306255,178.91483269903566L795.1141449425438,140.30767676126555L796.8537080331282,170.28750684917L797.9242083965648,154.92498164285306L799.128521305431,155.9602061182512L799.5299589417198,168.4732793122823L799.7975840325789,168.02216108977686L799.9313965780084,179.27306880268114L801.8047722140226,175.70072356285075L802.8752725774591,193.55045748380454L805.8191485769098,171.10029742841868L806.6220238494874,153.25246812942413L807.023461485776,197.53182913265076L807.960149303783,109.84164559631279L809.6997123943676,59.87361093807124L809.9673374852267,116.95003343200455L810.1011500306563,113.72049157236336L811.0378378486633,107.97389000096098L813.4464636663956,106.0212098162163L816.524152211276,141.63696868168975L817.1932149384239,164.72358512962668L819.8694658470155,190.12764743866816L820.1370909378746,183.19368705066233L820.939966210452,205.44562087350954L824.419092391621,236.77323308900583L825.0881551187689,191.07381143878916L826.8277182093534,168.2021817530721L827.3629683910716,194.7155209218147L829.7715942088041,214.5804085077139L830.8420945722406,219.31748450926727L833.9197831171209,142.51773195106398L834.3212207534095,196.1152251453982L834.4550332988392,156.70681571777604L834.9902834805575,192.96873610261434L835.1240960259871,162.80205429181134L838.6032222071561,190.21032787097437L841.6809107520363,190.7722331580197L843.4204738426208,173.14262381029116L845.5614745694941,192.66807901496568L847.0334125692194,196.1940685272362L849.1744132960927,165.2031396097136L851.0477889321066,175.5441523795396L851.1816014775363,197.72121068633916L851.5830391138251,129.6423339290804L853.8578523861279,139.306713868094L857.0693534764376,156.96068475932816L857.3369785672968,130.62377447580698L859.2103542033109,106.52103750548838L861.7527925664729,163.83512616750232L861.8866051119024,197.7445337726092L862.1542302027616,177.51453957897874L862.8232929299094,189.53287711073202L866.5700442019377,185.37109505039862L867.7743571108039,160.26723674542362L868.7110449288108,215.37658126043135L869.2462951105292,200.03656290358282L870.0491703831066,224.19178325398056L870.852045655684,206.11049678091695L871.5211083828319,152.74908937993945L871.9225460191205,177.57603502382875L872.1901711099799,173.2603612701755L874.1973592914235,171.78764652943872L875.4016722002897,175.07905966707102L876.4721725637263,223.9985929828121L878.746985836029,191.35729395738252L879.4160485631769,157.41152776050478L879.683673654036,171.63223983359566L881.2894241991911,153.730336758181L881.5570492900503,165.04075876332567L882.3599245626276,176.16447960727302L883.9656751077824,123.06916300304925L884.6347378349304,122.78688147233223L885.9728632892262,150.8287208595898L887.310988743522,138.02042173169394L891.05774001555,162.51391562671793L891.3253651064092,211.04823649114138L891.8606152881276,138.12472537513952L893.8678034695712,169.36833355072793L899.3541178321839,162.8228625310164L899.7555554684726,179.5872876327402L902.164181286205,211.65226014535162L903.6361192859304,214.32723435466247L904.5728071039373,195.0128635842417L906.8476203762402,210.36545693807764L907.2490580125288,148.09879159642037L907.9181207396767,194.22938212449068L908.5871834668246,186.6972824860953L909.3900587394021,184.78695207906267L910.995809284557,177.39344775866715L911.1296218299866,157.79518779348908L913.4044351022893,199.67381908680036L913.8058727385782,201.6300181825859L914.7425605565852,184.7613822150109L918.3554992831836,158.71037492842362L918.623124374043,108.7822138158192L919.5598121920499,114.10906712382445L921.9684380097823,162.696701947895L922.2360631006413,143.47259869438278L923.1727509186485,176.4362660290194L924.3770638275147,173.505754997992L925.7151892818104,200.62634253549703L925.84900182724,187.31342230251565L927.1871272815357,159.90421708477095L927.7223774632541,146.96882883331696L927.8561900086836,148.82929764136443L930.3986283718455,109.11492454511608L931.0676910989935,171.83448266766405L931.3353161898526,191.5344877262302L931.8705663715708,189.79981263258205L933.074879280437,179.8183086844759L935.4835050981694,140.71176870052022L938.159756006761,150.5266496832467L938.828818733909,148.02501896703524L940.0331316427752,170.59271296435878L940.8360069153525,156.2176120231462L940.9698194607822,179.43343321722827L941.1036320062117,187.44691996656243L941.5050696425005,187.86438116742343L941.9065072787891,170.69583321089567L944.8503832782399,171.3806663854654L947.2590090959723,123.2384841019086L947.7942592776905,157.73606559997137L948.4633220048385,113.35752649116125L949.4000098228455,166.07295181439764L950.6043227317117,192.7426144910563L950.8719478225709,183.1092600595376L952.2100732768665,146.5495326314337L953.0129485494441,184.99787278611606L953.2805736403033,225.25914526989826L954.0834489128806,190.99651638458616L954.3510740037398,182.70663763208145L954.6186990945989,212.86394381598853L956.224449639754,221.16418613160005L956.492074730613,219.56583019412855L956.7596998214722,253.43438014591612L959.8373883663523,249.27558305226262L961.0417012752185,196.78675657732546L961.4431389115074,212.86713922702833L963.5841396383806,218.6603022368326L964.9222650926763,207.36584607458678L965.056077638106,208.51762072229238L965.3237027289651,202.94046018430237L966.1265780015425,194.18818914315767L966.92945327412,184.16650340990896L967.866141092127,160.34025214494437L968.5352038192749,128.2622472176135L969.471891637282,163.5057400276614L970.2747669098594,133.83006343689283L972.0143300004439,136.3949217763506L975.4934561816128,87.37151039493324L978.1697070902044,112.78013424017155L978.5711447264932,143.71233463236308L979.1063949082115,159.1330332932493L979.240207453641,149.08636916250532L980.176895271648,152.38017742417426L982.4517085439508,127.31421549843748L983.9236465436761,169.7190049030675L985.3955845434015,171.34339825686092L986.3322723614085,187.4348403848635L987.135147633986,110.17071817079176L990.346648724296,132.36989766090164L997.7063387229225,145.59094331907312L998.2415889046409,174.86277903630983L999.9811519952254,194.62245419179993L1001.4530899949508,208.50412353799936L1001.988340176669,172.70131867302888L1003.0588405401056,222.56083339617933L1003.1926530855352,230.632335862084L1003.7279032672535,225.03385748410628L1004.9322161761197,180.77800285618812L1005.0660287215492,229.77900301898097L1006.4041541758451,192.5705076969483L1006.5379667212745,185.31911981780183L1006.6717792667042,200.84084099725507L1007.7422796301407,214.682393347278L1010.4185305387323,209.06742482763084L1013.6300316290422,166.4860165647325L1014.4329069016197,162.81912699832515L1014.5667194470492,201.74576775602767L1014.968157083338,213.0513202330029L1016.3062825376337,164.33189568908102L1017.5105954464999,195.54963949794265L1017.9120330827886,164.8421724996927L1019.2501585370844,133.16364319954687L1019.9192212642323,141.52021592182902L1024.7364728996972,195.41164741287736L1025.940785808563,189.75830095518862L1026.2084108994225,139.71780640768276L1026.7436610811408,207.91287702549226L1027.5465363537182,227.19674055453672L1027.9479739900069,208.39262161175014L1028.8846618080138,185.60849469532505L1029.9551621714506,154.70160476886232L1030.3565998077393,104.43298187615864L1031.4271001711759,144.50323692549367L1031.9623503528942,122.18644353418628L1032.4976005346125,168.93669590597102L1035.575289079493,163.09131768702525L1036.110539261211,154.3812267545889L1037.0472270792181,177.01300769893652L1037.5824772609365,205.84624688289196L1039.0544152606617,208.7645989364022L1040.6601658058166,190.677187670176L1042.8011665326899,141.89557083629995L1046.1464801684294,157.6334505415058L1048.153668349873,115.91665718728257L1050.0270439858868,129.4841186789106L1050.5622941676054,134.49095477337247L1051.0975443493237,204.512103447891L1052.16804471276,202.56652682890604L1052.9709199853376,202.40666034726198L1053.1047325307673,276.76738596883825L1055.37954580307,245.91099309442504L1056.5838587119363,246.22322446284673L1057.3867339845137,209.3542869454383L1058.4572343479504,215.84453453414454L1058.858671984239,191.19030260232148L1061.8025479836897,128.93916700056866L1064.0773612559926,116.1515654140025L1064.612611437711,144.76588230385335L1065.6831118011473,152.29562633074062L1066.0845494374362,132.8890854757232L1066.8874247100136,125.71669006565085L1069.296050527746,112.9634485187861L1069.5636756186052,157.57119908175528L1071.9723014363376,170.4898746605952L1072.507551618056,211.2011678797205L1072.9089892543448,214.0958484654035L1075.317615072077,227.5155601088265L1075.8528652537952,172.2743336593268L1076.7895530718022,174.59559166123776L1078.5291161623868,128.7173416940757L1079.3319914349643,173.43405315987735L1081.2053670709784,209.38744226091146L1082.8111176161333,160.90740722666732L1083.7478054341404,132.64325864064864L1084.8183057975768,142.16681037948013L1085.8888061610135,136.46684263450916L1086.0226187064432,186.59547690908622L1087.2269316153092,167.26317053296944L1088.9664947058939,203.39144979969706L1089.501744887612,199.62767279245213L1091.3751205236263,186.2857690417108L1092.980871068781,174.51028579698095L1093.1146836142107,166.99226971598557L1094.0513714322178,138.5674013484596L1095.9247470682317,239.0083078021248L1096.7276223408094,208.9709487558538L1097.664310158816,225.301350444586L1097.9319352496752,271.98715063360976L1099.1362481585415,272.80570234609604L1099.4038732494007,230.45651536212497L1099.5376857948304,293.0704379560829L1102.0801241579923,246.28655410691965L1102.481561794281,241.23914341938806L1103.6858747031472,261.63480486028556L1105.4254377937316,226.40804778706146L1107.298813429746,242.49557145589043L1108.6369388840415,216.1391349997829L1110.7779396109147,153.39083760137916L1112.2498776106402,137.00423249340176L1114.6585034283726,189.57182445324705L1115.9966288826681,179.22192141763665L1116.1304414280978,216.18401715038686L1116.9333167006753,225.01536953203245L1117.8700045186824,211.73547482926506L1118.4052547004007,233.44078695916485L1118.5390672458302,173.9096173571883L1118.6728797912597,205.10541110042007L1121.6167557907104,239.16225541223017L1121.7505683361398,206.55699188853492L1122.2858185178584,219.64548066788237L1122.5534436087175,236.20779791341806L1123.7577565175836,168.9360097978597L1124.293006699302,287.31570662457085L1128.1735705167598,231.47991009869813L1128.3073830621893,146.59745006886448L1129.5116959710554,155.61059194775848L1129.9131336073442,178.86348899475973L1130.8498214253511,156.65087641944757L1132.187946879647,155.86348200062267L1132.3217594250764,193.96740145705652L1132.455571970506,235.40368820555443L1132.5893845159358,185.55196409773993L1133.2584472430835,147.08034243454932L1134.0613225156612,167.79787580026405L1134.5965726973793,222.80378908814498L1134.8641977882385,231.29988466662442L1137.0051985151117,195.02954077114376L1137.8080737876892,225.70943110858352L1137.9418863331186,176.17688280960311L1139.0123866965555,129.2321861168121L1141.5548250597174,138.4315272208312L1143.82963833202,175.00672909805596L1147.308764513189,216.91961555688266L1150.3864530580695,240.72641823620816L1151.3231408760764,231.57370412420684L1152.126016148654,192.55580486419274L1152.5274537849427,160.68162941559933L1156.6756426932595,209.44150740485938L1156.809455238689,253.50826350824255L1158.9504559655622,212.21409113805484L1159.0842685109917,171.42031010581496L1160.4223939652877,153.97516408906864L1160.8238316015766,138.26526142824386L1161.0914566924355,187.1926514164746L1162.563394692161,184.56769339703754L1163.3662699647384,204.74679916012195L1163.767707601027,183.45979883167612L1164.3029577827454,200.72177019271663L1166.7115836004778,242.39549034803412L1166.8453961459072,205.93398388161606L1167.3806463276255,197.44047193712044L1167.7820839639144,235.36802769110955L1168.0497090547735,202.6776946396276L1169.9230846907876,201.0325017842554L1170.458334872506,230.58922187351084L1171.9302728722312,198.86416896386044L1172.3317105085198,176.5467547797321L1175.0079614171113,164.347078239027L1176.0784617805482,178.71544938609242L1177.4165872348437,167.5976126250747L1177.5503997802734,161.52166740296047L1179.022337779999,116.1381585983325L1182.100026324879,198.82932953855266L1182.7690890520269,160.29403323173676L1185.0439023243298,150.3480510334089L1188.12159086921,199.27676919862498L1190.931654323231,192.18081683644547L1191.0654668686607,202.98594460140146L1191.600717050379,144.83047728853023L1192.1359672320973,192.35657945262895L1194.5445930498297,178.5596750576829L1195.3474683224072,224.00594244682935L1195.4812808678369,166.93630293812197L1201.101407775879,139.88245756997853L1202.1719081393155,145.73757577166484L1203.2424085027521,212.23012108846225L1203.3762210481818,189.97733397595644L1205.6510343204845,198.2746741682199L1206.7215346839212,159.3475038049689L1207.390597411069,243.27177633936094L1207.9258475927872,239.41675002548726L1209.3977855925127,204.03590436120794L1211.0035361376677,171.96703090003163L1211.4049737739563,201.4275044348484L1211.6725988648154,204.71102967946896L1212.2078490465337,266.4176111122067L1213.2783494099704,284.0504109709688L1221.307102135745,214.59204255715187L1222.1099774083225,210.04260924852258L1222.2437899537522,179.91544212756133L1222.511415044611,149.7311950459345L1224.518603226055,170.75710403858443L1225.4552910440618,179.46950527859002L1228.532979588942,175.67660717725553L1229.0682297706603,216.9388616802318L1230.5401677703858,197.36412836879688L1230.9416054066744,294.20188986452314L1233.2164186789773,298.9092348185439L1234.0192939515546,233.28312804074744L1235.7588570421392,228.15012734327243L1238.4351079507308,221.73257925220838L1239.6394208595968,180.12568696363624L1241.512796495611,193.26321372964506L1241.78042158647,190.9213019575715L1242.0480466773292,213.2440899564804L1243.2523595861956,186.8977405742554L1244.4566724950616,197.0835938458234L1245.5271728584983,243.5380113506907L1248.2034237670898,210.30579347135117L1248.471048857949,205.94506524507398L1248.8724864942378,187.48609721975333L1249.140111585097,217.78899377015108L1249.9429868576742,284.4390096591576L1251.5487374028294,270.42369351771384L1251.6825499482588,217.1626871690305L1252.6192377662658,275.06008363044987L1253.0206754025546,258.10888869793814L1253.6897381297026,268.0573001687005L1254.6264259477095,234.30247306290792L1254.8940510385687,251.7539304678673L1261.718490855477,234.25110087704064L1263.1904288552023,149.85458890944923L1263.5918664914911,166.25281297520527L1264.2609292186391,179.70485324086772L1266.4019299455122,142.8585669499862L1266.9371801272305,151.11390752866714L1267.0709926726602,186.6116292579426L1267.3386177635193,152.50586344289692L1267.7400553998082,193.30492693779837L1268.676743217815,116.7088908533035L1269.2119933995334,141.68021605228066L1269.7472435812517,152.11357227887834L1270.9515564901178,190.07149334772348L1271.0853690355473,227.2696235175696L1271.7544317626953,238.11636370781287L1272.2896819444136,263.2083568736231L1272.4234944898433,228.86025247773912L1274.4306826712868,266.3918064474229L1278.5788715796036,236.49978509876541L1280.1846221247586,127.50810833777274L1281.1213099427657,159.78870018910985L1281.7903726699135,213.71413657606834L1283.6637483059276,187.6987127586182L1284.8680612147937,146.46521170404557L1286.8752493962375,166.2765084243234L1288.347187395963,185.77642559820515L1289.2838752139698,195.26963091276238L1289.4176877593993,136.23976794236327L1289.8191253956882,192.43715694504104L1290.6220006682656,205.88599011498462L1295.7068773945896,192.935375517086L1296.1083150308782,190.9163850403138L1296.3759401217374,174.24508795966747L1296.7773777580262,179.45778757969674L1296.9111903034557,213.13757939684905L1297.446440485174,190.47881701773315L1301.7284419389205,182.0963327099612L1303.6018175749346,178.6356810497205L1307.214756301533,234.55259032813882L1308.0176315741105,227.71054690611712L1308.5528817558288,244.2653089010042L1310.9615075735612,249.16831845387028L1311.630570300709,236.75523707678775L1312.8348832095753,206.38125293009526L1313.6377584821528,189.21698084771512L1314.0391961184414,231.67949352028913L1314.4406337547302,206.8280108892995L1317.2506972087513,262.99454765220776L1318.7226352084767,292.93089208235057L1320.4621982990611,286.34854590682255L1320.5960108444908,286.00427478945284L1321.9341362987864,267.631466496531L1322.3355739350752,261.04434034792195L1322.8708241167935,198.99275254363033L1325.1456373890962,192.49930912497896L1325.4132624799556,199.2781950132625L1325.8147001162442,202.44888238336566L1328.6247635702655,239.06309464810343L1328.8923886611246,233.78610711932922L1329.5614513882724,227.05729809458106L1331.0333893879977,178.0404784869275L1331.9700772060048,214.10061507937283L1332.1038897514343,232.23851601304003L1332.6391399331526,215.35118754871073L1334.9139532054553,184.11593297728504L1335.7168284780328,186.9634466860418L1337.0549539323288,205.26600614063165L1337.3225790231877,171.30145744960163L1338.1254542957652,186.82828851177948" fill="none"></path></g></g></g></g><g opacity="0.2"><g><g><g><path style="fill: none;" stroke="rgb(255, 112, 67)" stroke-width="2px" d="M136.3549837927385,341.3720203522984L137.15785906531593,339.95879129078025L139.29885979218915,348.62900794458324L139.5664848830483,336.94004908007497L139.96792251933704,348.61275489286476L141.4398605190624,349.0395285734716L143.44704870050606,350.15220725119633L143.84848633679476,329.96447521391514L146.5247372453863,328.9397465176669L147.5952376088229,319.04058943715324L148.13048779054122,332.4089866215681L150.80673869913275,345.7136823290864L154.68730251659048,329.3351937518164L155.0887401528792,345.7290178698207L156.29305306174538,332.6535688353311L157.76499106147074,347.18746711555553L158.43405378861863,332.0291370741483L158.70167887947775,331.46355708894606L159.37074160662564,346.746013259203L164.58943087837912,338.67296518305506L165.258493605527,325.29735898376515L167.26568178697065,330.47434917508247L168.0685570595481,334.8420946784185L168.737619786696,319.91668135397646L169.67430760470305,332.50388347192415L170.4771828772805,335.3637652093814L173.01962124044246,317.1686048835823L175.16062196731568,288.656557833506L175.42824705817483,304.37561815919946L176.49874742161143,342.09475686177825L178.10449796676636,339.3753853778868L179.30881087563253,335.57217127577115L180.37931123906915,304.9166874938263L182.52031196594237,335.2228617368224L183.05556214766068,220.3361995700424L190.2814396008578,290.8984303866693L190.4152521462874,325.92585400787755L192.69006541859022,330.17864849220496L193.09150305487893,343.54049202673326L193.49294069116766,326.16506222873363L195.5001288726113,272.7238485215137L195.90156650890003,289.01622213927544L196.0353790543296,329.55841106694953L197.3735045086254,305.5602559126776L199.64831778092818,351.3679093051363L199.9159428717873,283.04951713663866L202.72600632580844,294.48301472857236L205.00081959811124,309.16004472231725L205.66988232525912,232.7119809426526L209.2828210518577,286.12029532744253L210.62094650615347,318.7430537323076L211.42382177873094,323.2176237287931L212.36050959673796,311.5924974141791L212.49432214216753,308.0746292281203L214.50151032361117,345.44603126772296L216.91013614134354,314.07161209323255L217.1777612322027,340.4951419974889L218.78351177735763,223.80583289293676L219.72019959536468,327.10420025746464L219.85401214079423,265.17142239234687L220.12163723165338,303.55287295245216L220.5230748679421,276.2164196190107L220.79069995880127,297.3203519104202L222.39645050395617,308.72946992477625L223.73457595825195,339.79390145963674L226.00938923055475,261.6662682870678L229.48851541172374,323.3431916606179L230.02376559344208,319.80762861986557L230.55901577516033,319.5973875315077L231.62951613859698,286.6464223403283L232.83382904746315,299.31253040290903L233.36907922918147,318.85708724033213L234.57339213804767,315.33292755038235L235.10864231976595,324.4913911207272L236.31295522863215,285.38746619713754L236.84820541035046,239.43052066026507L237.11583050120962,282.27500679305575L237.38345559206874,291.26844945925933L238.32014341007581,281.7917406504275L238.9892061372237,183.21645768608008L239.25683122808283,293.520807852241L239.92589395523072,294.6783134951891L240.19351904608985,192.16651519003526L240.7287692278082,285.4338660383338L241.2640194095265,322.59345411360584L242.06689468210396,314.5180467234988L242.2007072275335,294.4523436471037L245.27839577241377,298.89807758408875L245.81364595413208,212.14636545291765L250.22945995330812,297.9438661606189L251.16614777131514,296.0203699189402L251.9690230438926,209.68822245350088L253.84239867990667,284.9409004938736L254.37764886162498,253.99666289793095L255.314336679632,260.3201486003871L255.58196177049118,301.23012835968984L256.3848370430686,244.42046968382255L256.65246213392777,283.4676399993954L258.52583776994186,226.7326929322338L258.65965031537144,217.57855477081398L259.9977757696672,285.0355351982342L260.3992134059559,215.8947910419824L261.60352631482215,238.1656662321766L262.1387764965404,128.0499301097483L262.6740266782587,288.6001964444824L263.8783395871249,217.5056781840765L264.0121521325545,228.29141302123156L264.81502740513196,162.19811606218784L264.94883995056153,253.96730254643956L265.6179026777094,195.88086179969036L268.02652849544177,208.6552361583956L268.4279661317305,223.82457633161206L269.6322790405967,217.19529732545328L273.646655403484,167.9523517355053L275.3862184940685,151.44790200741738L276.18909376664595,249.47949417718337L276.5905314029347,186.83118881746088L276.85815649379384,249.27724854168696L277.39340667551215,295.74970417862903L278.1962819480896,50.26682231171105L278.8653446752375,251.37415435936154L280.2034701295333,199.94006146637153L281.0063454021107,98.77556250487794L281.6754081292586,228.39181493749228L283.01353358355436,294.2043535353997L283.68259631070225,64.65640922143541L288.6336604915966,139.57937313601988L289.1689106733149,257.2792550530655L289.30272321874446,198.09796155628283L289.43653576417404,125.15963943681774L291.8451615819064,154.95947868958518L293.4509121270613,249.22678543756115L293.5847246724909,239.54953494220337L294.38759994506836,168.23691121357578L295.3242877630754,183.07568528651873L298.8034139442444,129.8542809964909L300.4091644893993,132.03048597779178L301.88110248912466,121.73221161919219L302.2825401254134,83.48262049480263L302.6839777617021,111.00060993009936L305.3602286702936,208.55129527119624L306.1631039428711,287.6419217580829L307.09979176087813,108.42804020366486L307.9026670334556,180.11160051586657L310.04366776032884,248.56801255097326L310.4451053966175,161.48927329046737L311.9170433963429,150.27073541480985L312.3184810326316,119.49977632186545L312.71991866892034,205.59874492434423L312.8537312143499,218.83685554901604L319.2767333949696,174.28960010272303L319.67817103125833,151.20082940669752L320.07960866754706,109.31776371225186L320.21342121297664,97.41581122643339L323.1572972124273,189.36614059354707L324.7630477575822,30.472702486611183L325.0306728484414,170.29266010996335L325.5659230301597,74.62077511831939L326.101173211878,162.0015065655938L326.6364233935963,200.9942815871089L329.9817370293357,199.79168683294188L330.1155495747653,166.48263021196578L331.58748757449064,167.55952596131036L332.65798793792726,152.4701403167088L333.1932381196455,112.47098681862752L333.4608632105047,148.52169733310902L335.7356764828075,65.3243572178643L337.74286466425116,140.42558040936075L338.27811484596947,138.14622097884686L341.62342848170886,199.55208539309257L343.7644292085821,115.83392672137018L343.8982417540117,125.22819061463022L345.9054299354553,68.9426928566827L346.4406801171736,146.42754404838672L348.58168084404684,173.78916339739226L348.7154933894764,193.3381767167382L350.45505648006093,100.10962347576753L351.65936938892713,45.6354234734423L352.328432116075,247.74854416916918L352.99749484322285,121.31133622348318L353.3989324795116,85.92490366149423L354.0679952066595,52.800922113312026L354.4694328429482,217.3358075790192L356.07518338810314,83.67306956050345L357.14568375153976,75.62256603996502L358.0823715695468,175.88082629515768L359.0190593875538,113.27983828761552L360.22337229642005,-7.97723371480771L360.7586224781383,218.65990700208135L361.02624756899746,78.00285167873051L361.2938726598566,192.94286055558638L361.69531029614535,27.667412652708208L362.6319981141524,128.48220885625977L363.83631102301854,179.96912416733474L365.1744364773143,4.114315862226363L365.7096866590326,131.71617292923673L365.9773117498918,61.92085022232442L366.3787493861805,182.11413377517601L367.0478121133284,69.13772947730405L367.44924974961714,149.09592813616143L367.5830622950467,89.33411233243532L367.7168748404763,102.40956136692495L370.25931320363827,161.54183356255683L371.4636261125044,35.7004834645486L372.2665013850819,56.07047250517246L373.20318920308887,140.06866863654366L373.33700174851856,84.01936442050447L374.54131465738465,43.944581802733296L375.47800247539175,76.23926449428171L378.2880659294128,170.00783848589742L378.82331611113113,223.49414130433632L380.1614415654269,143.79494288899215L380.69669174714517,11.322740908852381L381.90100465601137,209.73855448462896L383.6405677465959,124.68974273995792L384.04200538288467,243.2246907255374L384.8448806554621,73.79698132759023L385.11250574632123,70.21999921955546L389.6621322909268,96.06680793380258L390.4650075635043,72.07258496946253L392.73982083580717,55.410454425106195L393.00744592666626,-36.03589926573807L394.07794629010283,92.52626411913661L394.4793839263916,87.79937860202199L394.7470090172508,191.09433806860892L397.1556348349832,169.94820027193055L399.0290104709972,86.94203012387413L399.29663556185636,86.71802637075461L401.70526137958876,-42.025148823984296L402.2405115613071,67.70274229816278L403.3110119247437,-93.95613945136643L405.58582519704646,163.4266632699053L406.3887004696239,90.77041024155386L409.60020155993374,86.28404367527264L411.33976465051825,39.86329633593476L411.741202286807,135.38844510662074L411.8750148322365,158.88262458462322L412.1426399230957,154.9867418731129L412.41026501395487,50.47083743267683L412.9455151956732,11.95562687838867L413.48076537739144,68.27638327272541L414.4174531953985,191.518097070268L416.42464137684215,117.12355394602957L420.97426792144773,78.34233074284964L421.5095181031661,187.30829452919582L422.4462059211731,104.82838246702295L423.6505188300393,135.30259229310798L425.25626937519417,202.4813047463487L426.59439482948994,118.35157686175609L426.8620199203491,101.02477514591408L427.1296450112083,135.83199613093694L427.2634575566379,145.83417658766584L427.79870773835614,47.24578632354542L428.2001453746449,117.74182527631899L429.2706457380815,50.91012858456679L429.80589591979975,-9.89063733566121L432.4821468283913,126.7722305278823L433.15120955553925,67.90380827667968L433.28502210096883,165.6497923843933L433.552647191828,95.73558646854042L433.95408482811666,-1.1048798343597923L434.4893350098349,12.340784882216496L434.6231475552646,-1.5446297417418577L435.5598353732716,-43.51407254169118L435.9612730095603,104.98947118123232L436.6303357367082,78.89834239921765L439.1727740998702,146.89062494936462L440.51089955416586,6.6697150259583395L441.3137748267434,154.4362352826495L442.1166500993209,86.80060235932416L442.65190028103916,68.72576704544053L444.2576508261941,179.97082811630523L444.3914633716236,129.80237608939007L447.73677700736306,137.7488076497314L448.94108991622926,139.29848370188583L451.2159031885321,121.64675202467271L453.6245290062644,183.77364899942768L453.758341551694,153.76199578232956L454.0259666425532,-83.99413286844157L455.89934227856725,-46.46242855261585L459.91371864145447,23.412783146412494L460.98421900489114,123.36734726586621L461.9209068228982,90.8165479367546L462.18853191375734,148.5621988894074L462.45615700461644,36.09278494675266L463.1252197317644,5.589870134164812L466.4705333675038,95.28023887442862L466.60434591293335,177.78610339015194L467.94247136722913,83.08297892472581L468.2100964580883,84.36919825144423L468.8791591852361,110.65719867604838L470.75253482125026,144.64534449826036L471.5554100938277,75.55598095711849L472.7597230026939,-4.486366566281163L474.7669111841375,216.5126691532787L475.30216136585585,91.27504128281197L475.569786456715,102.28228948612968L477.30934954729946,-27.607250146750403L478.9151000924544,30.61616188262599L480.52085063760927,-5.516731401431798L481.85897609190505,172.44029117775924L482.6618513644826,202.6975751926022L484.93666463678534,32.07598739483694L485.7395399093628,130.17409911095058L485.8733524547924,150.29786752533983L486.943852818229,85.06205011744169L487.7467280908064,42.85805218805564L488.54960336338394,82.82948374711714L489.21866609053177,71.10972272814251L492.29635463541206,120.03520951758992L493.2330424534191,-27.286383448308868L493.90210518056693,37.5366195532406L495.64166827115145,77.19832561866758L496.5783560891585,149.83452447836646L498.5855442706021,83.39100046938984L500.19129481575703,91.86775337854425L500.5927324520458,78.4283146293601L502.46610808805985,54.619887639301396L502.59992063348943,72.34718289970562L502.8675457243486,86.67070901857431L507.149547178095,108.63644627005453L507.2833597235246,211.22426691389146L507.4171722689542,141.47010112826618L508.3538600869612,179.063278680027L509.8257980866866,17.347052493991214L511.8329862681302,191.6365870602154L512.5020489952781,139.44436794835863L516.5164253581654,83.1823322570047L518.2559884487498,49.01730342435684L519.460301357616,98.97007483350836L520.6646142664823,110.45521518654743L521.4674895390598,127.04460021716395L522.002739720778,-95.25107513243381L524.54517808394,-8.655012186066358L524.6789906293695,96.11084846103967L526.2847411745245,159.9832445465568L530.9681802645597,-13.675042462602676L532.0386806279963,87.49633783127172L535.1163691728766,78.68679058088247L536.3206820817428,187.83782944002252L536.5883071726018,73.30100110418226L536.855932263461,42.11827618887099L537.3911824451793,-29.83581879064417L537.5249949906089,152.84212548426478L538.9969329903342,265.8400257537644L539.398370626623,90.24113747672266L540.4688709900596,104.42874089694607L540.8703086263483,83.41210322202426L544.0818097166582,140.00169033470394L544.6170598983765,220.03984352217626L544.8846849892356,111.63932864803462L546.8918731706793,228.37320257181472L548.6314362612637,70.71466871298617L551.709124806144,120.89924271862202L553.7163129875877,182.47484666492727L554.7868133510243,23.838115024044328L555.4558760781721,95.56951698041729L556.1249388053201,-44.97927204680906L556.6601889870384,190.7224839740507L556.9278140778974,176.59858203072375L559.0688148047708,230.8194179284381L561.4774406225031,165.4083559225758L561.6112531679327,124.39273132710315L562.5479409859397,286.9743669806472L562.9493786222284,78.78902751911136L566.1608797125382,80.31458613968363L566.562317348827,116.34091707658746L567.499005166834,237.10397495056864L567.9004428031228,122.74540589164033L568.0342553485524,184.785270395903L568.3018804394115,58.5664300644342L568.4356929848411,62.315969773979646L571.7810066205805,194.91000410550888L572.9853195294467,171.20152027621887L576.1968206197565,232.4576993270576L577.2673209831931,-18.756152756080894L579.1406966192072,136.2628330744734L579.2745091646368,41.690912679774385L579.9435718917847,151.25902581768935L581.5493224369396,220.59244728060335L585.4298862543973,1.6726225240246322L585.6975113452565,139.36244732477778L585.9651364361156,135.09405515372055L587.0356367995522,-71.1261068528587L589.310450071855,116.33095552876L589.9795127990029,191.96112380259333L592.9233887984535,156.0316558110115L593.3248264347424,58.748883677273454L593.9938891618903,63.97804092168701L595.4658271616155,108.00165974205117L595.7334522524746,196.1356677072763L596.6701400704817,175.46611133034193L597.4730153430592,232.45350499113027L598.4097031610662,196.81134901057126L599.2125784336437,296.0406862335883L599.6140160699324,170.87934284780005L601.8888293422352,65.06928916428296L603.49457988739,10.706566746526562L603.8960175236789,13.781014981266878L604.8327053416858,144.69436579941114L606.9737060685592,163.22664587537028L607.2413311594183,156.4514826227387L608.0442064319957,63.72231750311704L608.5794566137141,113.22465655557141L610.7204573405872,94.37806343105729L612.9952706128901,228.1081729704059L615.6715215214816,44.2062690427L618.0801473392139,171.63117756277578L618.3477724300731,122.19594788515877L618.6153975209323,109.73457584503132L619.0168351572211,177.18198794361723L619.4182727935097,110.78551914082544L621.6930860658126,-36.325242908225675L623.1650240655379,64.2823924224146L625.038399701552,175.25691882596584L629.0527760644393,137.48639950827717L629.3204011552984,103.23387944964497L632.5319022456083,128.87909789338434L633.0671524273265,23.872456149449476L633.3347775181857,258.9158325027145L634.1376527907631,169.17277241736355L634.5390904270519,7.957703838146074L634.806715517911,191.1343153329164L636.0110284267772,116.69874636038867L636.9477162447843,121.71700715145562L638.6872793353688,147.3795272308952L639.7577796988054,206.3788914068295L641.4973427893899,6.226622757134123L641.7649678802491,286.29580207140214L642.1664055165377,100.95242285116746L643.7721560616926,-80.84838092293649L644.307406243411,250.94148239385686L644.9764689705588,195.75988142278615L645.244094061418,243.07225282917815L646.5822195157137,18.59526065136805L647.1174696974322,114.1653674602752L650.9980335148898,299.9302774412076L651.6670962420377,175.84045581185703L652.6037840600447,174.6851784098703L656.0829102412138,54.57368440760183L658.491536058946,117.44927034538705L659.5620364223827,181.36256120619575L660.4987242403897,117.67340517150433L661.033974422108,149.40473611881183L662.5059124218334,141.98718410430857L663.3087876944109,167.74643605607244L664.1116629669883,219.93786872994283L667.055538966439,230.1827963784665L668.5274769661644,153.38188408891438L669.1965396933122,223.88788458951535L670.4008526021784,266.8795656987561L670.5346651476079,34.390802071236635L672.1404156927629,214.8155359786787L673.6123536924882,292.1499153689894L674.013791328777,87.43486459533659L675.3519167830727,146.81512690267252L681.6411064182629,162.39905096770698L682.3101691454107,166.27055410163965L682.4439816908402,119.15990403875321L683.782107145136,121.35917786765441L693.5504229614952,84.26774775120168L695.0223609612206,190.8089921525521L695.1561735066501,121.228104869925L695.4237985975092,97.57781745162686L695.6914236883683,181.57699663048103L696.0928613246571,141.06718273324606L696.2266738700866,203.3490079913172L699.5719875058261,59.79314225018345L700.241050232974,-53.724921210805235L700.6424878692627,207.91218333426778L701.7129882326993,194.18176253012444L703.1849262324247,90.88470589557392L704.3892391412909,46.56781124279024L704.7906767775795,184.69836899840845L704.9244893230091,163.45274679645345L706.9316775044529,202.96024548005184L709.072678231326,237.0851004388956L709.8755535039035,199.23842770952615L710.4108036856218,141.29826442824296L711.615116594488,148.53113458894552L711.8827416853471,34.480456001683535L713.0870545942133,252.41919937025787L713.6223047759316,72.5972701793732L714.4251800485091,61.63189979882998L715.094242775657,205.76389690148326L718.5733689568259,137.1817858615541L719.7776818656921,244.12385148996094L721.7848700471359,220.74894843989222L722.7215578651428,78.72322887425116L723.5244331377203,57.744602368670996L724.0596833194386,245.72071382129798L724.1934958648682,119.48181932117649L726.7359342280301,242.60288042430926L727.1373718643189,183.8031404239168L727.9402471368963,306.66166231259757L731.9546234997836,155.84762932219945L732.757498772361,144.7761553499943L733.2927489540793,228.21630819353263L734.7646869538047,171.957025035131L735.0323120446639,178.04222002771513L737.3071253169666,135.15998487157842L737.4409378623963,294.88278737164694L739.9833762255581,303.6498669707719L740.1171887709878,78.7219181442739L740.5186264072765,139.07631497073453L741.7229393161426,113.76454623321877L743.194877315868,238.72613437046743L746.5401909516074,181.18286012630878L746.9416285878963,100.83380178822233L748.4135665876215,206.0175231520896L748.8150042239103,149.43566934627597L749.0826293147693,222.13543860987357L749.3502544056284,199.51721997569652L750.9560049507835,154.55079308266497L753.2308182230862,233.30652806035306L756.0408816771074,190.80623961959978L756.9775694951145,118.72395524830529L758.048069858551,214.1009259950581L758.5833200402693,15.86979427308222L759.5200078582764,216.52852898600395L759.6538204037058,182.50604203838685L759.7876329491355,100.05011633479842L761.1257584034312,253.1132308932349L764.6048845846003,159.9260967195468L765.2739473117481,170.80345158211475L767.4149480386213,157.98647849914744L768.8868860383467,138.99478756614687L769.422136220065,216.05823907015093L769.5559487654947,88.70076760740693L770.6264491289312,368.5754345930446L771.02788676522,168.86448872670405L771.4293244015087,340.84838372636955L771.8307620377974,182.80279130524616L773.0350749466636,167.5763033050197L773.5703251283819,158.55717033126118L774.507012946389,25.715211424526842L774.6408254918184,200.248345157031L775.443700764396,120.36551347186798L776.2465760369735,341.7668122214593L776.5142011278326,115.72998583417075L776.9156387641214,201.29797772284786L781.5990778541566,113.13500262512451L783.2048283993114,221.5131040166545L785.7472667624734,237.3844711657095L786.0148918533325,184.0405136228047L788.5573302164945,334.98994501985726L788.8249553073535,199.29819699649073L791.5012062159451,160.08154929485383L794.712707306255,143.43527858322275L795.1141449425438,82.39694285461019L796.8537080331282,215.25725198102668L797.9242083965648,131.881193833378L799.128521305431,157.51304283134894L799.5299589417198,187.24288910332888L799.7975840325789,167.34548375601827L799.9313965780084,196.1494303720379L801.8047722140226,170.34220570310507L802.8752725774591,220.3250583652354L805.8191485769098,137.4250573453398L806.6220238494874,126.48072418093216L807.023461485776,263.9508706374909L807.960149303783,-21.69362970819401L809.6997123943676,-15.078441049291143L809.9673374852267,202.5646671729046L810.1011500306563,108.87617878290155L811.0378378486633,99.35398764385764L813.4464636663956,103.09218953909959L816.524152211276,195.06060697989992L817.1932149384239,199.35350980153254L819.8694658470155,228.23374090223064L820.1370909378746,172.79274646865352L820.939966210452,238.82352160778032L824.419092391621,283.76465141225015L825.0881551187689,122.52467896346405L826.8277182093534,133.89473722449674L827.3629683910716,234.48552967492884L829.7715942088041,244.37773988656278L830.8420945722406,226.42309851159703L833.9197831171209,27.318103113759378L834.3212207534095,276.51146493689953L834.4550332988392,97.59420157634304L834.9902834805575,247.36161667987207L835.1240960259871,117.55203157560692L838.6032222071561,231.32273823971892L841.6809107520363,191.61509108858777L843.4204738426208,146.6982097886979L845.5614745694941,221.95626182197753L847.0334125692194,201.48305279564175L849.1744132960927,118.71674623343017L851.0477889321066,191.0556715342788L851.1816014775363,230.98679814653852L851.5830391138251,27.524018793192226L853.8578523861279,153.80328377661434L857.0693534764376,183.44164109617915L857.3369785672968,91.11840905052532L859.2103542033109,70.36693205001012L861.7527925664729,249.80625916052273L861.8866051119024,248.60864518026938L862.1542302027616,147.16954828853275L862.8232929299094,207.56038340836213L866.5700442019377,179.1284219598985L867.7743571108039,122.61144928796091L868.7110449288108,298.04059803294314L869.2462951105292,177.0265353683102L870.0491703831066,260.4246137795774L870.852045655684,178.98856707132126L871.5211083828319,72.70697827847272L871.9225460191205,214.81645348966282L872.1901711099799,166.78685063969567L874.1973592914235,169.5785744183337L875.4016722002897,180.01617937351958L876.4721725637263,297.3778929564234L878.746985836029,142.39534541923786L879.4160485631769,106.49287846518826L879.683673654036,192.96330794323217L881.2894241991911,126.87748214505899L881.5570492900503,182.00639177104247L882.3599245626276,192.85006087319397L883.9656751077824,43.426188096713645L884.6347378349304,122.36345917625692L885.9728632892262,192.89147994047644L887.310988743522,118.8079730398498L891.05774001555,199.25415646925367L891.3253651064092,283.8497177877765L891.8606152881276,28.739458701136755L893.8678034695712,216.2337458141106L899.3541178321839,153.00465600144923L899.7555554684726,204.73392528532582L902.164181286205,259.74971891426884L903.6361192859304,218.3396956686285L904.5728071039373,166.04130742861096L906.8476203762402,233.39434696883177L907.2490580125288,54.69879358393456L907.9181207396767,263.42526791659606L908.5871834668246,175.3991330285022L909.3900587394021,181.92145646851384L910.995809284557,166.30319127807425L911.1296218299866,128.39779784572204L913.4044351022893,262.49176602676744L913.8058727385782,204.564316826264L914.7425605565852,159.45842826364836L918.3554992831836,119.63386399854261L918.623124374043,33.889972146912726L919.5598121920499,122.09934708583222L921.9684380097823,235.5781541840009L922.2360631006413,114.63644381411461L923.1727509186485,225.8817670309747L924.3770638275147,169.10998845145116L925.7151892818104,241.30722384175434L925.84900182724,167.34404195304325L927.1871272815357,118.79040925815406L927.7223774632541,127.56574645613594L927.8561900086836,151.62000085343607L930.3986283718455,49.54336490074377L931.0676910989935,265.91381985148604L931.3353161898526,221.08449531407942L931.8705663715708,187.19779999210996L933.074879280437,164.84605276231676L935.4835050981694,82.05195872458654L938.159756006761,165.24897115733685L938.828818733909,144.27257289271802L940.0331316427752,204.4442539603439L940.8360069153525,134.65496061132714L940.9698194607822,214.25716500835156L941.1036320062117,199.46715009056393L941.5050696425005,188.49057296871482L941.9065072787891,144.9430112761038L944.8503832782399,172.40791614732007L947.2590090959723,51.02521067657324L947.7942592776905,209.48243784706574L948.4633220048385,46.78971782794605L949.4000098228455,245.14608979925237L950.6043227317117,232.74710850604407L950.8719478225709,168.65922841225984L952.2100732768665,91.70994148927804L953.0129485494441,242.67038301813986L953.2805736403033,285.6510539955714L954.0834489128806,139.60257305661798L954.3510740037398,170.2718195033244L954.6186990945989,258.0999030918491L956.224449639754,233.6145496050171L956.492074730613,217.16829628792107L956.7596998214722,304.23720507359724L959.8373883663523,243.03738741178213L961.0417012752185,118.05351686491952L961.4431389115074,236.98771320158266L963.5841396383806,227.3500467515392L964.9222650926763,190.42416183121864L965.056077638106,210.24528269385073L965.3237027289651,194.5747193773171L966.1265780015425,181.05978258144088L966.92945327412,169.13397481003565L967.866141092127,124.60087524749741L968.5352038192749,80.14523982661723L969.471891637282,216.37097924273326L970.2747669098594,89.31654855073958L972.0143300004439,140.24220928553734L975.4934561816128,13.836393322807567L978.1697070902044,150.89307000802893L978.5711447264932,190.11063522064995L979.1063949082115,182.26408128457842L979.240207453641,134.01637296638958L980.176895271648,157.32088981667766L982.4517085439508,89.71527260983237L983.9236465436761,233.32618901001246L985.3955845434015,173.7799882875512L986.3322723614085,211.57200357686747L987.135147633986,-5.72546515031587L990.346648724296,165.66866689606633L997.7063387229225,165.42251180633056L998.2415889046409,218.77053261216497L999.9811519952254,224.26196692503504L1001.4530899949508,229.3266275572982L1001.988340176669,118.99711137557324L1003.0588405401056,297.35010548090474L1003.1926530855352,242.73958956094097L1003.7279032672535,216.6361399171398L1004.9322161761197,114.39422091431072L1005.0660287215492,303.28050326317054L1006.4041541758451,136.75776471389955L1006.5379667212745,174.4420379990823L1006.6717792667042,224.12342276643508L1007.7422796301407,235.4447218723124L1010.4185305387323,200.64497204816013L1013.6300316290422,102.61390417038501L1014.4329069016197,157.31879264871398L1014.5667194470492,260.1357288925818L1014.968157083338,230.009648948466L1016.3062825376337,91.25275887319793L1017.5105954464999,242.37625521123513L1017.9120330827886,118.78097200231753L1019.2501585370844,85.64584924932831L1019.9192212642323,154.05507500525246L1024.7364728996972,276.24879464944985L1025.940785808563,181.27828126865577L1026.2084108994225,64.6570645864241L1026.7436610811408,310.2054829522068L1027.5465363537182,256.1225358481037L1027.9479739900069,180.18644319757004L1028.8846618080138,151.4323043206876L1029.9551621714506,108.34126987916795L1030.3565998077393,29.030047537102746L1031.4271001711759,204.60861949949654L1031.9623503528942,88.71125344722532L1032.4976005346125,239.06207446364783L1035.575289079493,154.32325035860677L1036.110539261211,141.31609035593416L1037.0472270792181,210.96067911545765L1037.5824772609365,249.09610565882494L1039.0544152606617,213.1421270166677L1040.6601658058166,163.54607077083676L1042.8011665326899,68.72314558548595L1046.1464801684294,181.24027009931424L1048.153668349873,53.34146715594795L1050.0270439858868,149.83531091635285L1050.5622941676054,142.0012089150656L1051.0975443493237,309.5438264596689L1052.16804471276,199.6481619004282L1052.9709199853376,202.16686062479593L1053.1047325307673,388.30847440120255L1055.37954580307,199.6264037828051L1056.5838587119363,246.69157151547947L1057.3867339845137,154.05088066932512L1058.4572343479504,225.57990591720392L1058.858671984239,154.20895470458674L1061.8025479836897,35.5624635979396L1064.0773612559926,96.97016303415347L1064.612611437711,187.6873576386292L1065.6831118011473,163.59024237107158L1066.0845494374362,103.77927419319695L1066.8874247100136,114.95809695054248L1069.296050527746,93.8335861984894L1069.5636756186052,224.48282492620902L1071.9723014363376,189.86788802885513L1072.507551618056,272.2681077084086L1072.9089892543448,218.4378693439278L1075.317615072077,247.64512757396074L1075.8528652537952,89.4124939850775L1076.7895530718022,178.07747866410435L1078.5291161623868,59.89996674333287L1079.3319914349643,240.50912035858013L1081.2053670709784,263.31752591246254L1082.8111176161333,88.18735467530098L1083.7478054341404,90.24703576162045L1084.8183057975768,156.45213798772735L1085.8888061610135,127.91689101705296L1086.0226187064432,261.7884283209516L1087.2269316153092,138.26471096879422L1088.9664947058939,257.5838686997886L1089.501744887612,193.98200728158486L1091.3751205236263,166.27291341559877L1092.980871068781,156.84706092988597L1093.1146836142107,155.71524559449279L1094.0513714322178,95.93009879717084L1095.9247470682317,389.6696674826222L1096.7276223408094,163.91491018644726L1097.664310158816,249.79695297768393L1097.9319352496752,342.01585091714514L1099.1362481585415,274.03352991482564L1099.4038732494007,166.93273488616845L1099.5376857948304,386.99132184702006L1102.0801241579923,176.11072833317502L1102.481561794281,233.6680273880907L1103.6858747031472,292.2282970216316L1105.4254377937316,173.56791217722505L1107.298813429746,266.6268569591339L1108.6369388840415,176.60448031562157L1110.7779396109147,59.26839150377384L1112.2498776106402,112.42432483143585L1114.6585034283726,268.423212393015L1115.9966288826681,163.69706686422103L1116.1304414280978,271.627160749512L1116.9333167006753,238.26239810450087L1117.8700045186824,191.81563277511373L1118.4052547004007,265.9987551540147L1118.5390672458302,84.61286295422315L1118.6728797912597,251.8991017152677L1121.6167557907104,290.2475218799452L1121.7505683361398,157.64909660299202L1122.2858185178584,239.27821383690357L1122.5534436087175,261.05127378172153L1123.7577565175836,68.02832762452255L1124.293006699302,464.88525186463744L1128.1735705167598,147.72621530988943L1128.3073830621893,19.27376002411421L1129.5116959710554,169.13030476609921L1129.9131336073442,213.74283456526146L1130.8498214253511,123.3319575564793L1132.187946879647,154.68239037238527L1132.3217594250764,251.1232806417075L1132.455571970506,297.5581183283013L1132.5893845159358,110.77437793601848L1133.2584472430835,89.37290993976319L1134.0613225156612,198.8741758488362L1134.5965726973793,305.3126590199668L1134.8641977882385,244.04402803434377L1137.0051985151117,140.62402492792305L1137.8080737876892,271.7292666147431L1137.9418863331186,101.87806036113233L1139.0123866965555,58.8151410776257L1141.5548250597174,152.23053887685953L1143.82963833202,229.8695319138933L1147.308764513189,279.7889452451226L1150.3864530580695,276.436622255196L1151.3231408760764,217.84463295620463L1152.126016148654,134.02895597417162L1152.5274537849427,112.87036624270894L1156.6756426932595,282.5813243887493L1156.809455238689,319.60839766331696L1158.9504559655622,150.2728325827735L1159.0842685109917,110.22963855745513L1160.4223939652877,127.80744506394893L1160.8238316015766,114.70040743700656L1161.0914566924355,260.58373639882086L1162.563394692161,180.6302563678817L1163.3662699647384,235.0154578047487L1163.767707601027,151.52929833900734L1164.3029577827454,226.61472723427738L1166.7115836004778,304.9060705810103L1166.8453961459072,151.24172418198907L1167.3806463276255,184.70020402037665L1167.7820839639144,292.25936132209347L1168.0497090547735,153.6421950624049L1169.9230846907876,198.56471250119716L1170.458334872506,274.92430200739443L1171.9302728722312,151.2765895993851L1172.3317105085198,143.07063350353963L1175.0079614171113,146.04756342796927L1176.0784617805482,200.26800610669042L1177.4165872348437,150.92085748354756L1177.5503997802734,152.40774956978964L1179.022337779999,48.06289539139044L1182.100026324879,322.8660859488829L1182.7690890520269,102.49108877151264L1185.0439023243298,135.42907773591685L1188.12159086921,272.6698464464491L1190.931654323231,181.53688829317582L1191.0654668686607,219.1936362488354L1191.600717050379,57.59727631922317L1192.1359672320973,263.6457326987769L1194.5445930498297,157.86431846526366L1195.3474683224072,292.1753435305489L1195.4812808678369,81.3318436750613L1201.101407775879,99.30168951776369L1202.1719081393155,154.52025307419402L1203.2424085027521,311.96893906365784L1203.3762210481818,156.59815330719786L1205.6510343204845,210.72068445661517L1206.7215346839212,100.95674826009252L1207.390597411069,369.1581851409494L1207.9258475927872,233.6342105546765L1209.3977855925127,150.9646358647892L1211.0035361376677,123.86372070826738L1211.4049737739563,245.6182147370736L1211.6725988648154,209.63631754640005L1212.2078490465337,358.9774832613131L1213.2783494099704,310.49961075911153L1221.307102135745,110.4044899364261L1222.1099774083225,203.21845928557872L1222.2437899537522,134.72469144611915L1222.511415044611,104.45482442349419L1224.518603226055,202.29596752755938L1225.4552910440618,192.53810713859804L1228.532979588942,169.9872600252539L1229.0682297706603,278.8322434346959L1230.5401677703858,168.00202840164474L1230.9416054066744,439.458532108113L1233.2164186789773,305.9702522495751L1234.0192939515546,134.84396787405288L1235.7588570421392,220.45062629706013L1238.4351079507308,212.10625711561244L1239.6394208595968,117.71534853077765L1241.512796495611,212.96950387865814L1241.78042158647,187.40843429946108L1242.0480466773292,246.7282719548437L1243.2523595861956,147.37821650091792L1244.4566724950616,212.36237375317563L1245.5271728584983,313.21963760799156L1248.2034237670898,160.4574666523417L1248.471048857949,199.40397290565835L1248.8724864942378,159.797645181772L1249.140111585097,263.2433385957477L1249.9429868576742,384.4140334926673L1251.5487374028294,249.400719305548L1251.6825499482588,137.27117764600553L1252.6192377662658,361.90617832257834L1253.0206754025546,232.68209629917033L1253.6897381297026,282.9799173748444L1254.6264259477095,183.6702324042192L1254.8940510385687,277.9311165753064L1261.718490855477,207.99685649080098L1263.1904288552023,23.25982095806239L1263.5918664914911,190.8501490738391L1264.2609292186391,199.8829136393615L1266.4019299455122,87.58913751366407L1266.9371801272305,163.49691839668824L1267.0709926726602,239.85821185185605L1267.3386177635193,101.34721472032834L1267.7400553998082,254.50352218015047L1268.676743217815,1.8148367265609409L1269.2119933995334,179.13720385074637L1269.7472435812517,167.763606618775L1270.9515564901178,247.0083749509914L1271.0853690355473,283.06681877233893L1271.7544317626953,254.38647399317813L1272.2896819444136,300.8463466223382L1272.4234944898433,177.33809588391293L1274.4306826712868,322.68913740194824L1278.5788715796036,191.66175307577942L1280.1846221247586,-35.9794068037167L1281.1213099427657,208.20958796611575L1281.7903726699135,294.6022911565061L1283.6637483059276,148.6755770324433L1284.8680612147937,84.61496012218674L1286.8752493962375,195.9934535047399L1288.347187395963,215.02630135902754L1289.2838752139698,209.509438884598L1289.4176877593993,47.69497348676407L1289.8191253956882,276.73324044905763L1290.6220006682656,226.05923986990024L1295.7068773945896,173.50945362023776L1296.1083150308782,187.88789932515513L1296.3759401217374,149.2381423386978L1296.7773777580262,187.27683700974077L1296.9111903034557,263.6572671225771L1297.446440485174,156.49067344905978L1301.7284419389205,169.52260624830325L1303.6018175749346,173.44470355935945L1307.214756301533,318.42795424576616L1308.0176315741105,217.4474817730846L1308.5528817558288,269.09745189333495L1310.9615075735612,256.5228327831693L1311.630570300709,218.13561501116388L1312.8348832095753,160.82027671005662L1313.6377584821528,163.47057272414466L1314.0391961184414,295.3732625291503L1314.4406337547302,169.55078694281508L1317.2506972087513,347.24435279657007L1318.7226352084767,337.83540872756436L1320.4621982990611,276.4750266435307L1320.5960108444908,285.4878681133983L1321.9341362987864,240.07225405714811L1322.3355739350752,251.16365112500816L1322.8708241167935,105.91537083719265L1325.1456373890962,182.7591439970023L1325.4132624799556,209.4465238456879L1325.8147001162442,207.20491343852004L1328.6247635702655,293.9844130452098L1328.8923886611246,225.87062582616767L1329.5614513882724,216.96408455745868L1331.0333893879977,104.51524907544746L1331.9700772060048,268.19081996804084L1332.1038897514343,259.44536741354125L1332.6391399331526,190.02019485221666L1334.9139532054553,137.26305112014632L1335.7168284780328,191.2347172491771L1337.0549539323288,232.71984532251636L1337.3225790231877,120.35463441305649L1338.1254542957652,210.11853510504642" fill="none"></path></g></g></g></g></g></g><g transform="translate(41, 377)" clip-path="url(#clip_1)"><clipPath id="clip_1"><rect width="1471" height="22"></rect></clipPath><g><g><line x1="0" y1="0" x2="0" y2="5" style="visibility: inherit;" fill="rgb(0, 0, 0)" stroke="rgb(204, 204, 204)" stroke-width="1px"></line><line x1="133.81254542957652" y1="0" x2="133.81254542957652" y2="5" style="visibility: inherit;" fill="rgb(0, 0, 0)" stroke="rgb(204, 204, 204)" stroke-width="1px"></line><line x1="267.62509085915303" y1="0" x2="267.62509085915303" y2="5" style="visibility: inherit;" fill="rgb(0, 0, 0)" stroke="rgb(204, 204, 204)" stroke-width="1px"></line><line x1="401.43763628872955" y1="0" x2="401.43763628872955" y2="5" style="visibility: inherit;" fill="rgb(0, 0, 0)" stroke="rgb(204, 204, 204)" stroke-width="1px"></line><line x1="535.2501817183061" y1="0" x2="535.2501817183061" y2="5" style="visibility: inherit;" fill="rgb(0, 0, 0)" stroke="rgb(204, 204, 204)" stroke-width="1px"></line><line x1="669.0627271478826" y1="0" x2="669.0627271478826" y2="5" style="visibility: inherit;" fill="rgb(0, 0, 0)" stroke="rgb(204, 204, 204)" stroke-width="1px"></line><line x1="802.8752725774591" y1="0" x2="802.8752725774591" y2="5" style="visibility: inherit;" fill="rgb(0, 0, 0)" stroke="rgb(204, 204, 204)" stroke-width="1px"></line><line x1="936.6878180070357" y1="0" x2="936.6878180070357" y2="5" style="visibility: inherit;" fill="rgb(0, 0, 0)" stroke="rgb(204, 204, 204)" stroke-width="1px"></line><line x1="1070.5003634366121" y1="0" x2="1070.5003634366121" y2="5" style="visibility: inherit;" fill="rgb(0, 0, 0)" stroke="rgb(204, 204, 204)" stroke-width="1px"></line><line x1="1204.3129088661888" y1="0" x2="1204.3129088661888" y2="5" style="visibility: inherit;" fill="rgb(0, 0, 0)" stroke="rgb(204, 204, 204)" stroke-width="1px"></line><line x1="1338.1254542957652" y1="0" x2="1338.1254542957652" y2="5" style="visibility: inherit;" fill="rgb(0, 0, 0)" stroke="rgb(204, 204, 204)" stroke-width="1px"></line><line x1="1471.9379997253418" y1="0" x2="1471.9379997253418" y2="5" style="visibility: inherit;" fill="rgb(0, 0, 0)" stroke="rgb(204, 204, 204)" stroke-width="1px"></line></g><g transform="translate(0, 8)"><text style="text-anchor: middle; visibility: hidden; font-family: &quot;Helvetica Neue&quot;, sans-serif; font-size: 12px; font-weight: 200;" x="0" y="0" dx="0em" dy="0.95em" fill="rgb(50, 49, 63)" stroke="none" stroke-width="1px">0</text><text style="text-anchor: middle; visibility: inherit; font-family: &quot;Helvetica Neue&quot;, sans-serif; font-size: 12px; font-weight: 200;" x="133.81254542957652" y="0" dx="0em" dy="0.95em" fill="rgb(50, 49, 63)" stroke="none" stroke-width="1px">1k</text><text style="text-anchor: middle; visibility: inherit; font-family: &quot;Helvetica Neue&quot;, sans-serif; font-size: 12px; font-weight: 200;" x="267.62509085915303" y="0" dx="0em" dy="0.95em" fill="rgb(50, 49, 63)" stroke="none" stroke-width="1px">2k</text><text style="text-anchor: middle; visibility: inherit; font-family: &quot;Helvetica Neue&quot;, sans-serif; font-size: 12px; font-weight: 200;" x="401.43763628872955" y="0" dx="0em" dy="0.95em" fill="rgb(50, 49, 63)" stroke="none" stroke-width="1px">3k</text><text style="text-anchor: middle; visibility: inherit; font-family: &quot;Helvetica Neue&quot;, sans-serif; font-size: 12px; font-weight: 200;" x="535.2501817183061" y="0" dx="0em" dy="0.95em" fill="rgb(50, 49, 63)" stroke="none" stroke-width="1px">4k</text><text style="text-anchor: middle; visibility: inherit; font-family: &quot;Helvetica Neue&quot;, sans-serif; font-size: 12px; font-weight: 200;" x="669.0627271478826" y="0" dx="0em" dy="0.95em" fill="rgb(50, 49, 63)" stroke="none" stroke-width="1px">5k</text><text style="text-anchor: middle; visibility: inherit; font-family: &quot;Helvetica Neue&quot;, sans-serif; font-size: 12px; font-weight: 200;" x="802.8752725774591" y="0" dx="0em" dy="0.95em" fill="rgb(50, 49, 63)" stroke="none" stroke-width="1px">6k</text><text style="text-anchor: middle; visibility: inherit; font-family: &quot;Helvetica Neue&quot;, sans-serif; font-size: 12px; font-weight: 200;" x="936.6878180070357" y="0" dx="0em" dy="0.95em" fill="rgb(50, 49, 63)" stroke="none" stroke-width="1px">7k</text><text style="text-anchor: middle; visibility: inherit; font-family: &quot;Helvetica Neue&quot;, sans-serif; font-size: 12px; font-weight: 200;" x="1070.5003634366121" y="0" dx="0em" dy="0.95em" fill="rgb(50, 49, 63)" stroke="none" stroke-width="1px">8k</text><text style="text-anchor: middle; visibility: inherit; font-family: &quot;Helvetica Neue&quot;, sans-serif; font-size: 12px; font-weight: 200;" x="1204.3129088661888" y="0" dx="0em" dy="0.95em" fill="rgb(50, 49, 63)" stroke="none" stroke-width="1px">9k</text><text style="text-anchor: middle; visibility: inherit; font-family: &quot;Helvetica Neue&quot;, sans-serif; font-size: 12px; font-weight: 200;" x="1338.1254542957652" y="0" dx="0em" dy="0.95em" fill="rgb(50, 49, 63)" stroke="none" stroke-width="1px">10k</text><text style="text-anchor: middle; visibility: hidden; font-family: &quot;Helvetica Neue&quot;, sans-serif; font-size: 12px; font-weight: 200;" x="1471.9379997253418" y="0" dx="0em" dy="0.95em" fill="rgb(50, 49, 63)" stroke="none" stroke-width="1px">11k</text></g><line x1="0" y1="0" x2="1471.9379997253418" y2="0" fill="rgb(0, 0, 0)" stroke="rgb(204, 204, 204)" stroke-width="1px"></line></g></g></g></g></svg>