<svg viewBox="0 0 1513 400" xmlns="http://www.w3.org/2000/svg"><g><g><g><g><g><line x1="51.41600036621094" y1="373.20984578051514" x2="46.41600036621094" y2="373.20984578051514" style="visibility: inherit;" fill="rgb(0, 0, 0)" stroke="rgb(204, 204, 204)" stroke-width="1px"></line><line x1="51.41600036621094" y1="337.6666964005058" x2="46.41600036621094" y2="337.6666964005058" style="visibility: inherit;" fill="rgb(0, 0, 0)" stroke="rgb(204, 204, 204)" stroke-width="1px"></line><line x1="51.41600036621094" y1="316.87528685566997" x2="46.41600036621094" y2="316.87528685566997" style="visibility: inherit;" fill="rgb(0, 0, 0)" stroke="rgb(204, 204, 204)" stroke-width="1px"></line><line x1="51.41600036621094" y1="302.1235470204965" x2="46.41600036621094" y2="302.1235470204965" style="visibility: inherit;" fill="rgb(0, 0, 0)" stroke="rgb(204, 204, 204)" stroke-width="1px"></line><line x1="51.41600036621094" y1="290.6812086542932" x2="46.41600036621094" y2="290.6812086542932" style="visibility: inherit;" fill="rgb(0, 0, 0)" stroke="rgb(204, 204, 204)" stroke-width="1px"></line><line x1="51.41600036621094" y1="281.3321374756606" x2="46.41600036621094" y2="281.3321374756606" style="visibility: inherit;" fill="rgb(0, 0, 0)" stroke="rgb(204, 204, 204)" stroke-width="1px"></line><line x1="51.41600036621094" y1="273.42761042311724" x2="46.41600036621094" y2="273.42761042311724" style="visibility: inherit;" fill="rgb(0, 0, 0)" stroke="rgb(204, 204, 204)" stroke-width="1px"></line><line x1="51.41600036621094" y1="266.58039764048715" x2="46.41600036621094" y2="266.58039764048715" style="visibility: inherit;" fill="rgb(0, 0, 0)" stroke="rgb(204, 204, 204)" stroke-width="1px"></line><line x1="51.41600036621094" y1="260.5407279308248" x2="46.41600036621094" y2="260.5407279308248" style="visibility: inherit;" fill="rgb(0, 0, 0)" stroke="rgb(204, 204, 204)" stroke-width="1px"></line><line x1="51.41600036621094" y1="255.13805927428382" x2="46.41600036621094" y2="255.13805927428382" style="visibility: inherit;" fill="rgb(0, 0, 0)" stroke="rgb(204, 204, 204)" stroke-width="1px"></line><line x1="51.41600036621094" y1="219.5949098942745" x2="46.41600036621094" y2="219.5949098942745" style="visibility: inherit;" fill="rgb(0, 0, 0)" stroke="rgb(204, 204, 204)" stroke-width="1px"></line><line x1="51.41600036621094" y1="198.80350034943865" x2="46.41600036621094" y2="198.80350034943865" style="visibility: inherit;" fill="rgb(0, 0, 0)" stroke="rgb(204, 204, 204)" stroke-width="1px"></line><line x1="51.41600036621094" y1="184.05176051426517" x2="46.41600036621094" y2="184.05176051426517" style="visibility: inherit;" fill="rgb(0, 0, 0)" stroke="rgb(204, 204, 204)" stroke-width="1px"></line><line x1="51.41600036621094" y1="172.60942214806187" x2="46.41600036621094" y2="172.60942214806187" style="visibility: inherit;" fill="rgb(0, 0, 0)" stroke="rgb(204, 204, 204)" stroke-width="1px"></line><line x1="51.41600036621094" y1="163.26035096942937" x2="46.41600036621094" y2="163.26035096942937" style="visibility: inherit;" fill="rgb(0, 0, 0)" stroke="rgb(204, 204, 204)" stroke-width="1px"></line><line x1="51.41600036621094" y1="155.35582391688598" x2="46.41600036621094" y2="155.35582391688598" style="visibility: inherit;" fill="rgb(0, 0, 0)" stroke="rgb(204, 204, 204)" stroke-width="1px"></line><line x1="51.41600036621094" y1="148.50861113425586" x2="46.41600036621094" y2="148.50861113425586" style="visibility: inherit;" fill="rgb(0, 0, 0)" stroke="rgb(204, 204, 204)" stroke-width="1px"></line><line x1="51.41600036621094" y1="142.46894142459348" x2="46.41600036621094" y2="142.46894142459348" style="visibility: inherit;" fill="rgb(0, 0, 0)" stroke="rgb(204, 204, 204)" stroke-width="1px"></line><line x1="51.41600036621094" y1="137.06627276805253" x2="46.41600036621094" y2="137.06627276805253" style="visibility: inherit;" fill="rgb(0, 0, 0)" stroke="rgb(204, 204, 204)" stroke-width="1px"></line><line x1="51.41600036621094" y1="101.52312338804319" x2="46.41600036621094" y2="101.52312338804319" style="visibility: inherit;" fill="rgb(0, 0, 0)" stroke="rgb(204, 204, 204)" stroke-width="1px"></line><line x1="51.41600036621094" y1="80.73171384320739" x2="46.41600036621094" y2="80.73171384320739" style="visibility: inherit;" fill="rgb(0, 0, 0)" stroke="rgb(204, 204, 204)" stroke-width="1px"></line><line x1="51.41600036621094" y1="65.97997400803393" x2="46.41600036621094" y2="65.97997400803393" style="visibility: inherit;" fill="rgb(0, 0, 0)" stroke="rgb(204, 204, 204)" stroke-width="1px"></line><line x1="51.41600036621094" y1="54.53763564183055" x2="46.41600036621094" y2="54.53763564183055" style="visibility: inherit;" fill="rgb(0, 0, 0)" stroke="rgb(204, 204, 204)" stroke-width="1px"></line><line x1="51.41600036621094" y1="45.18856446319808" x2="46.41600036621094" y2="45.18856446319808" style="visibility: inherit;" fill="rgb(0, 0, 0)" stroke="rgb(204, 204, 204)" stroke-width="1px"></line><line x1="51.41600036621094" y1="37.28403741065466" x2="46.41600036621094" y2="37.28403741065466" style="visibility: inherit;" fill="rgb(0, 0, 0)" stroke="rgb(204, 204, 204)" stroke-width="1px"></line><line x1="51.41600036621094" y1="30.436824628024624" x2="46.41600036621094" y2="30.436824628024624" style="visibility: inherit;" fill="rgb(0, 0, 0)" stroke="rgb(204, 204, 204)" stroke-width="1px"></line><line x1="51.41600036621094" y1="24.397154918362162" x2="46.41600036621094" y2="24.397154918362162" style="visibility: inherit;" fill="rgb(0, 0, 0)" stroke="rgb(204, 204, 204)" stroke-width="1px"></line><line x1="51.41600036621094" y1="18.994486261821294" x2="46.41600036621094" y2="18.994486261821294" style="visibility: inherit;" fill="rgb(0, 0, 0)" stroke="rgb(204, 204, 204)" stroke-width="1px"></line></g><g transform="translate(41.41600036621094, 0)"><text style="text-anchor: end; visibility: hidden; font-family: &quot;Helvetica Neue&quot;, sans-serif; font-size: 12px; font-weight: 200;" x="0" y="373.20984578051514" dx="0em" dy="0.3em" fill="rgb(50, 49, 63)" stroke="none" stroke-width="1px">10</text><text style="text-anchor: end; visibility: inherit; font-family: &quot;Helvetica Neue&quot;, sans-serif; font-size: 12px; font-weight: 200;" x="0" y="337.6666964005058" dx="0em" dy="0.3em" fill="rgb(50, 49, 63)" stroke="none" stroke-width="1px">20</text><text style="text-anchor: end; visibility: hidden; font-family: &quot;Helvetica Neue&quot;, sans-serif; font-size: 12px; font-weight: 200;" x="0" y="316.87528685566997" dx="0em" dy="0.3em" fill="rgb(50, 49, 63)" stroke="none" stroke-width="1px">30</text><text style="text-anchor: end; visibility: hidden; font-family: &quot;Helvetica Neue&quot;, sans-serif; font-size: 12px; font-weight: 200;" x="0" y="302.1235470204965" dx="0em" dy="0.3em" fill="rgb(50, 49, 63)" stroke="none" stroke-width="1px">40</text><text style="text-anchor: end; visibility: hidden; font-family: &quot;Helvetica Neue&quot;, sans-serif; font-size: 12px; font-weight: 200;" x="0" y="290.6812086542932" dx="0em" dy="0.3em" fill="rgb(50, 49, 63)" stroke="none" stroke-width="1px">50</text><text style="text-anchor: end; visibility: inherit; font-family: &quot;Helvetica Neue&quot;, sans-serif; font-size: 12px; font-weight: 200;" x="0" y="281.3321374756606" dx="0em" dy="0.3em" fill="rgb(50, 49, 63)" stroke="none" stroke-width="1px">60</text><text style="text-anchor: end; visibility: hidden; font-family: &quot;Helvetica Neue&quot;, sans-serif; font-size: 12px; font-weight: 200;" x="0" y="273.42761042311724" dx="0em" dy="0.3em" fill="rgb(50, 49, 63)" stroke="none" stroke-width="1px">70</text><text style="text-anchor: end; visibility: hidden; font-family: &quot;Helvetica Neue&quot;, sans-serif; font-size: 12px; font-weight: 200;" x="0" y="266.58039764048715" dx="0em" dy="0.3em" fill="rgb(50, 49, 63)" stroke="none" stroke-width="1px">80</text><text style="text-anchor: end; visibility: hidden; font-family: &quot;Helvetica Neue&quot;, sans-serif; font-size: 12px; font-weight: 200;" x="0" y="260.5407279308248" dx="0em" dy="0.3em" fill="rgb(50, 49, 63)" stroke="none" stroke-width="1px">90</text><text style="text-anchor: end; visibility: inherit; font-family: &quot;Helvetica Neue&quot;, sans-serif; font-size: 12px; font-weight: 200;" x="0" y="255.13805927428382" dx="0em" dy="0.3em" fill="rgb(50, 49, 63)" stroke="none" stroke-width="1px">100</text><text style="text-anchor: end; visibility: hidden; font-family: &quot;Helvetica Neue&quot;, sans-serif; font-size: 12px; font-weight: 200;" x="0" y="219.5949098942745" dx="0em" dy="0.3em" fill="rgb(50, 49, 63)" stroke="none" stroke-width="1px">200</text><text style="text-anchor: end; visibility: hidden; font-family: &quot;Helvetica Neue&quot;, sans-serif; font-size: 12px; font-weight: 200;" x="0" y="198.80350034943865" dx="0em" dy="0.3em" fill="rgb(50, 49, 63)" stroke="none" stroke-width="1px">300</text><text style="text-anchor: end; visibility: hidden; font-family: &quot;Helvetica Neue&quot;, sans-serif; font-size: 12px; font-weight: 200;" x="0" y="184.05176051426517" dx="0em" dy="0.3em" fill="rgb(50, 49, 63)" stroke="none" stroke-width="1px">400</text><text style="text-anchor: end; visibility: inherit; font-family: &quot;Helvetica Neue&quot;, sans-serif; font-size: 12px; font-weight: 200;" x="0" y="172.60942214806187" dx="0em" dy="0.3em" fill="rgb(50, 49, 63)" stroke="none" stroke-width="1px">500</text><text style="text-anchor: end; visibility: hidden; font-family: &quot;Helvetica Neue&quot;, sans-serif; font-size: 12px; font-weight: 200;" x="0" y="163.26035096942937" dx="0em" dy="0.3em" fill="rgb(50, 49, 63)" stroke="none" stroke-width="1px">600</text><text style="text-anchor: end; visibility: hidden; font-family: &quot;Helvetica Neue&quot;, sans-serif; font-size: 12px; font-weight: 200;" x="0" y="155.35582391688598" dx="0em" dy="0.3em" fill="rgb(50, 49, 63)" stroke="none" stroke-width="1px">700</text><text style="text-anchor: end; visibility: hidden; font-family: &quot;Helvetica Neue&quot;, sans-serif; font-size: 12px; font-weight: 200;" x="0" y="148.50861113425586" dx="0em" dy="0.3em" fill="rgb(50, 49, 63)" stroke="none" stroke-width="1px">800</text><text style="text-anchor: end; visibility: inherit; font-family: &quot;Helvetica Neue&quot;, sans-serif; font-size: 12px; font-weight: 200;" x="0" y="142.46894142459348" dx="0em" dy="0.3em" fill="rgb(50, 49, 63)" stroke="none" stroke-width="1px">900</text><text style="text-anchor: end; visibility: hidden; font-family: &quot;Helvetica Neue&quot;, sans-serif; font-size: 12px; font-weight: 200;" x="0" y="137.06627276805253" dx="0em" dy="0.3em" fill="rgb(50, 49, 63)" stroke="none" stroke-width="1px">1e+3</text><text style="text-anchor: end; visibility: hidden; font-family: &quot;Helvetica Neue&quot;, sans-serif; font-size: 12px; font-weight: 200;" x="0" y="101.52312338804319" dx="0em" dy="0.3em" fill="rgb(50, 49, 63)" stroke="none" stroke-width="1px">2e+3</text><text style="text-anchor: end; visibility: hidden; font-family: &quot;Helvetica Neue&quot;, sans-serif; font-size: 12px; font-weight: 200;" x="0" y="80.73171384320739" dx="0em" dy="0.3em" fill="rgb(50, 49, 63)" stroke="none" stroke-width="1px">3e+3</text><text style="text-anchor: end; visibility: inherit; font-family: &quot;Helvetica Neue&quot;, sans-serif; font-size: 12px; font-weight: 200;" x="0" y="65.97997400803393" dx="0em" dy="0.3em" fill="rgb(50, 49, 63)" stroke="none" stroke-width="1px">4e+3</text><text style="text-anchor: end; visibility: hidden; font-family: &quot;Helvetica Neue&quot;, sans-serif; font-size: 12px; font-weight: 200;" x="0" y="54.53763564183055" dx="0em" dy="0.3em" fill="rgb(50, 49, 63)" stroke="none" stroke-width="1px">5e+3</text><text style="text-anchor: end; visibility: hidden; font-family: &quot;Helvetica Neue&quot;, sans-serif; font-size: 12px; font-weight: 200;" x="0" y="45.18856446319808" dx="0em" dy="0.3em" fill="rgb(50, 49, 63)" stroke="none" stroke-width="1px">6e+3</text><text style="text-anchor: end; visibility: hidden; font-family: &quot;Helvetica Neue&quot;, sans-serif; font-size: 12px; font-weight: 200;" x="0" y="37.28403741065466" dx="0em" dy="0.3em" fill="rgb(50, 49, 63)" stroke="none" stroke-width="1px">7e+3</text><text style="text-anchor: end; visibility: inherit; font-family: &quot;Helvetica Neue&quot;, sans-serif; font-size: 12px; font-weight: 200;" x="0" y="30.436824628024624" dx="0em" dy="0.3em" fill="rgb(50, 49, 63)" stroke="none" stroke-width="1px">8e+3</text><text style="text-anchor: end; visibility: hidden; font-family: &quot;Helvetica Neue&quot;, sans-serif; font-size: 12px; font-weight: 200;" x="0" y="24.397154918362162" dx="0em" dy="0.3em" fill="rgb(50, 49, 63)" stroke="none" stroke-width="1px">9e+3</text><text style="text-anchor: end; visibility: hidden; font-family: &quot;Helvetica Neue&quot;, sans-serif; font-size: 12px; font-weight: 200;" x="0" y="18.994486261821294" dx="0em" dy="0.3em" fill="rgb(50, 49, 63)" stroke="none" stroke-width="1px">1e+4</text></g><line x1="51.41600036621094" y1="0" x2="51.41600036621094" y2="377.95999908447266" fill="rgb(0, 0, 0)" stroke="rgb(204, 204, 204)" stroke-width="1px"></line></g></g><g transform="translate(51, 0)" clip-path="url(#clip_0)"><clipPath id="clip_0"><rect width="1461" height="377"></rect></clipPath><g><g><g><line x1="0" y1="0" x2="0" y2="377.95999908447266" fill="rgb(0, 0, 0)" stroke="rgb(60, 60, 60)" stroke-width="1px" opacity="0.25"></line><line x1="132.8712726939808" y1="0" x2="132.8712726939808" y2="377.95999908447266" fill="rgb(0, 0, 0)" stroke="rgb(60, 60, 60)" stroke-width="1px" opacity="0.25"></line><line x1="265.7425453879616" y1="0" x2="265.7425453879616" y2="377.95999908447266" fill="rgb(0, 0, 0)" stroke="rgb(60, 60, 60)" stroke-width="1px" opacity="0.25"></line><line x1="398.61381808194244" y1="0" x2="398.61381808194244" y2="377.95999908447266" fill="rgb(0, 0, 0)" stroke="rgb(60, 60, 60)" stroke-width="1px" opacity="0.25"></line><line x1="531.4850907759233" y1="0" x2="531.4850907759233" y2="377.95999908447266" fill="rgb(0, 0, 0)" stroke="rgb(60, 60, 60)" stroke-width="1px" opacity="0.25"></line><line x1="664.3563634699041" y1="0" x2="664.3563634699041" y2="377.95999908447266" fill="rgb(0, 0, 0)" stroke="rgb(60, 60, 60)" stroke-width="1px" opacity="0.25"></line><line x1="797.2276361638849" y1="0" x2="797.2276361638849" y2="377.95999908447266" fill="rgb(0, 0, 0)" stroke="rgb(60, 60, 60)" stroke-width="1px" opacity="0.25"></line><line x1="930.0989088578658" y1="0" x2="930.0989088578658" y2="377.95999908447266" fill="rgb(0, 0, 0)" stroke="rgb(60, 60, 60)" stroke-width="1px" opacity="0.25"></line><line x1="1062.9701815518465" y1="0" x2="1062.9701815518465" y2="377.95999908447266" fill="rgb(0, 0, 0)" stroke="rgb(60, 60, 60)" stroke-width="1px" opacity="0.25"></line><line x1="1195.8414542458274" y1="0" x2="1195.8414542458274" y2="377.95999908447266" fill="rgb(0, 0, 0)" stroke="rgb(60, 60, 60)" stroke-width="1px" opacity="0.25"></line><line x1="1328.7127269398081" y1="0" x2="1328.7127269398081" y2="377.95999908447266" fill="rgb(0, 0, 0)" stroke="rgb(60, 60, 60)" stroke-width="1px" opacity="0.25"></line><line x1="1461.583999633789" y1="0" x2="1461.583999633789" y2="377.95999908447266" fill="rgb(0, 0, 0)" stroke="rgb(60, 60, 60)" stroke-width="1px" opacity="0.25"></line></g><g><line x1="0" y1="373.20984578051514" x2="1461.583999633789" y2="373.20984578051514" fill="rgb(0, 0, 0)" stroke="rgb(60, 60, 60)" stroke-width="1px" opacity="0.25"></line><line x1="0" y1="337.6666964005058" x2="1461.583999633789" y2="337.6666964005058" fill="rgb(0, 0, 0)" stroke="rgb(60, 60, 60)" stroke-width="1px" opacity="0.25"></line><line x1="0" y1="316.87528685566997" x2="1461.583999633789" y2="316.87528685566997" fill="rgb(0, 0, 0)" stroke="rgb(60, 60, 60)" stroke-width="1px" opacity="0.25"></line><line x1="0" y1="302.1235470204965" x2="1461.583999633789" y2="302.1235470204965" fill="rgb(0, 0, 0)" stroke="rgb(60, 60, 60)" stroke-width="1px" opacity="0.25"></line><line x1="0" y1="290.6812086542932" x2="1461.583999633789" y2="290.6812086542932" fill="rgb(0, 0, 0)" stroke="rgb(60, 60, 60)" stroke-width="1px" opacity="0.25"></line><line x1="0" y1="281.3321374756606" x2="1461.583999633789" y2="281.3321374756606" fill="rgb(0, 0, 0)" stroke="rgb(60, 60, 60)" stroke-width="1px" opacity="0.25"></line><line x1="0" y1="273.42761042311724" x2="1461.583999633789" y2="273.42761042311724" fill="rgb(0, 0, 0)" stroke="rgb(60, 60, 60)" stroke-width="1px" opacity="0.25"></line><line x1="0" y1="266.58039764048715" x2="1461.583999633789" y2="266.58039764048715" fill="rgb(0, 0, 0)" stroke="rgb(60, 60, 60)" stroke-width="1px" opacity="0.25"></line><line x1="0" y1="260.5407279308248" x2="1461.583999633789" y2="260.5407279308248" fill="rgb(0, 0, 0)" stroke="rgb(60, 60, 60)" stroke-width="1px" opacity="0.25"></line><line x1="0" y1="255.13805927428382" x2="1461.583999633789" y2="255.13805927428382" fill="rgb(0, 0, 0)" stroke="rgb(60, 60, 60)" stroke-width="1px" opacity="0.25"></line><line x1="0" y1="219.5949098942745" x2="1461.583999633789" y2="219.5949098942745" fill="rgb(0, 0, 0)" stroke="rgb(60, 60, 60)" stroke-width="1px" opacity="0.25"></line><line x1="0" y1="198.80350034943865" x2="1461.583999633789" y2="198.80350034943865" fill="rgb(0, 0, 0)" stroke="rgb(60, 60, 60)" stroke-width="1px" opacity="0.25"></line><line x1="0" y1="184.05176051426517" x2="1461.583999633789" y2="184.05176051426517" fill="rgb(0, 0, 0)" stroke="rgb(60, 60, 60)" stroke-width="1px" opacity="0.25"></line><line x1="0" y1="172.60942214806187" x2="1461.583999633789" y2="172.60942214806187" fill="rgb(0, 0, 0)" stroke="rgb(60, 60, 60)" stroke-width="1px" opacity="0.25"></line><line x1="0" y1="163.26035096942937" x2="1461.583999633789" y2="163.26035096942937" fill="rgb(0, 0, 0)" stroke="rgb(60, 60, 60)" stroke-width="1px" opacity="0.25"></line><line x1="0" y1="155.35582391688598" x2="1461.583999633789" y2="155.35582391688598" fill="rgb(0, 0, 0)" stroke="rgb(60, 60, 60)" stroke-width="1px" opacity="0.25"></line><line x1="0" y1="148.50861113425586" x2="1461.583999633789" y2="148.50861113425586" fill="rgb(0, 0, 0)" stroke="rgb(60, 60, 60)" stroke-width="1px" opacity="0.25"></line><line x1="0" y1="142.46894142459348" x2="1461.583999633789" y2="142.46894142459348" fill="rgb(0, 0, 0)" stroke="rgb(60, 60, 60)" stroke-width="1px" opacity="0.25"></line><line x1="0" y1="137.06627276805253" x2="1461.583999633789" y2="137.06627276805253" fill="rgb(0, 0, 0)" stroke="rgb(60, 60, 60)" stroke-width="1px" opacity="0.25"></line><line x1="0" y1="101.52312338804319" x2="1461.583999633789" y2="101.52312338804319" fill="rgb(0, 0, 0)" stroke="rgb(60, 60, 60)" stroke-width="1px" opacity="0.25"></line><line x1="0" y1="80.73171384320739" x2="1461.583999633789" y2="80.73171384320739" fill="rgb(0, 0, 0)" stroke="rgb(60, 60, 60)" stroke-width="1px" opacity="0.25"></line><line x1="0" y1="65.97997400803393" x2="1461.583999633789" y2="65.97997400803393" fill="rgb(0, 0, 0)" stroke="rgb(60, 60, 60)" stroke-width="1px" opacity="0.25"></line><line x1="0" y1="54.53763564183055" x2="1461.583999633789" y2="54.53763564183055" fill="rgb(0, 0, 0)" stroke="rgb(60, 60, 60)" stroke-width="1px" opacity="0.25"></line><line x1="0" y1="45.18856446319808" x2="1461.583999633789" y2="45.18856446319808" fill="rgb(0, 0, 0)" stroke="rgb(60, 60, 60)" stroke-width="1px" opacity="0.25"></line><line x1="0" y1="37.28403741065466" x2="1461.583999633789" y2="37.28403741065466" fill="rgb(0, 0, 0)" stroke="rgb(60, 60, 60)" stroke-width="1px" opacity="0.25"></line><line x1="0" y1="30.436824628024624" x2="1461.583999633789" y2="30.436824628024624" fill="rgb(0, 0, 0)" stroke="rgb(60, 60, 60)" stroke-width="1px" opacity="0.25"></line><line x1="0" y1="24.397154918362162" x2="1461.583999633789" y2="24.397154918362162" fill="rgb(0, 0, 0)" stroke="rgb(60, 60, 60)" stroke-width="1px" opacity="0.25"></line><line x1="0" y1="18.994486261821294" x2="1461.583999633789" y2="18.994486261821294" fill="rgb(0, 0, 0)" stroke="rgb(60, 60, 60)" stroke-width="1px" opacity="0.25"></line></g></g></g><g><g><line x1="0" y1="0" x2="0" y2="377.95999908447266" fill="rgb(0, 0, 0)" stroke="rgb(153, 153, 153)" stroke-width="1.5px"></line></g></g><g><g><g><g><g><path style="fill: none;" stroke="rgb(255, 112, 67)" stroke-width="2px" d="M135.39582687516648,64.28263074120485L136.19305451133036,84.44548147374843L138.31899487443403,81.41759094577674L138.584737419822,83.18760955767027L138.98335123790395,96.92199891262908L140.44493523753772,101.42146507959558L142.43800432794745,108.16744766460698L142.8366181460294,112.12665908759914L145.49404359990902,122.94383555870289L146.55701378146085,124.58287967932944L147.08849887223678,93.3411978191395L149.74592432611638,97.02722002486189L153.59919123424183,101.45307508355768L153.99780505232377,104.59483875037097L155.1936465065696,108.5477083004003L156.6552305062034,132.59850117119086L157.31958686967332,148.55890773191453L157.58532941506124,114.96691265935652L158.24968577853116,113.89704701268437L163.43166541359642,125.6483293916294L164.0960217770663,144.6183176105418L166.08909086747602,114.40570491533776L166.8863185036399,103.36409348760452L167.55067486710982,75.85564447795429L168.4807737759677,83.66510057128659L169.27800141213157,93.37916227887501L171.8025555933172,113.64737195896925L173.9284959564209,116.5574988870834L174.19423850180885,129.06326485435994L175.25720868336072,151.10782709459303L176.85166395568848,139.78977974967557L178.0475054099343,144.78544517084347L179.11047559148614,145.45780053562916L181.23641595458983,168.31200766568335L181.76790104536576,170.8524523406408L188.94294977084073,185.53028417616795L189.07582104353472,175.39646540078581L191.3346326793324,181.6503187827452L191.7332464974143,204.36835635716525L192.13186031549628,194.41553112059418L194.12492940590596,153.32656899399834L194.52354322398793,147.91754654941298L194.6564144966819,131.81020503022083L195.98512722362173,134.3462518558758L198.2439388594194,143.58635440293418L198.50968140480734,149.12881984532922L201.29997813138095,145.5340527258903L203.5587897671786,170.82400665552035L204.22314613064853,179.68955270321118L207.81067049338603,151.04388952192116L209.13938322032584,142.99183932325306L209.93661085648972,135.02356631360567L210.86670976534757,141.406838479641L210.99958103804155,154.64116977633694L212.99265012845126,151.37524323680103L215.3843330369429,174.5395001118454L215.65007558233086,135.47184233645018L217.24453085465868,129.3671005863315L218.17462976351652,131.92390262582686L218.30750103621048,150.39490705585396L218.57324358159843,137.677291921958L218.9718573996804,153.73690260843495L219.23759994506835,141.49479008283268L220.83205521739612,141.56707451182257L222.16076794433593,143.4974167765658L224.41957958013361,151.72558016533782L227.87423267017712,161.33797836126251L228.40571776095305,170.62394963686026L228.93720285172896,185.36045145798153L230.00017303328082,147.01467382483202L231.1960144875266,157.31058862229938L231.72749957830257,162.4238200657079L232.9233410325484,173.34739766470597L233.4548261233243,189.48255427903777L234.65066757757015,193.41990535458845L235.18215266834608,197.29502102490014L235.44789521373403,213.9301576163132L235.71363775912198,215.41133064481033L236.64373666797985,222.04658087405514L237.30809303144977,236.21710281362456L237.57383557683772,231.15383529215518L238.23819194030762,220.00733904314242L238.50393448569557,232.432349768386L239.0354195764715,225.56530588067594L239.56690466724746,183.51544620157932L240.36413230341134,182.5572772316165L240.4970035761053,191.48300700910934L243.55304284806687,212.35974490040994L244.0845279388428,230.25880452015846L248.46927993774415,244.44890763630772L249.39937884660202,258.5164620369876L250.1966064827659,276.6580562888548L252.05680430048162,284.6028061429744L252.58828939125755,292.5468235945775L253.5183883001154,298.75044482751207L253.7841308455034,311.3124731833051L254.58135848166728,116.29430776502238L254.8471010270552,141.6252039107775L256.70729884477095,165.09184845605517L256.84017011746494,190.28981566848208L258.1688828444048,213.7878488137727L258.5674966624867,233.44544286441672L259.76333811673254,254.98495239266987L260.2948232075084,265.1459194492795L260.82630829828435,269.3720471350366L262.0221497525302,284.33566970700605L262.1550210252242,300.0377649101765L262.95224866138807,308.50592108587387L263.085119934082,298.61554181742883L263.74947629755195,311.425824102802L266.1411592060436,325.85649453069414L266.5397730241255,300.89048606980504L267.73561447837136,283.87334462411917L271.72175265919077,291.6663137389007L273.4490792042125,284.6497027586093L274.2463068403764,248.04566828113744L274.6449206584584,248.87359390606528L274.9106632038463,260.3974827807647L275.44214829462226,258.1044104130581L276.23937593078614,262.93054803516736L276.90373229425603,263.23023610869825L278.2324450211959,280.50794298290145L279.02967265735975,277.23006132195644L279.69402902082965,274.92383587943334L281.02274174776943,274.08065489779085L281.6870981112393,260.71945469009415L286.60333520091666,269.92315175768215L287.13482029169256,259.13709824321984L287.26769156438655,258.9699278748228L287.40056283708054,275.14259565693396L289.7922457455722,261.78776904735116L291.38670101789995,276.74232516268955L291.51957229059394,286.112188920369L292.3167999267578,270.5547384683614L293.2468988356157,276.20266112878016L296.7015519256592,285.05410267575303L298.29600719798697,282.48451141112565L299.75759119762074,280.6727714367841L300.15620501570265,278.9379550371245L300.5548188337846,270.957434291762L303.21224428766425,266.84945473013164L304.00947192382813,289.1645179836821L304.939570832686,284.8810331136747L305.7367984688499,266.3940811918401L307.8627388319536,274.3612563234079L308.2613526500355,264.87511665349325L309.7229366496693,256.49538458949115L310.12155046775126,272.0169407087021L310.5201642858332,278.7694073784859L310.65303555852716,300.18218599255124L317.0308566478383,284.6417730219875L317.4294704659202,297.8907282131196L317.82808428400216,297.2342394303024L317.9609555566961,318.65010678585634L320.8841235559637,339.9127220722603L322.47857882829146,333.7424832055289L322.74432137367944,333.8178544596042L323.27580646445534,345.26155183195004L323.80729155523125,325.5795759730105L324.3387766460072,318.1224898967576L327.6605584633567,331.8103167626151L327.79342973605065,338.7798532640899L329.2550137356845,335.349523503249L330.31798391723635,330.16884300299273L330.84946900801225,322.93700278126585L331.11521155340023,324.32837983109437L333.3740231891979,328.8787099664631L335.3670922796076,310.04818069649946L335.8985773703835,328.08487607491907L339.22035918773304,315.2171579657075L341.34629955083676,318.0265416912431L341.47917082353075,337.97162806592394L343.4722399139404,324.55583456542684L344.00372500471633,317.5297366187496L346.12966536782005,321.0059610406457L346.26253664051404,341.2797277480748L347.9898631855358,325.96805997934666L349.1857046397816,335.2560828173763L349.8500610032515,323.72024189617684L350.51441736672143,309.8684270782639L350.91303118480334,315.17339876008725L351.57738754827324,328.58539969836244L351.9760013663552,317.48123388573384L353.57045663868297,314.60886287729556L354.63342682023483,315.7553592036137L355.5635257290927,329.12890503228124L356.4936246379506,328.68275607827337L357.68946609219637,315.42633617234765L358.22095118297227,337.54953677768685L358.48669372836025,316.9005895779899L358.75243627374823,332.386033769998L359.1510500918302,324.19907916374996L360.081149000688,309.8490395706251L361.27699045493387,317.5534725955673L362.60570318187365,320.5393613201954L363.1371882726496,314.90640173126786L363.40293081803753,316.26553534088833L363.8015446361195,337.83779600587053L364.4659009995894,333.76171187997534L364.8645148176713,313.60190964416125L364.9973860903653,314.3279672071187L365.13025736305934,328.6176762676969L367.654811544245,331.20401487720875L368.8506529984907,314.9288895954287L369.64788063465465,307.2427770172069L370.57797954351247,310.40148577177484L370.7108508162065,325.4007483066089L371.9066922704523,318.5941292651695L372.8367911793102,308.376019916622L375.6270879058838,317.55357959797794L376.1585729966597,314.42491059974157L377.4872857235995,311.7996819608641L378.0187708143754,316.10433870437976L379.21461226862124,305.24712253361326L380.941938813643,309.0353908884159L381.34055263172496,331.9269112044125L382.13778026788884,347.7405190693175L382.40352281327677,322.4012470588086L386.92114608487213,341.59735842160455L387.718373721036,352.67795728722643L389.97718535683373,246.15449739584236L390.2429279022217,233.76681756138336L391.3058980837735,251.77375559893193L391.7045119018555,263.47016515285986L391.97025444724346,286.8730260862991L394.3619373557351,284.91221008113035L396.22213517345085,286.0296006492521L396.4878777188388,308.2094305984593L398.8795606273305,67.64894702052493L399.4110457181064,59.73569757544493L400.47401589965824,56.714547902567574L402.73282753545584,53.994285583496094L403.5300551716198,52.89927660432522L406.7189657162753,52.43273930540607L408.44629226129706,53.64035061947686L408.844906079379,52.52496733760637L408.97777735207296,51.62977719231873L409.243519897461,51.73724717051658L409.5092624428489,52.14317282473763L410.0407475336248,51.81973608394151L410.5722326244007,72.7807654040169L411.5023315332586,91.22426041352935L413.4954006236683,72.18153345787374L418.01302389526364,45.39524546579702L418.5445089860396,47.37391271262271L419.4746078948974,34.65945401906919L420.67044934914327,28.789023792280318L422.26490462147103,37.4195426347394L423.5936173484109,42.55288782375368L423.8593598937988,46.658317565638185L424.12510243918683,34.826226152926665L424.2579737118808,29.43597856056101L424.78945880265667,36.91159117797912L425.18807262073864,29.91414135236755L426.2510428022905,37.26165287164639L426.7825278930664,30.391374090836052L429.439953346946,26.43466075117999L430.104309710416,34.68367560982642L430.2371809831099,29.34815186239655L430.5029235284979,25.791714841127884L430.9015373465798,35.286878235564814L431.4330224373557,26.14175910298661L431.56589371004975,27.759308166946937L432.49599261890756,47.67850902537458L432.8946064369895,58.009059231352694L433.5589628004594,79.0283726774627L436.0835169816451,94.55601672918766L437.41222970858485,53.881683666222955L438.2094573447487,38.09161731829073L439.00668498091267,43.17192719919609L439.53817007168857,32.85088529220934L441.13262534401633,38.985795456833046L441.2654966167103,31.66107449407764L444.5872784340598,28.73192209103769L445.78311988830563,25.630919141368793L448.04193152410335,34.572313040726044L450.433614432595,29.325512684162106L450.5664857052889,25.830876233399692L450.83222825067696,34.53751482650915L452.6924260683927,40.256516221792594L456.67856424921206,62.112171609186305L457.7415344307639,58.530791483922485L458.67163333962185,39.78669577666881L458.93737588500977,32.027366162480064L459.2031184303977,39.27746798992263L459.86747479386764,31.722713415394935L463.18925661121716,27.20027952295669L463.32212788391115,25.194596380352664L464.65084061085093,34.06915668204772L464.9165831562389,28.661864763188817L465.58093951970875,54.72110893945381L467.44113733742455,80.68469970292074L468.23836497358843,106.51974084412473L469.4342064278342,132.16459472125877L471.42727551824396,157.2605139193463L471.9587606090199,181.85432954928018L472.22450315440784,205.46322419866172L473.9518296994296,228.07771837868896L475.54628497175736,248.50486581228677L477.1407402440851,266.61230961216586L478.46945297102496,279.89803015711266L479.26668060718885,289.57066266539016L481.5254922429865,298.74090606596013L482.32271987915044,303.62671057184093L482.4555911518444,306.4690328593479L483.51856133339624,309.38489946853275L484.3157889695601,311.98124749213633L485.113016605724,312.88819326088856L485.7773729691939,313.6513946681507L488.83341224115543,313.2613890086528L489.76351115001336,315.81342098307516L490.4278675134832,316.17079458747514L492.15519405850495,315.59604214039416L493.0852929673628,313.8670936881195L495.07836205777255,314.1290642584436L496.6728173301003,314.1960756024545L497.0714311481823,314.4681856879629L498.931628965898,315.1475067833902L499.06450023859196,315.23606392832755L499.33024278397994,314.96961126930313L503.58212351018733,314.47583253392554L503.7149947828813,312.2848573450208L503.84786605557525,312.2616806987626L504.7779649644332,311.5622054079332L506.23954896406696,314.14408629511354L508.23261805447663,312.49586473577847L508.8969744179466,312.47319952483696L512.8831125987659,313.6380376480431L514.6104391437877,314.9987286841343L515.8062805980335,314.9177728463096L517.0021220522793,314.6169362292015L517.7993496884433,314.1487835765422L518.3308347792192,318.26361774813L520.5896464150168,318.9589564168923L520.8553889604049,319.63582928610157L520.9882602330988,317.8817094255919L522.5827155054266,315.3489567820679L527.2332100497159,317.5305278705425L528.2961802312677,316.9879895541733L531.3522195032293,316.74779776367797L532.5480609574752,314.1702153366554L532.8138035028632,314.8723789219875L533.079546048251,316.03867489692436L533.611031139027,318.23103870468935L533.7439024117209,315.753061796604L535.2054864113547,312.1773759307056L535.6041002294368,313.3734941664309L536.6670704109886,313.9005511572887L537.0656842290705,314.76841846668685L540.254594773726,314.0774227179075L540.786079864502,312.1557809591485L541.0518224098898,313.08489272714087L543.0448915002996,311.5730711833807L544.7722180453214,313.4250985997961L547.8282573172829,313.8435380968929L549.8213264076926,312.8997446112572L550.8842965892445,315.398731645375L551.5486529527144,315.4561297770645L552.2130093161843,318.5870108383807L552.7444944069603,315.5263816146427L553.0102369523481,314.0252009976611L555.136177315452,312.2363099645622L557.5278602239435,312.33373143110236L557.6607314966375,313.19525318697436L558.5908304054954,310.8060677249722L558.9894442235773,313.4002814507928L562.1783547682328,314.9815558672083L562.5769685863148,315.3564735274822L563.5070674951727,312.9792222804763L563.9056813132546,313.7562490285262L564.0385525859487,313.022084230662L564.3042951313365,315.06397684857956L564.4371664040306,316.43344466186494L567.75894822138,314.69524135085595L568.9547896756259,313.99326982749574L572.1437002202814,312.54383902433204L573.2066704018333,316.3409789564369L575.066868219549,315.83199048879794L575.199739492243,317.76232983774764L575.8640958557129,316.2990680108652L577.4585511280407,314.2168900494029L581.3118180361661,317.37868284584135L581.577560581554,316.64951783732045L581.843303126942,316.37437715014875L582.9062733084938,320.47622707566825L585.1650849442916,318.9706956616057L585.8294413077614,316.7065011566101L588.752609307029,316.0160284398292L589.151223125111,317.61520619786364L589.8155794885809,318.8729496857201L591.2771634882147,318.13865860233454L591.5429060336027,316.07808515120445L592.4730049424605,315.50695087923276L593.2702325786244,313.8686249280016L594.2003314874822,313.8991501263245L594.9975591236462,311.893976500094L595.3961729417281,312.9576325423278L597.6549845775257,315.99217709047105L599.2494398498535,318.17109524253226L599.6480536679355,319.3537852721298L600.5781525767933,317.2522710490252L602.704092939897,315.7521243222397L602.969835485285,315.0592141228541L603.7670631214488,316.41587718877463L604.2985482122248,316.30106362400056L606.4244885753285,316.4897315613202L608.6833002111262,314.23025282056705L611.3407256650058,316.68321854194386L613.7324085734974,315.69996428426754L613.9981511188854,315.9976071070638L614.2638936642734,316.3776358573L614.6625074823553,315.41048982367283L615.0611213004372,315.8336160113723L617.319932936235,319.1664856107061L618.7815169358687,319.326299788619L620.6417147535844,317.5591947559545L624.6278529344039,316.9025396028878L624.8935954797919,317.4799884641084L628.0825060244474,317.0482664873913L628.6139911152233,318.97198248263913L628.8797336606112,315.23527862862727L629.6769612967752,314.9318035127957L630.0755751148571,318.4298524314535L630.341317660245,316.72252685349076L631.5371591144908,316.9038295254316L632.4672580233488,317.51675221893703L634.1945845683705,317.337844892175L635.2575547499223,315.96979588934585L636.9848812949441,319.020564641622L637.2506238403321,314.8034612444845L637.649237658414,316.4628624706864L639.2436929307418,321.2272425442389L639.7751780215177,317.1296437824952L640.4395343849876,315.5732659967613L640.7052769303755,314.5093532656037L642.0339896573154,317.77829776279725L642.5654747480913,317.74911253392776L646.4187416562166,313.9617005752664L647.0830980196866,314.7301615819314L648.0131969285444,315.21972275797907L651.467850018588,318.5236442810592L653.8595329270796,319.327465585466L654.9225031086315,317.89951596222915L655.8526020174894,318.91752170581236L656.3840871082652,318.7363828127407L657.8456711078991,318.4542415795346L658.6428987440629,317.75031239017216L659.4401263802268,316.1904350056689L662.3632943794944,315.4768793469411L663.8248783791282,316.4399865454555L664.4892347425981,314.38201108343793L665.685076196844,312.1991663271789L665.8179474695379,316.1722394643492L667.4124027418657,314.44540923103136L668.8739867414995,312.0490853474819L669.2726005595814,314.47188334591505L670.6013132865212,314.87622967966064L676.8462631031383,315.59097269065126L677.5106194666082,315.1459493777584L677.6434907393021,316.3104088701276L678.972203466242,316.54317083962377L688.6718063729027,317.235056422967L690.1333903725364,316.2732409323444L690.2662616452304,317.1730584328631L690.5320041906183,318.70375248614795L690.7977467360063,316.42862663111845L691.1963605540882,317.0827577582749L691.3292318267822,315.5844815660087L694.6510136441318,318.5215559812891L695.3153700076016,322.77793403543546L695.7139838256836,319.2206998394746L696.7769540072354,317.1215130596632L698.2385380068692,317.97822203069137L699.4343794611151,320.13654972643747L699.832993279197,318.67570686645684L699.965864551891,317.6799393570689L701.9589336423007,315.8745089885239L704.0848740054043,314.5348344530075L704.8821016415683,314.51507324939325L705.4135867323442,315.86461290523323L706.6094281865901,316.7160320034859L706.875170731978,319.45813957049575L708.0710121862238,316.7894328638467L708.6024972769998,319.56177029387453L709.3997249131636,321.00282171682875L710.0640812766335,318.9847667122931L713.518734366677,320.0196950464625L714.7145758209228,317.6626717715744L716.7076449113326,317.62236407464724L717.6377438201904,319.2881694864418L718.4349714563543,321.4295222444972L718.9664565471302,319.0674103014854L719.0993278198242,319.73869682357815L721.6238820010099,316.8861240461218L722.0224958190918,317.2344537393011L722.8197234552557,315.5417246442592L726.8058616360751,317.0050832977743L727.603089272239,318.2670316331475L728.1345743630148,317.79782204558234L729.5961583626487,317.9852853351839L729.8619009080367,317.94178406177105L732.1207125438343,316.6087432491642L732.2535838165284,313.14614242027756L734.7781379977139,311.2971922434527L734.9110092704079,314.1304205120454L735.30962308849,315.5772802685938L736.5054645427357,315.7135434225131L737.9670485423694,314.42799869696717L741.288830359719,315.4542582072579L741.687444177801,316.9250656172754L743.1490281774348,315.22218458508536L743.5476419955166,316.19609041948115L743.8133845409046,314.43233790408794L744.0791270862925,314.8942039538224L745.6735823586204,315.22432839784966L747.932393994418,314.0487402777342L750.7226907209917,314.5164687939667L751.6527896298496,316.57153284177747L752.7157598114014,315.13710917735284L753.2472449021773,318.4684844026749L754.1773438110351,317.16828277548956L754.3102150837291,317.2289112578076L754.4430863564231,318.55834929136927L755.7717990833629,315.9916190700437L759.2264521734065,316.41329435859626L759.8908085368763,316.76282634070026L762.01674889998,316.70792032872623L763.4783328996139,318.02716757014633L764.0098179903897,316.4928140525306L764.1426892630838,317.9201420458019L765.2056594446356,313.8019038087469L765.6042732627176,315.17352982274025L766.0028870807994,312.3158478903283L766.4015008988814,314.210321670074L767.5973423531273,316.1571552360479L768.1288274439031,317.3727403127301L769.058926352761,320.7911793253653L769.1917976254549,319.5630365660336L769.989025261619,320.81543575190454L770.7862528977828,316.18945954476044L771.0519954431708,317.43533607044077L771.4506092612527,317.3591597001331L776.101103805542,318.5057559228785L777.6955590778697,317.383665290287L780.2201132590554,316.7097465440414L780.4858558044434,316.3205418076658L783.0104099856289,314.0257492071836L783.2761525310169,315.3416074432479L785.9335779848966,316.92817815286753L789.1224885295521,318.3685133765343L789.521102347634,320.0551761126214L791.2484288926559,319.2940295953016L792.3113990742077,320.6045859582607L793.5072405284535,320.8629823410026L793.9058543465354,319.9279370588545L794.1715968919234,320.2346570140329L794.3044681646173,319.5086787104613L796.1646659823331,319.78471447134007L797.2276361638849,319.2882966697092L800.1508041631524,318.7968329380328L800.9480317993165,318.15827659816244L801.3466456173983,315.24895512679865L802.2767445262562,319.46550142256297L804.004071071278,322.6007572765237L804.2698136166659,319.3565883199541L804.40268488936,318.58542505520245L805.3327837982179,318.7754913761652L807.7244667067093,319.6200604458902L810.780505978671,317.54719940190444L811.4448623421409,315.5744082012166L814.1022877960206,315.79021763448964L814.3680303414085,315.6424810590104L815.1652579775724,315.1229179364388L818.6199110676158,313.2859686490312L819.2842674310858,315.43332038676436L821.0115939761075,316.8803485242743L821.5430790668835,315.4119758322197L823.9347619753751,314.2973082788833L824.9977321569269,314.6350426726786L828.0537714288886,319.2921349832251L828.4523852469704,316.5899400328688L828.5852565196644,317.8902327053276L829.1167416104403,317.12959387606725L829.2496128831344,318.6071874227535L832.7042659731778,317.21521837553587L835.7603052451393,317.0450191537973L837.4876317901611,319.2455666876805L839.6135721532648,318.5048016699981L841.0751561528986,318.15459716627L843.2010965160023,319.852111469049L845.0612943337179,320.0256971270564L845.1941656064121,319.15585346203346L845.592779424494,322.89043176988554L847.8515910602916,321.8454088981763L851.0405016049472,320.6830381581665L851.3062441503351,322.69418775218594L853.1664419680509,325.05192121664044L855.6909961492365,321.63496279599116L855.8238674219306,319.5246985705865L856.0896099673186,320.27168273975053L856.7539663307883,319.8621031767691L860.4743619662198,320.75255908765524L861.6702034204657,321.3250813065546L862.6003023293234,318.2430587211846L863.1317874200995,320.2171570584451L863.9290150562633,317.3353698467654L864.7262426924271,316.4613710516111L865.3905990558972,317.43736423740245L865.789212873979,315.12258323831503L866.054955419367,315.93466795335644L868.0480245097767,315.9029215950019L869.2438659640226,316.0005759361007L870.3068361455744,312.6054665492402L872.565647781372,314.51915475318157L873.2300041448419,316.6357974498138L873.4957466902299,315.69134745294326L875.0902019625578,316.83946570030514L875.3559445079458,315.9143893253407L876.1531721441096,315.4974850427258L877.7476274164372,317.88675631186516L878.4119837799072,318.38641508027894L879.7406965068471,316.7440937631683L881.0694092337868,317.8840516493363L884.7898048692183,317.82524480554054L885.0555474146062,315.76694046313537L885.5870325053822,318.99284126687724L887.5801015957919,317.0010111388945L893.0278237762451,317.4399564919582L893.4264375943271,316.86817642837786L895.8181205028188,316.3095833666145L897.2797045024525,316.62161348625676L898.2098034113103,316.51456808849065L900.4686150471081,315.5412673220117L900.86722886519,319.34488751918144L901.5315852286599,317.00191628810074L902.1959415921299,318.1622740491084L902.9931692282937,318.511093474706L904.5876245006215,318.9411081357737L904.7204957733154,320.32995240443825L906.9793074091131,319.0188056057318L907.3779212271951,318.2890203181388L908.308020136053,318.15122102555165L911.8955444987903,320.7079813899214L912.1612870441784,323.4711255665969L913.0913859530361,324.03840999561356L915.4830688615278,321.09337567915634L915.7488114069158,323.2103179544937L916.6789103157737,320.7621389739419L917.8747517700195,320.73026957467954L919.2034644969593,319.2893316405437L919.3363357696534,319.26037716952897L920.665048496593,321.00360281454596L921.1965335873691,320.86591034637337L921.329404860063,321.76725247534205L923.8539590412486,324.26161566729417L924.5183154047186,321.10999047311645L924.7840579501064,320.79015882965484L925.3155430408824,320.83040641395377L926.5113844951283,321.29802795947006L928.90306740362,323.3628300311411L931.5604928574995,319.537080462653L932.2248492209695,316.90591173433864L933.4206906752154,315.87906896851774L934.2179183113792,316.391471850192L934.3507895840733,314.42699933948035L934.4836608567671,314.49720163713505L934.8822746748491,314.9914736368491L935.280888492931,315.19537106879716L938.2040564921986,314.7468618113939L940.5957394006903,318.3864245756751L941.1272244914661,316.0090661016733L941.7915808549361,318.8506456740599L942.721679763794,315.92042793146373L943.9175212180398,315.01597317027966L944.1832637634278,316.34496763710274L945.5119764903675,317.95155945024214L946.3092041265315,316.021242040105L946.5749466719194,314.13069967038695L947.3721743080833,315.64914765013856L947.6379168534712,315.8923304087629L947.9036593988592,314.9792444238081L949.4981146711871,314.4436656369202L949.7638572165749,313.95067502481925L950.0295997619629,312.23278448051684L953.0856390339244,312.86003412114854L954.2814804881702,315.26452119990006L954.6800943062523,315.47615470817493L956.806034669356,315.10351736343966L958.1347473962957,315.9606788121848L958.2676186689898,316.2045455293082L958.5333612143777,316.25549963070307L959.3305888505415,316.84813784451785L960.1278164867055,317.7082882059193L961.0579153955633,320.607330857899L961.7222717590332,322.739722790575L962.6523706678911,320.0573607565779L963.449598304055,322.1278339220493L965.1769248490767,320.8856631313263L968.6315779391202,324.5142125702315L971.2890033929998,322.901406897644L971.6876172110818,321.08329032719917L972.2191023018577,319.62245289296516L972.3519735745516,320.8561796104648L973.2820724834095,320.46424655509924L975.5408841192071,322.41699419611643L977.002468118841,319.6530521254275L978.4640521184747,320.06684358715177L979.3941510273327,319.49707835784625L980.1913786634965,324.6333047263033L983.3802892081521,322.8783977652443L990.688209206321,323.96571350097656L991.219694297097,322.0223577937979L992.9470208421187,321.0753220321872L994.4086048417525,321.0978040133218L994.9400899325284,323.3683348796995L996.0030601140802,320.22646080251525L996.1359313867742,319.6925628235964L996.6674164775502,316.4049447006636L997.863257931796,316.59032319496504L997.9961292044899,313.68496321223245L999.3248419314298,313.58668094674596L999.4577132041237,314.5119030840874L999.5905844768178,313.38930414462277L1000.6535546583696,312.46011788430894L1003.3109801122491,313.208118586123L1006.4998906569047,315.3042858820959L1007.2971182930687,315.7980692178455L1007.4299895657626,313.72594305210646L1007.8286033838446,312.5909236762875L1009.1573161107843,315.58736047383735L1010.3531575650302,314.94688579267233L1010.7517713831122,316.1497895858346L1012.0804841100519,318.20597670055497L1012.7448404735219,317.5038294994971L1017.5282062905052,315.3173475072737L1018.7240477447509,315.5888737962543L1018.989790290139,319.1130671850881L1019.5212753809149,316.0032504332821L1020.3185030170788,315.2594882418173L1020.7171168351607,315.61727650669354L1021.6472157440185,316.3692474957235L1022.7101859255704,317.7348371295471L1023.1087997436523,320.0481675833216L1024.1717699252042,318.55954250511553L1024.7032550159802,319.6254298290946L1025.234740106756,318.13510502103105L1028.2907793787176,318.54358701946916L1028.8222644694936,319.82350186019215L1029.7523633783514,318.5724291275523L1030.2838484691274,316.88069920898744L1031.7454324687612,317.01457015601204L1033.339887741089,318.04584844751287L1035.4658281041925,320.0091085886202L1038.787609921542,319.20484680807635L1040.7806790119519,321.46538625820483L1042.6408768296674,321.4326522646427L1043.1723619204436,321.9713285774733L1043.7038470112193,318.3917789196642L1044.7668171927712,319.3870144942965L1045.564044828935,318.76963639679246L1045.696916101629,315.5257602700372L1047.9557277374267,316.02534796012645L1049.1515691916725,316.0741585568544L1049.9487968278363,318.96789748869907L1051.0117670093884,317.9294631965223L1051.4103808274701,319.6849414341616L1054.3335488267378,323.6906152276978L1056.5923604625355,323.9841725573059L1057.1238455533114,323.98758223371397L1058.1868157348633,321.99713404277566L1058.5854295529452,322.9653783040007L1059.382657189109,325.10041772700055L1061.7743400976008,325.14766950889674L1062.0400826429886,321.5377341048582L1064.4317655514803,319.6506434886248L1064.9632506422563,316.8375109292737L1065.3618644603382,316.0729048363248L1067.75354736883,314.20228910094045L1068.2850324596059,316.02582283465205L1069.2151313684635,315.7378197221674L1070.9424579134854,317.9707102749423L1071.7396855496493,316.44650417181134L1073.599883367365,314.25024435256825L1075.194338639693,316.3308679709321L1076.1244375485508,317.39600020987325L1077.1874077301024,316.8216028080175L1078.2503779116544,317.45808148192384L1078.3832491843484,314.97572592882204L1079.5790906385942,315.83471067022657L1081.3064171836158,314.08622756193085L1081.8379022743918,314.5976940000472L1083.6981000921076,315.2508533521963L1085.2925553644352,318.2528011389623L1085.4254266371295,317.56691387015996L1086.3555255459873,319.36294633420766L1088.2157233637029,314.2586324023434L1089.012950999867,315.1499831220685L1089.9430499087246,314.9576814648825L1090.2087924541127,313.11079949625884L1091.4046339083584,313.3322175871491L1091.6703764537463,315.44446988658365L1091.8032477264405,311.7074567419127L1094.327801907626,313.947724332024L1094.726415725708,314.72597293300316L1095.922257179954,315.0428356447201L1097.6495837249756,317.3430433708172L1099.5097815426914,317.0854131136259L1100.8384942696312,316.98886780836403L1102.9644346327348,319.97875649657783L1104.4260186323686,321.31712566580654L1106.8177015408603,319.27720954106366L1108.1464142678,319.2466225028194L1108.2792855404941,317.19926462548733L1109.076513176658,317.17927194733153L1110.0066120855158,317.5039885739588L1110.5380971762918,316.8837436669489L1110.6709684489856,320.0105701349779L1110.8038397216797,318.2350274239811L1113.7270077209473,316.95997016548534L1113.8598789936411,318.7678829422935L1114.3913640844173,319.94820920734037L1114.6571066298052,319.4254094150248L1115.852948084051,322.5847197740403L1116.3844331748269,317.05852035858396L1120.2377000829524,319.2450580241959L1120.3705713556462,323.8132882606606L1121.5664128098922,324.17066473863315L1121.965026627974,321.78143248714963L1122.8951255368318,323.0978619570032L1124.2238382637718,323.5106790833894L1124.3567095364656,322.3345677693146L1124.4895808091596,319.1926693587408L1124.6224520818537,320.6666939883664L1125.2868084453235,323.68954630063297L1126.0840360814875,323.4421929241651L1126.6155211722635,320.4315098691734L1126.8812637176513,319.0813506628374L1129.0072040807552,321.84728382895645L1129.804431716919,315.8702063986634L1129.9373029896128,316.7170156729326L1131.0002731711647,318.12267677519543L1133.5248273523505,316.3962574986599L1135.7836389881481,315.02872875554726L1139.2382920781915,312.16838268537094L1142.2943313501532,311.42942524184207L1143.2244302590111,312.0970497314029L1144.021657895175,314.63674370277295L1144.4202717132569,317.83814420305333L1148.5392811667703,315.40232986133526L1148.6721524394643,312.97026819712784L1150.798092802568,315.11615313776684L1150.9309640752617,317.21557958997204L1152.2596768022017,317.79882789312467L1152.6582906202837,318.48040883217203L1152.9240331656717,316.22103409289736L1154.3856171653056,316.60037304164456L1155.1828448014694,315.6662578692929L1155.581458619551,316.3675805200976L1156.1129437103273,315.8864848801618L1158.5046266188187,314.62075021874995L1158.6374978915128,316.1951707821315L1159.1689829822888,317.7832478093505L1159.5675968003707,315.7728445379092L1159.8333393457585,316.8720107529974L1161.6935371634745,316.72523478557844L1162.2250222542502,315.99494657804394L1163.686606253884,317.7266291586835L1164.085220071966,319.0128035799326L1166.7426455258455,320.18189360040685L1167.8056157073975,319.3343506641022L1169.1343284343372,319.98080635526327L1169.2671997070313,320.5427174764235L1170.7287837066651,323.33029002069895L1173.7848229786266,318.90687355596026L1174.4491793420966,319.8345138534036L1176.7079909778943,321.0009926893388L1179.7640302498558,319.47903730021926L1182.5543269764294,318.70132063244233L1182.6871982491234,318.84213884418733L1183.2186833398994,322.05791157680363L1183.750168430675,320.0498248840124L1186.1418513391668,320.3509151694157L1186.9390789753306,319.7408053646448L1187.0719502480247,322.06465893918147L1192.652543701172,324.5198999857934L1193.7155138827238,324.48918065794174L1194.7784840642755,321.52595947907184L1194.9113553369696,322.2511909493958L1197.1701669727672,318.24736956551874L1198.233137154319,317.37293568910536L1198.897493517789,312.73583194642333L1199.4289786085649,312.20246054295416L1200.8905626081987,312.4729139226658L1202.4850178805266,314.3569149765331L1202.8836316986083,312.67561536519116L1203.1493742439964,313.1327201681049L1203.6808593347723,310.35523551220194L1204.743829516324,309.67054731800323L1212.716105877963,313.6389041320384L1213.5133335141268,314.11632269217523L1213.6462047868208,316.19450732920376L1213.911947332209,318.9288403319432L1215.9050164226185,316.96021818078856L1216.8351153314763,316.03176551172817L1219.8911546034378,317.8594882884914L1220.4226396942138,314.8369384718813L1221.8842236938476,315.5079834392309L1222.2828375119295,311.4974968661513L1224.5416491477272,311.70850440768464L1225.338876783891,314.3598670587475L1227.066203328913,315.1911941276631L1229.7236287827925,316.01130705762114L1230.9194702370382,317.3760495201535L1232.779668054754,315.6854161096441L1233.045410600142,317.61624500704255L1233.31115314553,317.64877808372825L1234.506994599776,318.64490130451713L1235.7028360540216,318.3484139697305L1236.7658062355736,314.88193633775285L1239.4232316894531,315.7945296762066L1239.688974234841,317.1228128601013L1240.0875880529231,318.37338655711267L1240.353330598311,317.58777208643875L1241.1505582344748,316.33383408003215L1242.7450135068027,317.1971494215709L1242.8778847794965,320.1455647329983L1243.8079836883544,316.77086702219196L1244.2065975064365,317.52407968323325L1244.8709538699063,316.64703249761385L1245.8010527787642,317.08003706042086L1246.066795324152,317.1674269390117L1252.8432302315452,317.94196824339156L1254.3048142311789,323.3384204310638L1254.703428049261,322.8122607721341L1255.367784412731,322.9063895357837L1257.4937247758344,325.9740448847968L1258.0252098666103,324.68763514757563L1258.1580811393044,322.7409357896069L1258.4238236846923,324.35957031368486L1258.8224375027744,322.46738121860454L1259.7525364116323,324.23200961618136L1260.2840215024082,323.83285057865527L1260.815506593184,324.4827365550485L1262.01134804743,322.09313936005594L1262.1442193201237,321.57322280493236L1262.8085756835937,316.2208225023549L1263.3400607743697,312.0410901920919L1263.4729320470638,314.06019608624604L1265.4660011374733,310.86564010379675L1269.5850105909867,312.4673719377489L1271.1794658633144,316.45252342828474L1272.1095647721725,314.3248739282153L1272.7739211356422,312.728157036536L1274.6341189533582,313.63421187465644L1275.8299604076037,316.28714933175166L1277.8230294980137,315.9360354131327L1279.2846134976473,314.74258559593443L1280.2147124065052,316.367870798442L1280.3475836791993,318.7702759083954L1280.7461974972812,315.3761260217533L1281.543425133445,315.2096115393114L1286.5925334958165,315.86320809488683L1286.9911473138982,316.44429323401124L1287.2568898592863,317.8343393246562L1287.6555036773682,316.4431240713386L1287.788374950062,315.0390772866197L1288.3198600408382,315.77176481929047L1292.5717407670454,317.1434205809673L1294.4319385847612,316.2376086850145L1298.0194629474986,315.2922949907256L1298.8166905836626,315.8023774499025L1299.3481756744386,316.14079207817224L1301.73985858293,316.22026936373777L1302.4042149463999,316.9787690700611L1303.6000564006458,319.02730747137275L1304.3972840368099,319.58431934585633L1304.7958978548916,317.7448860585088L1305.1945116729737,319.6538098059405L1307.984808399547,316.8030996974603L1309.446392399181,315.8844819079377L1311.1737189442026,316.04592131224206L1311.3065902168967,316.04127439456516L1312.6353029438365,317.274516170731L1313.0339167619186,317.91423136624576L1313.5654018526943,320.92929894036325L1315.824213488492,321.5290597499245L1316.08995603388,321.2799270272202L1316.488569851962,321.1424691685142L1319.2788665785356,319.42485497598L1319.5446091239237,319.46212032865265L1320.2089654873935,319.53313731614963L1321.6705494870273,322.2999882504162L1322.6006483958852,320.69114504468865L1322.7335196685792,319.76300920639534L1323.265004759355,321.63171703766926L1325.5238163951526,323.3697965000125L1326.3210440313164,322.577502742999L1327.6497567582564,320.9851323516977L1327.9154993036443,322.4488573600651L1328.7127269398081,323.2575572279629" fill="none"></path></g></g></g></g><g opacity="0.2"><g><g><g><path style="fill: none;" stroke="rgb(255, 112, 67)" stroke-width="2px" d="M135.39582687516648,64.28263074120485L136.19305451133036,101.9380443055797L138.31899487443403,78.66992012709358L138.584737419822,85.350473227446L138.98335123790395,123.20186874361153L140.44493523753772,108.37838474676977L142.43800432794745,119.6780840217811L142.8366181460294,118.50915884814623L145.49404359990902,144.7473320202435L146.55701378146085,127.11761154652572L147.08849887223678,66.73139580427562L149.74592432611638,103.08293372414533L153.59919123424183,108.88517988673146L153.99780505232377,109.69381953277588L155.1936465065696,115.10915584393501L156.6552305062034,249.27321636814756L157.31958686967332,189.22599274251505L157.58532941506124,87.13409699046906L158.24968577853116,112.33312850057519L163.43166541359642,150.68533300743215L164.0960217770663,201.69512639847568L166.08909086747602,88.17604917114443L166.8863185036399,90.28345237797072L167.55067486710982,51.030196797057386L168.4807737759677,98.19561165360335L169.27800141213157,112.61930028547249L171.8025555933172,180.2503865616502L173.9284959564209,121.25792790894604L174.19423850180885,156.49343035940643L175.25720868336072,235.10950942246438L176.85166395568848,126.45128536389612L178.0475054099343,153.3300736949164L179.11047559148614,146.48315800495277L181.23641595458983,263.0442196943504L181.76790104536576,174.91592616852031L188.94294977084073,220.7788613544982L189.07582104353472,163.18120837884325L191.3346326793324,192.74535681475942L191.7332464974143,297.11875859981626L192.13186031549628,182.37646476655317L194.12492940590596,122.42595271968901L194.52354322398793,140.7433863169386L194.6564144966819,114.39748123156329L195.98512722362173,138.4022231898709L198.2439388594194,161.5967591987274L198.50968140480734,158.75863318185202L201.29997813138095,140.57434660916095L203.5587897671786,331.3526824046951L204.22314613064853,196.7562938081707L207.81067049338603,125.61388511356384L209.13938322032584,132.88018194888355L209.93661085648972,125.00023924344114L210.86670976534757,152.7752327866255L210.99958103804155,184.52743734289538L212.99265012845126,146.8360682064367L215.3843330369429,274.1142391851914L215.65007558233086,105.33653590226282L217.24453085465868,121.38830646176291L218.17462976351652,136.01529709327244L218.30750103621048,204.2940687371287L218.57324358159843,123.07412076479983L218.9718573996804,194.87304854084545L219.23759994506835,127.31395215116856L220.83205521739612,141.67569257099902L222.16076794433593,146.53642181019433L224.41957958013361,167.2405108837997L227.87423267017712,180.3109315532834L228.40571776095305,188.75159954051065L228.93720285172896,220.84269402352584L230.00017303328082,117.16296859971561L231.1960144875266,178.1183308174186L231.72749957830257,171.19887235417292L232.9233410325484,195.9226908619624L233.4548261233243,230.965841755814L234.65066757757015,199.95827672246557L235.18215266834608,203.71907707993512L235.44789521373403,257.7857202352458L235.71363775912198,217.71653699959356L236.64373666797985,233.95342602205574L237.30809303144977,269.49910155359146L237.57383557683772,224.38844805758887L238.23819194030762,206.82845218370954L238.50393448569557,259.5994864316121L239.0354195764715,216.73127156430846L239.56690466724746,152.26527593719584L240.36413230341134,181.15277998095914L240.4970035761053,208.69974831062197L243.55304284806687,284.22045645231344L244.0845279388428,280.7730627790949L248.46927993774415,277.80507539295377L249.39937884660202,291.4106607110118L250.1966064827659,328.5759171591708L252.05680430048162,299.4485220625561L252.58828939125755,307.3908261375127L253.5183883001154,309.73995960482875L253.7841308455034,338.9269767379207L254.58135848166728,69.99955585167515L254.8471010270552,304.5097476838064L256.70729884477095,269.90829930539076L256.84017011746494,345.8959288947856L258.1688828444048,319.18229639989767L258.5674966624867,295.318879278707L259.76333811673254,333.3459695721507L260.2948232075084,285.58421633462183L260.82630829828435,276.44605028439594L262.0221497525302,320.73521518523967L262.1550210252242,339.5689157752277L262.95224866138807,324.5974001093377L263.085119934082,286.6375499628642L263.74947629755195,339.8640765506274L266.1411592060436,360.1350997349433L266.5397730241255,277.49361242336386L267.73561447837136,265.7618543794198L271.72175265919077,306.15869169330324L273.4490792042125,275.6509973053223L274.2463068403764,218.9017006447326L274.6449206584584,250.14109922648555L274.9106632038463,284.7437263891568L275.44214829462226,254.84630947250224L276.23937593078614,271.14564642563505L276.90373229425603,263.6830780816016L278.2324450211959,327.62018740292757L279.02967265735975,272.6754896957516L279.69402902082965,271.64803496377897L281.02274174776943,272.84132324230706L281.6870981112393,245.55625566028084L286.60333520091666,287.8407653234829L287.13482029169256,246.29695139529673L287.26769156438655,258.7201897569633L287.40056283708054,316.799319421893L289.7922457455722,246.63005204130184L291.38670101789995,313.1048579939102L291.51957229059394,304.4552454476275L292.3167999267578,253.5751623100437L293.2468988356157,286.04578764774953L296.7015519256592,302.0857789072717L298.29600719798697,278.8565285543675L299.75759119762074,278.0698078659514L300.15620501570265,276.4410475414627L300.5548188337846,260.9211753330707L303.21224428766425,261.245528117027L304.00947192382813,376.48946062358795L304.939570832686,279.0601038711122L305.7367984688499,247.19860039485275L307.8627388319536,289.2594733515441L308.2613526500355,253.2960752104722L309.7229366496693,246.04106301223547L310.12155046775126,310.76040748780053L310.5201642858332,290.92958418694207L310.65303555852716,377.2281108900832L317.0308566478383,267.6757505157243L317.4294704659202,327.82788647079974L317.82808428400216,296.2650010931626L317.9609555566961,395.7276477812207L320.8841235559637,415.44686144476964L322.47857882829146,325.6891402318178L322.74432137367944,333.93111947060436L323.27580646445534,369.36644008030146L323.80729155523125,305.5413525585717L324.3387766460072,308.64462782053977L327.6605584633567,363.30570688922745L327.79342973605065,351.41404853728034L329.2550137356845,330.5993365605139L330.31798391723635,323.26396754803073L330.84946900801225,313.7030934298177L331.11521155340023,326.4889011718144L333.3740231891979,336.5644642593726L335.3670922796076,290.6069620202053L335.8985773703835,379.3901265688517L339.22035918773304,300.48219284315877L341.34629955083676,322.5521533839735L341.47917082353075,402.0107487961062L343.4722399139404,309.34573092730705L344.00372500471633,308.5206201316711L346.12966536782005,326.7065505581934L346.26253664051404,407.92835925482615L347.9898631855358,309.1847949691L349.1857046397816,353.3889854440872L349.8500610032515,310.18058774535046L350.51441736672143,294.2870142704406L350.91303118480334,324.3276326321438L351.57738754827324,359.0943948616198L351.9760013663552,304.3418899464208L353.57045663868297,310.5811628049119L354.63342682023483,317.5246488790604L355.5635257290927,359.5022896046499L356.4936246379506,328.0207275880743L357.68946609219637,300.35342133944255L358.22095118297227,422.4936086184673L358.48669372836025,296.2043752919632L358.75243627374823,370.9737166316617L359.1510500918302,313.9458064600023L360.081149000688,293.85041360686085L361.27699045493387,331.8413405981854L362.60570318187365,325.3718880485926L363.1371882726496,307.47067086456246L363.40293081803753,318.374265086252L363.8015446361195,416.5447688408718L364.4659009995894,328.1974010618006L364.8645148176713,293.23593553368335L364.9973860903653,315.4367010230549L365.13025736305934,362.3532407262369L367.654811544245,335.3458866936144L368.8506529984907,297.3856441898902L369.64788063465465,297.51914031426804L370.57797954351247,315.53734486407916L370.7108508162065,361.9461124868076L371.9066922704523,309.82690880550354L372.8367911793102,296.0791263871631L375.6270879058838,335.40471744023387L376.1585729966597,310.0630952865971L377.4872857235995,308.09783735375373L378.0187708143754,323.3254995073033L379.21461226862124,292.3397311506493L380.941938813643,315.30057944585064L381.34055263172496,427.216784485338L382.13778026788884,387.76572118752256L382.40352281327677,298.78760145427214L386.92114608487213,400.1982707864602L387.718373721036,375.70861363542L389.97718535683373,203.17531900397336L390.2429279022217,219.4559025730358L391.3058980837735,302.9067731834888L391.7045119018555,288.34083140900583L391.97025444724346,390.5357071836917L394.3619373557351,282.1047848797442L396.22213517345085,287.7527111268781L396.4878777188388,393.8438869286162L398.8795606273305,20.946514459126888L399.4110457181064,49.77054610347949L400.47401589965824,52.492428770969184L402.73282753545584,50.16670857376528L403.5300551716198,51.29939628362331L406.7189657162753,51.740796808455855L408.44629226129706,55.50682643549476L408.844906079379,50.896104183703414L408.97777735207296,50.3156292142632L409.243519897461,51.89887564501976L409.5092624428489,52.75815074309446L410.0407475336248,51.338374257484475L410.5722326244007,145.41943233413213L411.5023315332586,144.9545047262854L413.4954006236683,52.58994622203738L418.01302389526364,20.964297679330343L418.5445089860396,50.49288159838068L419.4746078948974,20.059062080220997L420.67044934914327,21.078599729621146L422.26490462147103,53.90633739886118L423.5936173484109,51.367518923441935L423.8593598937988,53.50739822786568L424.12510243918683,21.015569507144903L424.2579737118808,22.283861202379L424.78945880265667,50.67626603269349L425.18807262073864,20.936475750697582L426.2510428022905,50.736748177709615L426.7825278930664,21.553767512658396L429.439953346946,21.019106487534884L430.104309710416,50.24833617700733L430.2371809831099,22.26038405091583L430.5029235284979,20.88071089066682L430.9015373465798,53.9540175223666L431.4330224373557,14.904187219030405L431.56589371004975,30.28552404540062L432.49599261890756,111.51833673097633L432.8946064369895,78.91221107049034L433.5589628004594,152.21271278075147L436.0835169816451,133.32580386681852L437.41222970858485,23.13468749596501L438.2094573447487,20.92779619285244L439.00668498091267,51.882297387209576L439.53817007168857,20.454657656398524L441.13262534401633,49.831485434581566L441.2654966167103,22.3263000130853L444.5872784340598,24.629868358396152L445.78311988830563,21.304985065378958L448.04193152410335,51.82819616605963L450.433614432595,22.342392676701934L450.5664857052889,20.99857040194871L450.83222825067696,51.211132907271065L452.6924260683927,50.24416812122456L456.67856424921206,143.92423157668992L457.7415344307639,53.5880854699501L458.67163333962185,20.40703173148904L458.93737588500977,22.22563646115708L459.2031184303977,52.5339330171621L459.86747479386764,22.139762187674705L463.18925661121716,21.086553723555653L463.32212788391115,22.325909918214506L464.65084061085093,51.15832553846042L464.9165831562389,21.489735539457172L465.58093951970875,312.44369368730173L467.44113733742455,310.9623316480311L468.23836497358843,314.1337094642544L469.4342064278342,318.07622696155175L471.42727551824396,307.91625235347925L471.9587606090199,313.4522093901394L472.22450315440784,312.9558457210111L473.9518296994296,319.37415397664194L475.54628497175736,316.42426032962254L477.1407402440851,318.3297890443648L478.46945297102496,309.9634185531631L479.26668060718885,308.701726517733L481.5254922429865,316.5734577586926L482.32271987915044,311.95742513167727L482.4555911518444,311.05170040004066L483.51856133339624,314.09532208421984L484.3157889695601,316.1402430586305L485.113016605724,314.27941708106323L485.7773729691939,314.8179274111901L488.83341224115543,312.6818865055254L489.76351115001336,319.8966708972814L490.4278675134832,316.71156882694004L492.15519405850495,314.7458149137003L493.0852929673628,311.3782920017477L495.07836205777255,314.524546771295L496.6728173301003,314.29675710298187L497.0714311481823,314.8790775710176L498.931628965898,316.18366652552953L499.06450023859196,315.3691870673747L499.33024278397994,314.5725104681259L503.58212351018733,313.7439668522285L503.7149947828813,309.1645107807251L503.84786605557525,312.226935358927L504.7779649644332,310.53056368638465L506.23954896406696,318.2783349139011L508.23261805447663,310.1188014825563L508.8969744179466,312.4392204814601L512.8831125987659,315.4364632757859L514.6104391437877,317.10995812320067L515.8062805980335,314.7965782306195L517.0021220522793,314.16896490832374L517.7993496884433,313.4544722688028L518.3308347792192,325.13016933629694L520.5896464150168,320.019969809696L520.8553889604049,320.6681919854556L520.9882602330988,315.358152275948L522.5827155054266,311.7699820711922L527.2332100497159,320.98744127283385L528.2961802312677,316.18479552449816L531.3522195032293,316.3896065298193L532.5480609574752,310.5316122841989L532.8138035028632,315.9439882103148L533.079546048251,317.83941748040667L533.611031139027,321.7060279726045L533.7439024117209,312.24710977795223L535.2054864113547,307.2419040941203L535.6041002294368,315.2216705673377L536.6670704109886,314.7014354636669L537.0656842290705,316.09839765757795L540.254594773726,313.0580805708365L540.786079864502,309.40194782178344L541.0518224098898,314.5109089116613L543.0448915002996,309.3857636569869L544.7722180453214,316.3349388293872L547.8282573172829,314.4776701494124L549.8213264076926,311.5158466115985L550.8842965892445,319.3915490431692L551.5486529527144,315.5423476212005L552.2130093161843,323.6738363983553L552.7444944069603,311.2528897810436L553.0102369523481,311.85274766848727L555.136177315452,309.6648091912906L557.5278602239435,312.48021155297613L557.6607314966375,314.51529878567976L558.5908304054954,307.41887314572205L558.9894442235773,317.55562497635367L562.1783547682328,317.44883494537953L562.5769685863148,315.92404042528625L563.5070674951727,309.60802625746504L563.9056813132546,314.9443225108313L564.0385525859487,311.94017723497086L564.3042951313365,318.2878682504105L564.4371664040306,318.558764663551L567.75894822138,312.1936562811121L568.9547896756259,312.95800827045286L572.1437002202814,310.44373127112164L573.2066704018333,322.62236118184L575.066868219549,315.0778571964707L575.199739492243,320.801330052614L575.8640958557129,314.1796075153449L577.4585511280407,311.2440497803709L581.3118180361661,322.51998067224326L581.577560581554,315.5748504273364L581.843303126942,315.96441456221226L582.9062733084938,327.3186597979504L585.1650849442916,316.79216794655736L585.8294413077614,313.4872982878803L588.752609307029,314.9974451138085L589.151223125111,320.11155983980404L589.8155794885809,320.8193710632741L591.2771634882147,317.056568770341L591.5429060336027,313.1346239825405L592.4730049424605,314.66200262942783L593.2702325786244,311.5052876096366L594.2003314874822,313.94497202210573L594.9975591236462,309.02598501650886L595.3961729417281,314.5956656160545L597.6549845775257,320.9098195847154L599.2494398498535,321.6235670108014L599.6480536679355,321.18059458547225L600.5781525767933,314.25316093257317L602.704092939897,313.58111464535904L602.969835485285,314.0370946298297L603.7670631214488,318.52064207875094L604.2985482122248,316.12932385387217L606.4244885753285,316.7740414556882L608.6833002111262,311.01740690508586L611.3407256650058,320.59778207280084L613.7324085734974,314.25955486654067L613.9981511188854,316.44733600579553L614.2638936642734,316.9530125890794L614.6625074823553,313.9931360751147L615.0611213004372,316.4749247252737L617.319932936235,324.6109019262158L618.7815169358687,319.5669588564557L620.6417147535844,315.01772417991407L624.6278529344039,315.9330594991906L624.8935954797919,318.35854055311734L628.0825060244474,316.4074231591413L628.6139911152233,322.00003854198314L628.8797336606112,310.09594502464506L629.6769612967752,314.4799320672778L630.0755751148571,324.1696175921131L630.341317660245,314.2636134456265L631.5371591144908,317.1769911592958L632.4672580233488,318.4500957956004L634.1945845683705,317.07064886571726L635.2575547499223,313.9838139480375L636.9848812949441,323.96663827116424L637.2506238403321,309.06441380817694L637.649237658414,319.05721334043193L639.2436929307418,329.32308871637656L639.7751780215177,311.5386046006744L640.4395343849876,313.32384031182875L640.7052769303755,312.95376178619136L642.0339896573154,323.1091216332783L642.5654747480913,317.70536581263127L646.4187416562166,308.75846586651676L647.0830980196866,315.904887356583L648.0131969285444,315.96294131271077L651.467850018588,323.9165722573349L653.8595329270796,320.5573289863396L654.9225031086315,315.82949010444526L655.8526020174894,320.4834576482974L656.3840871082652,318.46586861106647L657.8456711078991,318.0339192904128L658.6428987440629,316.7122122855126L659.4401263802268,313.9361358193504L662.3632943794944,314.42482505813666L663.8248783791282,317.9194380744897L664.4892347425981,311.44208478330927L665.685076196844,309.0898174682934L665.8179474695379,322.7764040268472L667.4124027418657,311.9595341324694L668.8739867414995,308.65232543502003L669.2726005595814,318.335252938687L670.6013132865212,315.4887910742625L676.8462631031383,316.68212136525204L677.5106194666082,314.4855732957786L677.6434907393021,318.10823276986395L678.972203466242,316.8943069116938L688.6718063729027,318.2907101642753L690.1333903725364,314.8635206584753L690.2662616452304,318.5531017348615L690.5320041906183,321.08903405523625L690.7977467360063,313.1946933409233L691.1963605540882,318.07987155102296L691.3292318267822,313.41608395057534L694.6510136441318,323.26891235376786L695.3153700076016,329.9085474693841L695.7139838256836,314.308682157968L696.7769540072354,314.12556372314305L698.2385380068692,319.2907355992862L699.4343794611151,323.5545691516817L699.832993279197,316.559630151288L699.965864551891,316.22163189330814L701.9589336423007,313.28023036099927L704.0848740054043,312.58874593966755L704.8821016415683,314.48544571563315L705.4135867323442,317.9579485660561L706.6094281865901,318.0202689885805L706.875170731978,323.86752654713086L708.0710121862238,313.02999829027647L708.6024972769998,324.0233302232253L709.3997249131636,323.24329980338797L710.0640812766335,316.0992100828623L713.518734366677,321.61233812754676L714.7145758209228,314.31861251788973L716.7076449113326,317.56196187531833L717.6377438201904,321.89295922218366L718.4349714563543,324.8191666712263L718.9664565471302,315.7165220018592L719.0993278198242,320.76239718588545L721.6238820010099,312.8843939667531L722.0224958190918,317.7614254838594L722.8197234552557,313.1030042510749L726.8058616360751,319.2815333474049L727.603089272239,320.2201676885524L728.1345743630148,317.10196091141904L729.5961583626487,318.26777156755895L729.8619009080367,317.8766012684895L732.1207125438343,314.671989163317L732.2535838165284,308.35471639106134L734.7781379977139,308.64306178070063L734.9110092704079,318.69732547519146L735.30962308849,317.82712076152575L736.5054645427357,315.9186195025921L737.9670485423694,312.5581622033161L741.288830359719,317.03321735983957L741.687444177801,319.21353641534347L743.1490281774348,312.76941838441587L743.5476419955166,317.6925347470744L743.8133845409046,311.89549119051264L744.0791270862925,315.59489811031204L745.6735823586204,315.7235345778345L747.932393994418,312.3343973215361L750.7226907209917,315.226159599348L751.6527896298496,319.8173255923804L752.7157598114014,313.05801399262344L753.2472449021773,323.9102407801025L754.1773438110351,315.2777801313674L754.3102150837291,317.3199886012646L754.4430863564231,320.61945498052575L755.7717990833629,312.3674394558898L759.2264521734065,317.0523811542206L759.8908085368763,317.2916326213678L762.01674889998,316.62567138638235L763.4783328996139,320.07194639216874L764.0098179903897,314.27407738647855L764.1426892630838,320.1385104446135L765.2056594446356,308.18524712106625L765.6042732627176,317.3023156423622L766.0028870807994,308.307413744482L766.4015008988814,317.19010388124485L767.5973423531273,319.22342611631734L768.1288274439031,319.251918297079L769.058926352761,326.3882668475102L769.1917976254549,317.7742738014097L769.989025261619,322.7533249316317L770.7862528977828,309.94979621631103L771.0519954431708,319.36281492702915L771.4506092612527,317.2451069086918L776.101103805542,320.2752042107985L777.6955590778697,315.745266903473L780.2201132590554,315.7151897208335L780.4858558044434,315.7422182108674L783.0104099856289,310.7653327593653L783.2761525310169,317.3809585439623L785.9335779848966,319.40405550014316L789.1224885295521,320.60783721901146L789.521102347634,322.69398721250843L791.2484288926559,318.1730834620383L792.3113990742077,322.63544762225433L793.5072405284535,321.2530348677363L793.9058543465354,318.5565816163713L794.1715968919234,320.6982045969866L794.3044681646173,318.4386264814063L796.1646659823331,320.2015744005382L797.2276361638849,318.552566130315L800.1508041631524,318.06835793480593L800.9480317993165,317.21510868426697L801.3466456173983,311.17284784527936L802.2767445262562,326.52159402070845L804.004071071278,327.69528653222466L804.2698136166659,314.84545523106914L804.40268488936,317.44999874049205L805.3327837982179,319.06191835570877L807.7244667067093,320.91358306631975L810.780505978671,314.5870252502227L811.4448623421409,312.7506197481479L814.1022877960206,316.1156443885177L814.3680303414085,315.4216712237462L815.1652579775724,314.35331254464444L818.6199110676158,310.6483307000385L819.2842674310858,318.83298973233L821.0115939761075,319.1304604704452L821.5430790668835,313.28536724399754L823.9347619753751,312.66946278976167L824.9977321569269,315.1458520683006L828.0537714288886,327.1818078067031L828.4523852469704,312.78622504820567L828.5852565196644,319.90466648410626L829.1167416104403,316.0093818394273L829.2496128831344,320.90661361254763L832.7042659731778,315.19564697664214L835.7603052451393,316.7907748758062L837.4876317901611,322.7342690127609L839.6135721532648,317.4133403458566L841.0751561528986,317.6337344824641L843.2010965160023,322.50863747865884L845.0612943337179,320.2871824011384L845.1941656064121,317.8781438365768L845.592779424494,329.0577862118299L847.8515910602916,320.31675312393554L851.0405016049472,318.9874406549598L851.3062441503351,325.86701812411934L853.1664419680509,328.8051536637388L855.6909961492365,316.9018803771486L855.8238674219306,316.51370855605137L856.0896099673186,321.412966941619L856.7539663307883,319.2538033130429L860.4743619662198,322.11792502219345L861.6702034204657,322.19603152052105L862.6003023293234,313.9417667983606L863.1317874200995,323.32855715409454L863.9290150562633,313.29532635995815L864.7262426924271,315.1776849602634L865.3905990558972,318.9370942961191L865.789212873979,311.8352749012468L866.054955419367,317.1774306009232L868.0480245097767,315.8553388788732L869.2438659640226,316.14740703725744L870.3068361455744,307.900355151242L872.565647781372,317.5306484380674L873.2300041448419,319.98418179602027L873.4957466902299,314.3065084038227L875.0902019625578,318.61133071098345L875.3559445079458,314.55733294960646L876.1531721441096,314.8784159455949L877.7476274164372,321.6933269756363L878.4119837799072,319.1451524481802L879.7406965068471,314.37521381793715L881.0694092337868,319.6429615293388L884.7898048692183,317.737160799066L885.0555474146062,312.8265666593394L885.5870325053822,324.24739920171476L887.5801015957919,314.1512259540494L893.0278237762451,318.10550113057303L893.4264375943271,316.0222858908592L895.8181205028188,315.4829400406626L897.2797045024525,317.093247924759L898.2098034113103,316.3544178222359L900.4686150471081,314.115102237714L900.86722886519,325.6381034528553L901.5315852286599,313.676723270657L902.1959415921299,319.95358012925897L902.9931692282937,319.0388124739547L904.5876245006215,319.592968083433L904.7204957733154,322.4864023477794L906.9793074091131,317.1128796106829L907.3779212271951,317.2134546637185L908.308020136053,317.9452139368195L911.8955444987903,324.7993046911157L912.1612870441784,327.91681022043156L913.0913859530361,324.9012802662599L915.4830688615278,316.9705590166539L915.7488114069158,326.55920220999775L916.6789103157737,317.2959877381289L917.8747517700195,320.6825025830447L919.2034644969593,317.20111354781113L919.3363357696534,319.2169760950013L920.665048496593,323.73485993890995L921.1965335873691,320.6600624239209L921.329404860063,323.1496867850009L923.8539590412486,328.24656218689745L924.5183154047186,316.7184360515686L924.7840579501064,320.31412090314745L925.3155430408824,320.8908370836512L926.5113844951283,322.00755458227076L928.90306740362,326.6248247263616L931.5604928574995,314.2856283133589L932.2248492209695,313.1961923355076L933.4206906752154,314.37635958494707L934.2179183113792,317.169806494888L934.3507895840733,311.6145768246189L934.4836608567671,314.60268562098855L934.8822746748491,315.74193120939225L935.280888492931,315.5027455013335L938.2040564921986,314.0813687555137L940.5957394006903,324.3813474100306L941.1272244914661,312.6377262954111L941.7915808549361,323.4320255870485L942.721679763794,311.8169809822367L943.9175212180398,313.68851723893823L944.1832637634278,318.4053625035488L945.5119764903675,320.4599611287095L946.3092041265315,313.25553187590947L946.5749466719194,311.4194809635147L947.3721743080833,318.0146085468023L947.6379168534712,316.25928071785154L947.9036593988592,313.6393956306807L949.4981146711871,313.65064219616454L949.7638572165749,313.2199636283477L950.0295997619629,309.75926386727474L953.0856390339244,313.81553390385403L954.2814804881702,319.0968571561005L954.6800943062523,315.795251757943L956.806034669356,314.54959009430365L958.1347473962957,317.27390043323834L958.2676186689898,316.5725340736664L958.5333612143777,316.33202584436515L959.3305888505415,317.75013900401746L960.1278164867055,319.0261873813218L961.0579153955633,325.288484028194L961.7222717590332,326.1143985789038L962.6523706678911,316.27986208011936L963.449598304055,325.39926785614074L965.1769248490767,319.07706715066035L968.6315779391202,330.48920678400356L971.2890033929998,320.57349728118385L971.6876172110818,318.4715521829494L972.2191023018577,317.5063837680516L972.3519735745516,322.7642762415775L973.2820724834095,319.8819072381651L975.5408841192071,325.4930487661113L977.002468118841,315.7678666834043L978.4640521184747,320.6938598100445L979.3941510273327,318.65412780264415L980.1913786634965,333.4536090393154L983.3802892081521,320.353754479916L990.688209206321,325.64117838425284L991.219694297097,319.23880705991576L992.9470208421187,319.6867768083636L994.4086048417525,321.13154547745245L994.9400899325284,326.9745443981472L996.0030601140802,315.8475349462077L996.1359313867742,318.90199620875245L996.6674164775502,311.83783988053887L997.863257931796,316.8696536039736L997.9961292044899,309.6140418511912L999.3248419314298,313.4396098487954L999.4577132041237,315.9318112006251L999.5905844768178,311.7501832670812L1000.6535546583696,311.097165606731L1003.3109801122491,314.3509848231857L1006.4998906569047,318.618521229589L1007.2971182930687,316.54777579293295L1007.4299895657626,310.7667681801742L1007.8286033838446,310.9341541848362L1009.1573161107843,320.43832056555317L1010.3531575650302,314.00092789997717L1010.7517713831122,318.00876874586584L1012.0804841100519,321.4536375711145L1012.7448404735219,316.46831320505873L1017.5282062905052,312.2030782001705L1018.7240477447509,315.9988782553094L1018.989790290139,324.899823895306L1019.5212753809149,311.665880547406L1020.3185030170788,314.1636892705189L1020.7171168351607,316.15868373365646L1021.6472157440185,317.5182934801396L1022.7101859255704,319.853930183681L1023.1087997436523,323.72645297082425L1024.1717699252042,316.40462557741506L1024.7032550159802,321.26699109157425L1025.234740106756,315.97781346739293L1028.2907793787176,319.1624768081262L1028.8222644694936,321.80534455978125L1029.7523633783514,316.75125412674885L1030.2838484691274,314.4433615940869L1031.7454324687612,317.2160341714231L1033.339887741089,319.6327291291886L1035.4658281041925,323.10256144685553L1038.787609921542,318.02162252011294L1040.7806790119519,325.05479313946313L1042.6408768296674,321.38359042137733L1043.1723619204436,322.79010426677934L1043.7038470112193,313.4513981938021L1044.7668171927712,320.9170505108071L1045.564044828935,317.8572865265472L1045.696916101629,311.01500477633965L1047.9557277374267,316.78397606189606L1049.1515691916725,316.1474616788947L1049.9487968278363,323.63982897495373L1051.0117670093884,316.4102079705927L1051.4103808274701,322.4362595494364L1054.3335488267378,330.3549378056004L1056.5923604625355,324.4276838682356L1057.1238455533114,323.99269717346965L1058.1868157348633,319.1492350576043L1058.5854295529452,324.4529123974141L1059.382657189109,328.4795152967169L1061.7743400976008,325.2186289229763L1062.0400826429886,316.55877799749214L1064.4317655514803,316.94415838036224L1064.9632506422563,312.8875850482158L1065.3618644603382,314.94695676838535L1067.75354736883,311.5184074090666L1068.2850324596059,318.8887978091598L1069.2151313684635,315.3088254759392L1070.9424579134854,321.51366552749244L1071.7396855496493,314.2419177208222L1073.599883367365,311.1227516832081L1075.194338639693,319.6192037499082L1076.1244375485508,319.03636745840646L1077.1874077301024,315.9718935576077L1078.2503779116544,318.4278620470704L1078.3832491843484,311.46392994960433L1079.5790906385942,317.15078560379084L1081.3064171836158,311.5704498383413L1081.8379022743918,315.3745882066332L1083.6981000921076,316.2464618153919L1085.2925553644352,323.11339614569596L1085.4254266371295,316.5549839789053L1086.3555255459873,322.18075357598843L1088.2157233637029,307.4444019923852L1089.012950999867,316.51675166606964L1089.9430499087246,314.67057444224423L1090.2087924541127,310.4595106653337L1091.4046339083584,313.6661477665995L1091.6703764537463,318.78552883710233L1091.8032477264405,306.567732944298L1094.327801907626,317.50306683797714L1094.726415725708,315.91595085269626L1095.922257179954,315.5218314799109L1097.6495837249756,320.99921249865855L1099.5097815426914,316.7013785596304L1100.8384942696312,316.84438982356323L1102.9644346327348,324.81827216486676L1104.4260186323686,323.3925470467656L1106.8177015408603,316.3618667739846L1108.1464142678,319.2007761276865L1108.2792855404941,314.27378918894743L1109.076513176658,317.149297537974L1110.0066120855158,317.9949518654801L1110.5380971762918,315.9672202587573L1110.6709684489856,325.090257467247L1110.8038397216797,315.6819226065126L1113.7270077209473,315.1049296838417L1113.8598789936411,321.6051944046474L1114.3913640844173,321.7712587767397L1114.6571066298052,318.6510699237621L1115.852948084051,327.7216397299436L1116.3844331748269,309.74718224780463L1120.2377000829524,322.7102882868538L1120.3705713556462,331.5331460998953L1121.5664128098922,324.7114433646194L1121.965026627974,318.39417520084294L1122.8951255368318,325.1381278618769L1124.2238382637718,324.13620387134324L1124.3567095364656,320.6194830374672L1124.4895808091596,314.8137119816653L1124.6224520818537,322.9603581234022L1125.2868084453235,328.5867147781996L1126.0840360814875,323.07338578034336L1126.6155211722635,316.2230256821749L1126.8812637176513,317.12051491152516L1129.0072040807552,326.2977838006257L1129.804431716919,308.03730705978086L1129.9373029896128,318.01404187031477L1131.0002731711647,320.30616927928406L1133.5248273523505,313.9109502222997L1135.7836389881481,313.0434778019032L1139.2382920781915,308.15645335742244L1142.2943313501532,310.340580221755L1143.2244302590111,313.1150729554567L1144.021657895175,318.6989368482324L1144.4202717132569,323.0493710027433L1148.5392811667703,311.95270981447317L1148.6721524394643,309.52566722209735L1150.798092802568,318.51337102351107L1150.9309640752617,320.53524814433376L1152.2596768022017,318.686330979226L1152.6582906202837,319.5200738581795L1152.9240331656717,313.0083283891531L1154.3856171653056,317.1746956299236L1155.1828448014694,314.29623625895465L1155.581458619551,317.4378840369204L1156.1129437103273,315.17320016968586L1158.5046266188187,312.778868445135L1158.6374978915128,318.6513264275668L1159.1689829822888,320.26157101406574L1159.5675968003707,312.89772061255104L1159.8333393457585,318.5662409567055L1161.6935371634745,316.50585557671724L1162.2250222542502,314.9186526499358L1163.686606253884,320.43899855153904L1164.085220071966,321.00465389438045L1166.7426455258455,321.98707722183997L1167.8056157073975,318.08873712840926L1169.1343284343372,320.96603248290234L1169.2671997070313,321.39730093057267L1170.7287837066651,327.8181756490755L1173.7848229786266,312.91411068018937L1174.4491793420966,321.2582191792131L1176.7079909778943,322.8020259048391L1179.7640302498558,317.2775902999834L1182.5543269764294,317.55642447935224L1182.6871982491234,319.05409391176244L1183.2186833398994,327.2945500966927L1183.750168430675,317.17786020794557L1186.1418513391668,320.80589162861935L1186.9390789753306,318.83903933652834L1187.0719502480247,325.7606903503988L1192.652543701172,328.4383279875974L1193.7155138827238,324.4431361445965L1194.7784840642755,317.37938476674725L1194.9113553369696,323.3586405120104L1197.1701669727672,312.77301762895627L1198.233137154319,316.08862387378235L1198.897493517789,306.48266779482344L1199.4289786085649,311.41266366075183L1200.8905626081987,312.8812875281109L1202.4850178805266,317.3194262607551L1202.8836316986083,310.2527162759338L1203.1493742439964,313.82610954572556L1203.6808593347723,306.45221209034605L1204.743829516324,308.6603575114036L1212.716105877963,320.2343746645993L1213.5133335141268,314.84088973485274L1213.6462047868208,319.47878106815443L1213.911947332209,323.32482293053283L1215.9050164226185,314.14212541088096L1216.8351153314763,314.66986553488505L1219.8911546034378,320.7293489140385L1220.4226396942138,310.6129958480603L1221.8842236938476,316.5313092946739L1222.2828375119295,306.01483560620153L1224.5416491477272,312.0266527532336L1225.338876783891,318.61314173629177L1227.066203328913,316.46401488035593L1229.7236287827925,317.26660690970044L1230.9194702370382,319.4937824882051L1232.779668054754,313.24959604587383L1233.045410600142,320.65605428032484L1233.31115314553,317.69761643242873L1234.506994599776,320.17633603339L1235.7028360540216,317.90687267196495L1236.7658062355736,310.08556013104953L1239.4232316894531,317.1946144093271L1239.688974234841,319.1820679178143L1240.0875880529231,320.30836186611384L1240.353330598311,316.43146733292224L1241.1505582344748,314.50861138274L1242.7450135068027,318.52000245382976L1242.8778847794965,324.9126886655439L1243.8079836883544,312.0919111177837L1244.2065975064365,318.6750585797846L1244.8709538699063,315.3589625527666L1245.8010527787642,317.7364778266286L1246.066795324152,317.29879164298205L1252.8432302315452,319.12616815468635L1254.3048142311789,332.67506093238654L1254.703428049261,322.03300776642135L1255.367784412731,323.0479074543642L1257.4937247758344,330.9497367353178L1258.0252098666103,322.81657859687743L1258.1580811393044,319.95281160007545L1258.4238236846923,326.88755146767875L1258.8224375027744,319.75390452371306L1259.7525364116323,326.9983174037004L1260.2840215024082,323.2398781349942L1260.815506593184,325.4732749255238L1262.01134804743,318.7053929826627L1262.1442193201237,320.80310043092027L1262.8085756835937,309.11319367919265L1263.3400607743697,306.34824446351934L1263.4729320470638,317.24623325081427L1265.4660011374733,306.41855196311343L1269.5850105909867,314.96787550463046L1271.1794658633144,323.07896349664617L1272.1095647721725,311.29029406129825L1272.7739211356422,310.42260380668915L1274.6341189533582,315.0240380731445L1275.8299604076037,320.5431268144782L1277.8230294980137,315.4138316132995L1279.2846134976473,313.00292897111984L1280.2147124065052,318.9066700433992L1280.3475836791993,322.59908520110287L1280.7461974972812,310.672243594095L1281.543425133445,314.9608492994479L1286.5925334958165,316.8594937997161L1286.9911473138982,317.3284573400321L1287.2568898592863,319.99272110851723L1287.6555036773682,314.42461060447965L1287.788374950062,313.0025601626364L1288.3198600408382,316.8908075787484L1292.5717407670454,319.2722541745458L1294.4319385847612,314.9082038191973L1298.0194629474986,313.90621795414864L1298.8166905836626,316.57714294140493L1299.3481756744386,316.65263886807156L1301.73985858293,316.3397167411872L1302.4042149463999,318.1379796553852L1303.6000564006458,322.262247556584L1304.3972840368099,320.43134901319894L1304.7958978548916,315.10383366007716L1305.1945116729737,322.6574372979416L1307.984808399547,312.80381413577993L1309.446392399181,314.53669312438353L1311.1737189442026,316.28903743118605L1311.3065902168967,316.0343048075429L1312.6353029438365,319.181839436749L1313.0339167619186,318.88902159748926L1313.5654018526943,325.8128428537934L1315.824213488492,322.4420627422272L1316.08995603388,320.90848285688435L1316.488569851962,320.93697081245665L1319.2788665785356,316.9517163575434L1319.5446091239237,319.51806918558475L1320.2089654873935,319.6398475532348L1321.6705494870273,326.75207294693445L1322.6006483958852,318.3687399729457L1322.7335196685792,318.4015637191073L1323.265004759355,324.5690245268162L1325.5238163951526,326.0926316233391L1326.3210440313164,321.411552922349L1327.6497567582564,318.685621737848L1327.9154993036443,324.7258985237518L1328.7127269398081,324.4950354597412" fill="none"></path></g></g></g></g></g></g><g transform="translate(51, 377)" clip-path="url(#clip_1)"><clipPath id="clip_1"><rect width="1461" height="22"></rect></clipPath><g><g><line x1="0" y1="0" x2="0" y2="5" style="visibility: inherit;" fill="rgb(0, 0, 0)" stroke="rgb(204, 204, 204)" stroke-width="1px"></line><line x1="132.8712726939808" y1="0" x2="132.8712726939808" y2="5" style="visibility: inherit;" fill="rgb(0, 0, 0)" stroke="rgb(204, 204, 204)" stroke-width="1px"></line><line x1="265.7425453879616" y1="0" x2="265.7425453879616" y2="5" style="visibility: inherit;" fill="rgb(0, 0, 0)" stroke="rgb(204, 204, 204)" stroke-width="1px"></line><line x1="398.61381808194244" y1="0" x2="398.61381808194244" y2="5" style="visibility: inherit;" fill="rgb(0, 0, 0)" stroke="rgb(204, 204, 204)" stroke-width="1px"></line><line x1="531.4850907759233" y1="0" x2="531.4850907759233" y2="5" style="visibility: inherit;" fill="rgb(0, 0, 0)" stroke="rgb(204, 204, 204)" stroke-width="1px"></line><line x1="664.3563634699041" y1="0" x2="664.3563634699041" y2="5" style="visibility: inherit;" fill="rgb(0, 0, 0)" stroke="rgb(204, 204, 204)" stroke-width="1px"></line><line x1="797.2276361638849" y1="0" x2="797.2276361638849" y2="5" style="visibility: inherit;" fill="rgb(0, 0, 0)" stroke="rgb(204, 204, 204)" stroke-width="1px"></line><line x1="930.0989088578658" y1="0" x2="930.0989088578658" y2="5" style="visibility: inherit;" fill="rgb(0, 0, 0)" stroke="rgb(204, 204, 204)" stroke-width="1px"></line><line x1="1062.9701815518465" y1="0" x2="1062.9701815518465" y2="5" style="visibility: inherit;" fill="rgb(0, 0, 0)" stroke="rgb(204, 204, 204)" stroke-width="1px"></line><line x1="1195.8414542458274" y1="0" x2="1195.8414542458274" y2="5" style="visibility: inherit;" fill="rgb(0, 0, 0)" stroke="rgb(204, 204, 204)" stroke-width="1px"></line><line x1="1328.7127269398081" y1="0" x2="1328.7127269398081" y2="5" style="visibility: inherit;" fill="rgb(0, 0, 0)" stroke="rgb(204, 204, 204)" stroke-width="1px"></line><line x1="1461.583999633789" y1="0" x2="1461.583999633789" y2="5" style="visibility: inherit;" fill="rgb(0, 0, 0)" stroke="rgb(204, 204, 204)" stroke-width="1px"></line></g><g transform="translate(0, 8)"><text style="text-anchor: middle; visibility: hidden; font-family: &quot;Helvetica Neue&quot;, sans-serif; font-size: 12px; font-weight: 200;" x="0" y="0" dx="0em" dy="0.95em" fill="rgb(50, 49, 63)" stroke="none" stroke-width="1px">0</text><text style="text-anchor: middle; visibility: inherit; font-family: &quot;Helvetica Neue&quot;, sans-serif; font-size: 12px; font-weight: 200;" x="132.8712726939808" y="0" dx="0em" dy="0.95em" fill="rgb(50, 49, 63)" stroke="none" stroke-width="1px">1k</text><text style="text-anchor: middle; visibility: inherit; font-family: &quot;Helvetica Neue&quot;, sans-serif; font-size: 12px; font-weight: 200;" x="265.7425453879616" y="0" dx="0em" dy="0.95em" fill="rgb(50, 49, 63)" stroke="none" stroke-width="1px">2k</text><text style="text-anchor: middle; visibility: inherit; font-family: &quot;Helvetica Neue&quot;, sans-serif; font-size: 12px; font-weight: 200;" x="398.61381808194244" y="0" dx="0em" dy="0.95em" fill="rgb(50, 49, 63)" stroke="none" stroke-width="1px">3k</text><text style="text-anchor: middle; visibility: inherit; font-family: &quot;Helvetica Neue&quot;, sans-serif; font-size: 12px; font-weight: 200;" x="531.4850907759233" y="0" dx="0em" dy="0.95em" fill="rgb(50, 49, 63)" stroke="none" stroke-width="1px">4k</text><text style="text-anchor: middle; visibility: inherit; font-family: &quot;Helvetica Neue&quot;, sans-serif; font-size: 12px; font-weight: 200;" x="664.3563634699041" y="0" dx="0em" dy="0.95em" fill="rgb(50, 49, 63)" stroke="none" stroke-width="1px">5k</text><text style="text-anchor: middle; visibility: inherit; font-family: &quot;Helvetica Neue&quot;, sans-serif; font-size: 12px; font-weight: 200;" x="797.2276361638849" y="0" dx="0em" dy="0.95em" fill="rgb(50, 49, 63)" stroke="none" stroke-width="1px">6k</text><text style="text-anchor: middle; visibility: inherit; font-family: &quot;Helvetica Neue&quot;, sans-serif; font-size: 12px; font-weight: 200;" x="930.0989088578658" y="0" dx="0em" dy="0.95em" fill="rgb(50, 49, 63)" stroke="none" stroke-width="1px">7k</text><text style="text-anchor: middle; visibility: inherit; font-family: &quot;Helvetica Neue&quot;, sans-serif; font-size: 12px; font-weight: 200;" x="1062.9701815518465" y="0" dx="0em" dy="0.95em" fill="rgb(50, 49, 63)" stroke="none" stroke-width="1px">8k</text><text style="text-anchor: middle; visibility: inherit; font-family: &quot;Helvetica Neue&quot;, sans-serif; font-size: 12px; font-weight: 200;" x="1195.8414542458274" y="0" dx="0em" dy="0.95em" fill="rgb(50, 49, 63)" stroke="none" stroke-width="1px">9k</text><text style="text-anchor: middle; visibility: inherit; font-family: &quot;Helvetica Neue&quot;, sans-serif; font-size: 12px; font-weight: 200;" x="1328.7127269398081" y="0" dx="0em" dy="0.95em" fill="rgb(50, 49, 63)" stroke="none" stroke-width="1px">10k</text><text style="text-anchor: middle; visibility: hidden; font-family: &quot;Helvetica Neue&quot;, sans-serif; font-size: 12px; font-weight: 200;" x="1461.583999633789" y="0" dx="0em" dy="0.95em" fill="rgb(50, 49, 63)" stroke="none" stroke-width="1px">11k</text></g><line x1="0" y1="0" x2="1461.583999633789" y2="0" fill="rgb(0, 0, 0)" stroke="rgb(204, 204, 204)" stroke-width="1px"></line></g></g></g></g></svg>