<svg viewBox="0 0 1513 400" xmlns="http://www.w3.org/2000/svg"><g><g><g><g><g><line x1="82.47800064086914" y1="377.95999908447266" x2="77.47800064086914" y2="377.95999908447266" style="visibility: inherit;" fill="rgb(0, 0, 0)" stroke="rgb(204, 204, 204)" stroke-width="1px"></line><line x1="82.47800064086914" y1="350.9628562927246" x2="77.47800064086914" y2="350.9628562927246" style="visibility: inherit;" fill="rgb(0, 0, 0)" stroke="rgb(204, 204, 204)" stroke-width="1px"></line><line x1="82.47800064086914" y1="323.96571350097656" x2="77.47800064086914" y2="323.96571350097656" style="visibility: inherit;" fill="rgb(0, 0, 0)" stroke="rgb(204, 204, 204)" stroke-width="1px"></line><line x1="82.47800064086914" y1="296.9685707092285" x2="77.47800064086914" y2="296.9685707092285" style="visibility: inherit;" fill="rgb(0, 0, 0)" stroke="rgb(204, 204, 204)" stroke-width="1px"></line><line x1="82.47800064086914" y1="269.97142791748047" x2="77.47800064086914" y2="269.97142791748047" style="visibility: inherit;" fill="rgb(0, 0, 0)" stroke="rgb(204, 204, 204)" stroke-width="1px"></line><line x1="82.47800064086914" y1="242.97428512573242" x2="77.47800064086914" y2="242.97428512573242" style="visibility: inherit;" fill="rgb(0, 0, 0)" stroke="rgb(204, 204, 204)" stroke-width="1px"></line><line x1="82.47800064086914" y1="215.97714233398438" x2="77.47800064086914" y2="215.97714233398438" style="visibility: inherit;" fill="rgb(0, 0, 0)" stroke="rgb(204, 204, 204)" stroke-width="1px"></line><line x1="82.47800064086914" y1="188.97999954223633" x2="77.47800064086914" y2="188.97999954223633" style="visibility: inherit;" fill="rgb(0, 0, 0)" stroke="rgb(204, 204, 204)" stroke-width="1px"></line><line x1="82.47800064086914" y1="161.98285675048828" x2="77.47800064086914" y2="161.98285675048828" style="visibility: inherit;" fill="rgb(0, 0, 0)" stroke="rgb(204, 204, 204)" stroke-width="1px"></line><line x1="82.47800064086914" y1="134.9857139587402" x2="77.47800064086914" y2="134.9857139587402" style="visibility: inherit;" fill="rgb(0, 0, 0)" stroke="rgb(204, 204, 204)" stroke-width="1px"></line><line x1="82.47800064086914" y1="107.98857116699219" x2="77.47800064086914" y2="107.98857116699219" style="visibility: inherit;" fill="rgb(0, 0, 0)" stroke="rgb(204, 204, 204)" stroke-width="1px"></line><line x1="82.47800064086914" y1="80.99142837524414" x2="77.47800064086914" y2="80.99142837524414" style="visibility: inherit;" fill="rgb(0, 0, 0)" stroke="rgb(204, 204, 204)" stroke-width="1px"></line><line x1="82.47800064086914" y1="53.994285583496094" x2="77.47800064086914" y2="53.994285583496094" style="visibility: inherit;" fill="rgb(0, 0, 0)" stroke="rgb(204, 204, 204)" stroke-width="1px"></line><line x1="82.47800064086914" y1="26.997142791748047" x2="77.47800064086914" y2="26.997142791748047" style="visibility: inherit;" fill="rgb(0, 0, 0)" stroke="rgb(204, 204, 204)" stroke-width="1px"></line><line x1="82.47800064086914" y1="0" x2="77.47800064086914" y2="0" style="visibility: inherit;" fill="rgb(0, 0, 0)" stroke="rgb(204, 204, 204)" stroke-width="1px"></line></g><g transform="translate(72.47800064086914, 0)"><text style="text-anchor: end; visibility: hidden; font-family: &quot;Helvetica Neue&quot;, sans-serif; font-size: 12px; font-weight: 200;" x="0" y="377.95999908447266" dx="0em" dy="0.3em" fill="rgb(50, 49, 63)" stroke="none" stroke-width="1px">-1.1e+3</text><text style="text-anchor: end; visibility: inherit; font-family: &quot;Helvetica Neue&quot;, sans-serif; font-size: 12px; font-weight: 200;" x="0" y="350.9628562927246" dx="0em" dy="0.3em" fill="rgb(50, 49, 63)" stroke="none" stroke-width="1px">-1e+3</text><text style="text-anchor: end; visibility: inherit; font-family: &quot;Helvetica Neue&quot;, sans-serif; font-size: 12px; font-weight: 200;" x="0" y="323.96571350097656" dx="0em" dy="0.3em" fill="rgb(50, 49, 63)" stroke="none" stroke-width="1px">-900</text><text style="text-anchor: end; visibility: inherit; font-family: &quot;Helvetica Neue&quot;, sans-serif; font-size: 12px; font-weight: 200;" x="0" y="296.9685707092285" dx="0em" dy="0.3em" fill="rgb(50, 49, 63)" stroke="none" stroke-width="1px">-800</text><text style="text-anchor: end; visibility: inherit; font-family: &quot;Helvetica Neue&quot;, sans-serif; font-size: 12px; font-weight: 200;" x="0" y="269.97142791748047" dx="0em" dy="0.3em" fill="rgb(50, 49, 63)" stroke="none" stroke-width="1px">-700</text><text style="text-anchor: end; visibility: inherit; font-family: &quot;Helvetica Neue&quot;, sans-serif; font-size: 12px; font-weight: 200;" x="0" y="242.97428512573242" dx="0em" dy="0.3em" fill="rgb(50, 49, 63)" stroke="none" stroke-width="1px">-600</text><text style="text-anchor: end; visibility: inherit; font-family: &quot;Helvetica Neue&quot;, sans-serif; font-size: 12px; font-weight: 200;" x="0" y="215.97714233398438" dx="0em" dy="0.3em" fill="rgb(50, 49, 63)" stroke="none" stroke-width="1px">-500</text><text style="text-anchor: end; visibility: inherit; font-family: &quot;Helvetica Neue&quot;, sans-serif; font-size: 12px; font-weight: 200;" x="0" y="188.97999954223633" dx="0em" dy="0.3em" fill="rgb(50, 49, 63)" stroke="none" stroke-width="1px">-400</text><text style="text-anchor: end; visibility: inherit; font-family: &quot;Helvetica Neue&quot;, sans-serif; font-size: 12px; font-weight: 200;" x="0" y="161.98285675048828" dx="0em" dy="0.3em" fill="rgb(50, 49, 63)" stroke="none" stroke-width="1px">-300</text><text style="text-anchor: end; visibility: inherit; font-family: &quot;Helvetica Neue&quot;, sans-serif; font-size: 12px; font-weight: 200;" x="0" y="134.9857139587402" dx="0em" dy="0.3em" fill="rgb(50, 49, 63)" stroke="none" stroke-width="1px">-200</text><text style="text-anchor: end; visibility: inherit; font-family: &quot;Helvetica Neue&quot;, sans-serif; font-size: 12px; font-weight: 200;" x="0" y="107.98857116699219" dx="0em" dy="0.3em" fill="rgb(50, 49, 63)" stroke="none" stroke-width="1px">-100</text><text style="text-anchor: end; visibility: inherit; font-family: &quot;Helvetica Neue&quot;, sans-serif; font-size: 12px; font-weight: 200;" x="0" y="80.99142837524414" dx="0em" dy="0.3em" fill="rgb(50, 49, 63)" stroke="none" stroke-width="1px">0</text><text style="text-anchor: end; visibility: inherit; font-family: &quot;Helvetica Neue&quot;, sans-serif; font-size: 12px; font-weight: 200;" x="0" y="53.994285583496094" dx="0em" dy="0.3em" fill="rgb(50, 49, 63)" stroke="none" stroke-width="1px">100</text><text style="text-anchor: end; visibility: inherit; font-family: &quot;Helvetica Neue&quot;, sans-serif; font-size: 12px; font-weight: 200;" x="0" y="26.997142791748047" dx="0em" dy="0.3em" fill="rgb(50, 49, 63)" stroke="none" stroke-width="1px">200</text><text style="text-anchor: end; visibility: hidden; font-family: &quot;Helvetica Neue&quot;, sans-serif; font-size: 12px; font-weight: 200;" x="0" y="0" dx="0em" dy="0.3em" fill="rgb(50, 49, 63)" stroke="none" stroke-width="1px">300</text></g><line x1="82.47800064086914" y1="0" x2="82.47800064086914" y2="377.95999908447266" fill="rgb(0, 0, 0)" stroke="rgb(204, 204, 204)" stroke-width="1px"></line></g></g><g transform="translate(82, 0)" clip-path="url(#clip_0)"><clipPath id="clip_0"><rect width="1430" height="377"></rect></clipPath><g><g><g><line x1="0" y1="0" x2="0" y2="377.95999908447266" fill="rgb(0, 0, 0)" stroke="rgb(60, 60, 60)" stroke-width="1px" opacity="0.25"></line><line x1="130.0474544871937" y1="0" x2="130.0474544871937" y2="377.95999908447266" fill="rgb(0, 0, 0)" stroke="rgb(60, 60, 60)" stroke-width="1px" opacity="0.25"></line><line x1="260.0949089743874" y1="0" x2="260.0949089743874" y2="377.95999908447266" fill="rgb(0, 0, 0)" stroke="rgb(60, 60, 60)" stroke-width="1px" opacity="0.25"></line><line x1="390.1423634615811" y1="0" x2="390.1423634615811" y2="377.95999908447266" fill="rgb(0, 0, 0)" stroke="rgb(60, 60, 60)" stroke-width="1px" opacity="0.25"></line><line x1="520.1898179487748" y1="0" x2="520.1898179487748" y2="377.95999908447266" fill="rgb(0, 0, 0)" stroke="rgb(60, 60, 60)" stroke-width="1px" opacity="0.25"></line><line x1="650.2372724359685" y1="0" x2="650.2372724359685" y2="377.95999908447266" fill="rgb(0, 0, 0)" stroke="rgb(60, 60, 60)" stroke-width="1px" opacity="0.25"></line><line x1="780.2847269231622" y1="0" x2="780.2847269231622" y2="377.95999908447266" fill="rgb(0, 0, 0)" stroke="rgb(60, 60, 60)" stroke-width="1px" opacity="0.25"></line><line x1="910.332181410356" y1="0" x2="910.332181410356" y2="377.95999908447266" fill="rgb(0, 0, 0)" stroke="rgb(60, 60, 60)" stroke-width="1px" opacity="0.25"></line><line x1="1040.3796358975496" y1="0" x2="1040.3796358975496" y2="377.95999908447266" fill="rgb(0, 0, 0)" stroke="rgb(60, 60, 60)" stroke-width="1px" opacity="0.25"></line><line x1="1170.4270903847435" y1="0" x2="1170.4270903847435" y2="377.95999908447266" fill="rgb(0, 0, 0)" stroke="rgb(60, 60, 60)" stroke-width="1px" opacity="0.25"></line><line x1="1300.474544871937" y1="0" x2="1300.474544871937" y2="377.95999908447266" fill="rgb(0, 0, 0)" stroke="rgb(60, 60, 60)" stroke-width="1px" opacity="0.25"></line><line x1="1430.5219993591309" y1="0" x2="1430.5219993591309" y2="377.95999908447266" fill="rgb(0, 0, 0)" stroke="rgb(60, 60, 60)" stroke-width="1px" opacity="0.25"></line></g><g><line x1="0" y1="377.95999908447266" x2="1430.5219993591309" y2="377.95999908447266" fill="rgb(0, 0, 0)" stroke="rgb(60, 60, 60)" stroke-width="1px" opacity="0.25"></line><line x1="0" y1="350.9628562927246" x2="1430.5219993591309" y2="350.9628562927246" fill="rgb(0, 0, 0)" stroke="rgb(60, 60, 60)" stroke-width="1px" opacity="0.25"></line><line x1="0" y1="323.96571350097656" x2="1430.5219993591309" y2="323.96571350097656" fill="rgb(0, 0, 0)" stroke="rgb(60, 60, 60)" stroke-width="1px" opacity="0.25"></line><line x1="0" y1="296.9685707092285" x2="1430.5219993591309" y2="296.9685707092285" fill="rgb(0, 0, 0)" stroke="rgb(60, 60, 60)" stroke-width="1px" opacity="0.25"></line><line x1="0" y1="269.97142791748047" x2="1430.5219993591309" y2="269.97142791748047" fill="rgb(0, 0, 0)" stroke="rgb(60, 60, 60)" stroke-width="1px" opacity="0.25"></line><line x1="0" y1="242.97428512573242" x2="1430.5219993591309" y2="242.97428512573242" fill="rgb(0, 0, 0)" stroke="rgb(60, 60, 60)" stroke-width="1px" opacity="0.25"></line><line x1="0" y1="215.97714233398438" x2="1430.5219993591309" y2="215.97714233398438" fill="rgb(0, 0, 0)" stroke="rgb(60, 60, 60)" stroke-width="1px" opacity="0.25"></line><line x1="0" y1="188.97999954223633" x2="1430.5219993591309" y2="188.97999954223633" fill="rgb(0, 0, 0)" stroke="rgb(60, 60, 60)" stroke-width="1px" opacity="0.25"></line><line x1="0" y1="161.98285675048828" x2="1430.5219993591309" y2="161.98285675048828" fill="rgb(0, 0, 0)" stroke="rgb(60, 60, 60)" stroke-width="1px" opacity="0.25"></line><line x1="0" y1="134.9857139587402" x2="1430.5219993591309" y2="134.9857139587402" fill="rgb(0, 0, 0)" stroke="rgb(60, 60, 60)" stroke-width="1px" opacity="0.25"></line><line x1="0" y1="107.98857116699219" x2="1430.5219993591309" y2="107.98857116699219" fill="rgb(0, 0, 0)" stroke="rgb(60, 60, 60)" stroke-width="1px" opacity="0.25"></line><line x1="0" y1="80.99142837524414" x2="1430.5219993591309" y2="80.99142837524414" fill="rgb(0, 0, 0)" stroke="rgb(60, 60, 60)" stroke-width="1px" opacity="0.25"></line><line x1="0" y1="53.994285583496094" x2="1430.5219993591309" y2="53.994285583496094" fill="rgb(0, 0, 0)" stroke="rgb(60, 60, 60)" stroke-width="1px" opacity="0.25"></line><line x1="0" y1="26.997142791748047" x2="1430.5219993591309" y2="26.997142791748047" fill="rgb(0, 0, 0)" stroke="rgb(60, 60, 60)" stroke-width="1px" opacity="0.25"></line><line x1="0" y1="0" x2="1430.5219993591309" y2="0" fill="rgb(0, 0, 0)" stroke="rgb(60, 60, 60)" stroke-width="1px" opacity="0.25"></line></g></g></g><g><g><line x1="0" y1="80.99142837524414" x2="1430.5219993591309" y2="80.99142837524414" fill="rgb(0, 0, 0)" stroke="rgb(153, 153, 153)" stroke-width="1.5px"></line></g></g><g><g><line x1="0" y1="0" x2="0" y2="377.95999908447266" fill="rgb(0, 0, 0)" stroke="rgb(153, 153, 153)" stroke-width="1.5px"></line></g></g><g><g><g><g><g><path style="fill: none;" stroke="rgb(255, 112, 67)" stroke-width="2px" d="M135.63949503014305,422.50346935186735L136.02963739360462,311.18997023132016L137.46015939296376,30.80166595872919L139.41087121027167,180.92806872054504L139.80101357373326,278.28770978217943L142.40196266347712,104.59892643771019L143.44234229937467,203.57966964262928L143.96253211732343,581.6405818707066L146.5634812070673,590.9615086044574L150.33485738719594,199.31588125582022L150.72499975065753,-32.41432000868423L153.97618611283735,-35.57481172833036L154.23628102181175,297.0792262480142L154.8865182942477,35.64862109017997L159.95836901924827,136.6437864151291L160.60860629168423,145.05726577131185L162.55931810899213,399.67646194684136L163.3396028359153,3.2388062611835835L163.98984010835127,612.5643829097379L164.90017228976163,169.4229503507153L165.68045701668478,-39.956065713248904L170.23211792373655,-137.53011537495433L170.49221283271095,23.866004419080866L171.5325924686085,62.72926496861328L173.09316192245484,-62.845124489924444L174.26358901283956,73.38155837528922L175.3039686487371,166.35104907976222L177.3847279205322,137.01918896258658L177.904917738481,62.93467883001949L184.92748028078944,48.998624894207694L185.05752773527666,126.7429630055237L187.26833446155896,71.92907913005007L187.65847682502053,72.85236676781147L188.04861918848212,120.79195381082684L189.99933100579,248.5979804096486L190.3894733692516,80.98546609254106L190.5195208237388,-87.08939986345462L191.81999536861073,-125.12252705981535L194.03080209489303,24.3067233226771L194.2908970038674,-23.811914141835246L197.0218935480985,119.01121769010211L199.23270027438076,105.36801153646752L199.88293754681675,129.38750176402206L203.39421881797097,-25.037092509709055L204.6946933628429,134.60239548854182L205.47497808976607,249.8495781980547L206.38531027117642,261.8538740639877L206.51535772566362,146.65832022880102L208.46606954297152,209.700702144551L210.80692372374102,150.70434394179924L211.0670186327154,323.3713285101135L212.62758808656173,79.75620384208486L213.53792026797208,190.52899500792967L213.66796772245928,175.8749393915706L213.92806263143365,-4.0000718754315585L214.31820499489524,-5.034881213882159L214.57829990386963,160.03900592552267L216.13886935771595,227.17885833387916L217.4393439025879,258.53612101354577L219.65015062887016,247.52640674255565L223.0313844455372,134.39400841184136L223.551574263486,152.499368491545L224.07176408143476,145.02869041106504L225.11214371733234,278.6693377263201L226.28257080771706,248.14644841663176L226.80276062566583,125.73027888843941L227.9731877160506,142.15745005475125L228.49337753399934,104.45131975878621L229.6638046243841,63.338213162946374L230.18399444233287,40.91030794304112L230.44408935130727,67.25217467528313L230.70418426028164,50.290348072982226L231.61451644169202,46.19380652087534L232.264753714128,51.957989623719754L232.52484862310237,83.29558244645972L233.17508589553833,54.61657381350216L233.43518080451273,71.99869306083235L233.9553706224615,70.92127821467852L234.47556044041028,155.2913983674964L235.25584516733343,79.80959897265467L235.38589262182063,53.51774334682693L238.3769840750261,60.892392790490305L238.89717389297488,67.02459087424882L243.18873989105225,65.91857862662874L244.0990720724626,66.74876484447185L244.87935679938576,71.33785276490329L246.70002116220647,71.50809849606037L247.22021098015526,73.10694411624883L248.13054316156558,73.17442343427393L248.39063807054,74.67039238493618L249.17092279746316,118.70160139732457L249.43101770643753,107.75211231066197L251.25168206925827,105.19427600714971L251.38172952374546,95.64363572599501L252.6822040686174,86.79229790674714L253.07234643207897,89.45847058512766L254.24277352246372,88.15304377146737L254.76296334041245,82.21841267595642L255.28315315836124,88.9086892174692L256.453580248746,84.31826901358966L256.5836277032332,84.75704786882028L257.36391243015635,81.02322848106508L257.4939598846436,86.90695614252377L258.14419715707953,86.5054839764922L260.485051337849,83.08721470339702L260.8751937013106,89.21683899872846L262.04562079169534,94.51438941463772L265.94704442631115,85.058549729621L267.63766133464463,76.34656272881875L268.4179460615678,100.15017229691858L268.80808842502944,104.44484030335633L269.0681833340038,88.94721713785174L269.58837315195257,96.67936910314461L270.36865787887575,82.45798160407696L271.0188951513117,91.06662191546212L272.3193696961836,87.94828714809762L273.0996544231068,92.7221697963634L273.7498916955428,80.14973531897283L275.0503662404147,72.78629403256275L275.70060351285065,89.13991891586357L280.51235932887687,80.26893942459083L281.03254914682566,93.44282232576182L281.1625966013128,98.44289785004088L281.2926440558,94.67764397894331L283.6334982365695,102.00496589929026L285.1940676904158,97.13533746605935L285.32411514490303,86.49625560573992L286.10439987182616,95.41476650911449L287.0147320532365,83.68116937870838L290.3959658699036,86.98199278666732L291.9565353237499,77.73197450120682L293.38705732310905,72.07683467197865L293.7771996865706,82.82443777606011L294.1673420500322,91.7923583715945L296.76829113977607,97.11228147334259L297.5485758666992,89.61581146878927L298.4589080481096,79.33920765281505L299.23919277503273,92.66134231963457L301.31995204682784,82.38815428963557L301.7100944102894,93.07727871370247L303.14061640964854,101.19201496767681L303.53075877311016,89.40782226725321L303.92090113657173,80.87339630098802L304.0509485910589,79.91971733235977L310.2932264064442,71.83790510822831L310.68336876990577,78.16990571591691L311.0735111333674,84.19486038119078L311.20355858785456,82.88619879274898L314.06460258657285,81.92360413952457L315.62517204041916,79.30513249728494L315.88526694939355,82.25137147574787L316.4054567673423,80.66803426703268L316.9256465852911,76.78569912737112L317.44583640323987,82.15033585143158L320.6970227654197,82.80401393694859L320.8270702199069,83.57803400579405L322.25759221926603,85.07631599890783L323.2979718551636,86.35651705675457L323.81816167311234,87.71087601693824L324.07825658208674,87.76291354738265L326.289063308369,87.27279699957296L328.23977512567694,79.5805385826867L328.7599649436257,80.67503453711748L332.0111513058056,77.00961811644805L334.0919105776007,81.55647849391687L334.22195803208785,81.9314914212078L336.17266984939573,79.30967804982373L336.6928596673445,76.11545889348639L338.7736189391396,80.79428744783871L338.9036663936268,81.42994619175238L340.59428330196033,77.5454630130809L341.7647103923451,80.56730146122504L342.41494766478104,76.99148836322456L343.065184937217,73.74235635138825L343.45532730067856,79.49742363611318L344.1055645731146,81.57111128598513L344.49570693657614,77.14858504598942L346.05627639042245,75.17385407682832L347.09665602632003,74.25164567444398L348.0069882077304,78.41237723067752L348.91732038914074,82.08532595023354L350.0877474795255,77.43240834458959L350.6079372974742,79.28195155178884L350.8680322064487,75.06366819043637L351.128127115423,78.6140786330173L351.51826947888463,76.08089834521496L352.428601660295,72.91529318799445L353.5990287506797,78.61935058453929L354.89950329555165,76.78963993356484L355.41969311350044,74.52455910240462L355.6797880224748,73.92371132821205L356.0699303859364,77.14047709494383L356.72016765837236,81.33266118532248L357.1103100218339,76.00515994991156L357.2403574763211,75.18433692002122L357.3704049308083,78.89569361833225L359.84130656606504,82.04622137017145L361.01173365644974,76.83263676219389L361.7920183833729,73.92959510784141L362.7023505647832,73.37503554526774L362.8323980192705,77.82075062180178L364.0028251096552,75.31800869890952L364.91315729106554,72.9054526107962L367.64415383529666,78.45101333296975L368.1643436532454,75.98275597461793L369.4648181981173,74.08773840208403L369.9850080160661,79.75994044938273L371.15543510645085,74.97095674100643L372.84605201478433,73.99420189333574L373.23619437824595,76.98148798901389L374.0164791051691,79.41044078845954L374.2765740141435,75.37894346447558L378.6981874667081,78.2776821023943L379.47847219363126,80.31933655909955L381.6892789199136,110.39116023764063L381.949373828888,120.34160384006549L382.98975346478545,100.36917951696284L383.3798958282471,98.32364770403018L383.63999073722147,91.18523040487685L385.98084491799096,93.54412074983111L387.8015092808117,94.2938050070698L388.06160418978607,88.66381099267227L390.40245837055556,1125.1985125033762L390.9226481885043,114.91537056100844L391.9630278244019,-460.62177415964027L415.24152217760957,1446.454801902099L415.7617119955583,318.04337633471107L416.15185435901986,1263.0297848554278L417.19223399491744,208.67463136732277L417.7124238128662,1184.9668624363821L424.3448439917131,402.14154195804423L426.81574562696983,157.4672861423658L428.1162201718417,1122.8788410358618L430.1969794436368,1388.8399642219053L431.7575488974831,273.80401281251943L431.88759635197033,1208.6834334277628L443.071677437869,-176.28418174339265L446.9731010724848,21.150256698423334L448.01348070838236,-505.001783276055L458.28722961287065,381.9348773443888L459.4576567032554,258.338838216362L461.4083685205633,183.48774952681788L461.9285583385121,138.97192334726512L462.18865324748646,112.22874053093761L463.87927015582,96.59425364547292L465.4398396096663,87.03219238061331L467.0004090635126,81.41283722696357L468.30088360838454,77.48314277959742L469.0811683353078,75.03298069034605L471.29197506159,74.10358303322022L472.0722597885132,73.23898005418147L472.2023072430004,72.65762671600652L473.242686878898,72.51701435824452L474.0229716058211,72.56635522011027L474.8032563327443,72.47450802182561L475.4534936051802,72.45500131982965L478.44458505838566,72.29985417439372L479.35491723979607,72.66820380680826L480.00515451223197,72.69348224129823L481.6957714205655,72.58164005403506L482.60610360197586,72.2853144330457L484.55681541928374,72.32213575869315L486.11738487313005,72.32912855152432L486.5075272365917,72.37179276642769L488.3281915994124,72.48200412087448L488.4582390538996,72.49555826569247L488.71833396287394,72.4514529949671L492.8798525064642,72.36979473104196L493.0098999609514,71.99910798844945L493.13994741543854,71.9949869730309L494.05027959684895,71.87320846314628L495.48080159620804,72.31428562047472L497.431513413516,72.03522821896235L498.08175068595193,72.0313131848331L501.98317432056774,72.22951792832202L503.6737912289012,72.45542296710579L504.84421831928597,72.44214597090013L506.0146454096707,72.3926338085077L506.79493013659396,72.31500674739436L507.3151199545427,72.97374734390905L509.5259266808249,73.08010629053035L509.78602158979936,73.18196548374584L509.9160690442866,72.91481706553367L511.4766384981329,72.51266226999661L516.0282994051846,72.86087752132545L517.0686790410822,72.77633900500871L520.0597704942877,72.73789305352284L521.2301975846724,72.31902708519618L521.4902924936468,72.43496067439207L521.7503874026212,72.62423949613776L522.27057722057,72.96872718949595L522.4006246750571,72.57846929587464L523.8311466744162,71.9804553937131L524.2212890378779,72.18501755882039L525.2616686737754,72.27363726811501L525.651811037237,72.41764597666787L528.7729499449297,72.30494974537271L529.2931397628785,71.97759573202592L529.5532346718528,72.13660238136265L531.5039464891607,71.87540421129302L533.1945633974942,72.19384363200942L536.1856548506997,72.26415134195662L538.1363666680076,72.10448210961869L539.1767463039051,72.52313852860806L539.826983576341,72.5314860033971L540.477220848777,73.02740842199609L540.9974106667258,72.5439454404596L541.2575055757002,72.29687745816994L543.3382648474953,71.99191598096093L545.6791190282648,72.0088973939732L545.809166482752,72.1640055662935L546.7194986641624,71.74524524352603L547.109641027624,72.19320643854826L550.2307799353166,72.4548777445288L550.6209222987782,72.51518992506249L551.5312544801885,72.11877207765741L551.9213968436502,72.24986186083072L552.0514442981373,72.13145504343316L552.3115392071118,72.46981955857024L552.4415866615989,72.68947502620938L555.6927730237787,72.40690443036397L556.8632001141635,72.30351940833742L559.9843390218562,72.0521224043257L561.0247186577537,72.7046527001645L562.8453830205743,72.61989762926618L562.9754304750616,72.91364188288514L563.6256677474976,72.6768223872769L565.1862372013439,72.33997771125775L568.9576133814725,72.88044392770354L569.2177082904469,72.74797612894457L569.4778031994213,72.6936439950951L570.5181828353188,73.32866931667945L572.7289895616011,73.0948659416963L573.379226834037,72.73856228445203L576.2402708327553,72.62521917492336L576.630413196217,72.89080635311507L577.2806504686529,73.09271306289418L578.711172468012,73.00149207482383L578.9712673769864,72.65865264430056L579.8815995583968,72.55521813072357L580.66188428532,72.27838150809339L581.5722164667303,72.29677181931186L582.3525011936534,71.94510852130833L582.742643557115,72.12271290129308L584.9534502833973,72.62167333141656L586.5140197372436,72.96269668633971L586.9041621007052,73.15114664614066L587.8144942821156,72.82363747195672L589.8952535539107,72.58215142211895L590.1553484628851,72.47365955012367L590.9356331898082,72.68941652398104L591.455823007757,72.66909662719365L593.5365822795521,72.72464430038121L595.7473890058344,72.34564732532777L598.3483380955784,72.74918335799697L600.6891922763477,72.59339804629826L600.9492871853221,72.6318083714325L601.2093820942965,72.7023240757191L601.5995244577581,72.53701016239432L601.9896668212197,72.62041689245268L604.200473547502,73.18619364868164L605.6309955468612,73.18030545969913L607.4516599096819,72.90472780571406L611.3530835442976,72.78567791879476L611.6131784532721,72.86669393462944L614.7343173609647,72.79324215203962L615.2545071789134,73.10244288325703L615.5146020878879,72.50647480180317L616.294886814811,72.49069188562686L616.6850291782725,73.03917475868894L616.945124087247,72.76225945020678L618.1155511776317,72.78362209728749L619.025883359042,72.8710748225098L620.7165002673756,72.83788399957257L621.7568799032732,72.61772325782124L623.4474968116067,73.1361431865347L623.707591720581,72.45169280495276L624.0977340840426,72.73596048748465L625.658303537889,73.47264894861183L626.1784933558378,72.85322541851485L626.8287306282737,72.60462753659999L627.0888255372481,72.40822092395956L628.38930008212,72.97190980768204L628.9094899000688,72.98697966405405L632.6808660801975,72.366118455275L633.3311033526334,72.46497284829411L634.2414355340437,72.54357289444619L637.6226693507108,73.046961195721L639.9635235314803,73.1669066130799L641.0039031673779,72.9859006747376L641.9142353487882,73.11541004916995L642.4344251667369,73.10650780495081L643.864947166096,73.07562842023839L644.6452318930192,72.94283481406245L645.4255166199424,72.71204678206618L648.2865606186607,72.60220487440284L649.7170826180198,72.77784642401343L650.3673198904557,72.42858288431302L651.5377469808406,72.028892142458L651.6677944353277,72.67242568424945L653.228363889174,72.38043229675873L654.6588858885332,71.96769222108628L655.0490282519947,72.3749216780376L656.3495027968667,72.4390813538568L662.4617331577648,72.55414184064665L663.1119704302007,72.50861123249399L663.2420178846879,72.68505320138536L664.5424924295598,72.74435206009207L674.0359566071251,72.86830730658573L675.4664786064842,72.69784789129329L675.5965260609713,72.82591489137934L675.8566209699458,73.06163662998222L676.1167158789201,72.74948875579429L676.5068582423817,72.86551871423654L676.6369056968689,72.62967795878825L679.8880920590487,73.06388584538973L680.5383293314846,73.69288268897208L680.9284716949462,73.16043844271985L681.9688513308438,72.83913956935902L683.3993733302029,73.02629036520648L684.5698004205877,73.39676841491763L684.9599427840493,73.12097678606398L685.0899902385364,72.97183022744389L687.0407020558445,72.69823435095407L689.1214613276395,72.43940227450821L689.9017460545626,72.412001251118L690.4219358725114,72.65777063361486L691.5923629628962,72.78555515402553L691.8524578718706,73.19882857090516L693.0228849622554,72.76993697857728L693.543074780204,73.23431895326041L694.3233595071273,73.42924962162351L694.9735967795632,73.11106549965194L698.3548305962303,73.25543106639338L699.525257686615,72.8905574257684L701.4759695039229,72.88034822811403L702.3863016853333,73.27294405353064L703.1665864122565,73.5794994287923L703.6867762302052,73.17677373394878L703.8168236846924,73.33806746004853L706.2877253199491,72.8544240750964L706.6778676834107,72.87107822786055L707.4581524103338,72.57825481385873L711.3595760449496,72.87935759431105L712.1398607718728,73.09148887820271L712.6600505898216,72.9721023477959L714.0905725891806,73.0216537636307L714.3506674981551,73.02029501558115L716.5614742244373,72.80522145953546L716.6915216789246,72.20042868781746L719.1624233141812,71.85900293361806L719.2924707686684,72.43497400774521L719.6826131321301,72.6246577920819L720.8530402225147,72.61930057513604L722.2835622218738,72.39297629734523L725.5347485840538,72.54866815452527L725.9248909475153,72.79887810653588L727.3554129468745,72.53251498372816L727.7455553103359,72.67365206000676L728.0056502193104,72.41511887478157L728.2657451282847,72.47359671912795L729.8263145821311,72.52322751026048L732.0371213084134,72.3598591747998L734.7681178526445,72.48030222001756L735.6784500340549,72.8362922157288L736.7188296699524,72.56780785403276L737.2390194879011,73.19805615512485L738.1493516693115,72.93337130618227L738.2793991237986,72.99102898799327L738.409446578286,73.18054141328093L739.7099211231578,72.72354864766794L743.091154939825,72.74821835380897L743.7413922122608,72.78973410898664L745.822151484056,72.83343169666085L747.252673483415,72.99877249595932L747.7728633013638,72.73360370380323L747.902910755851,73.08595608144549L748.9432903917486,72.35620631140569L749.3334327552102,72.56407120729568L749.7235751186718,72.08260797671613L750.1137174821333,72.40787034098844L751.2841445725181,72.71410014131061L751.8043343904668,72.88021692345865L752.7146665718773,73.39173121549175L752.8447140263644,73.19426024108668L753.6249987532876,73.38685159162935L754.4052834802108,72.66656602904942L754.6653783891851,72.89665187286317L755.0555207526468,72.95485530053543L759.6071816596985,73.12808271946159L761.1677511135448,72.92783870162691L763.6386527488015,72.78549470426645L763.898747657776,72.83005448573726L766.3696492930326,72.39099654218421L766.6297442020069,72.61366461922228L769.2306932917509,72.88233480397633L772.3518321994435,73.10736388475823L772.741974562905,73.39582294915385L774.4325914712385,73.22137752714355L775.4729711071361,73.47909468145451L776.6433981975208,73.50586259066642L777.0335405609825,73.31101310145755L777.2936354699568,73.32232459427581L777.4236829244439,73.22764213393731L779.2443472872648,73.31104511344921L780.2847269231622,73.26072031843086L783.1457709218805,73.14771692935244L783.9260556488038,73.06293704795888L784.3161980122652,72.55961527975597L785.2265301936757,73.22046339485098L786.9171471020092,73.69746750608795L787.1772420109835,73.23802838209838L787.3072894654708,73.1102222147369L788.2176216468812,73.20897916003935L790.5584758276506,73.35831800098771L793.5495672808561,72.97006784109448L794.1998045532921,72.6338286278027L796.8007536430359,72.64456422217233L797.0608485520104,72.64835904644752L797.8411332789334,72.52861780301129L801.2223670956005,72.2017976158034L801.8726043680365,72.72734622397269L803.56322127637,72.9342046375981L804.0834110943188,72.75979911714745L806.4242652750883,72.69853347723983L807.4646449109857,72.61091346349207L810.4557363641912,73.38121692982577L810.8458787276528,72.86272993982305L810.97592618214,73.17371661562191L811.4961160000888,72.95416116788317L811.626163454576,73.1827212804996L815.007397271243,72.9046786469878L817.9984887244484,72.93639510375323L819.6891056327819,73.21739645893712L821.769864904577,73.0671734398992L823.2003869039362,73.08437011957119L825.2811461757314,73.33010654102361L827.101810538552,73.35059949569097L827.2318579930392,73.20411980544475L827.6220003565008,73.83332238160187L829.8328070827831,73.64275275197986L832.9539459904757,73.49425074826314L833.2140408994501,73.81703290342944L835.0347052622709,74.22456030043361L837.5056068975275,73.63933581023048L837.6356543520147,73.2673897200234L837.8957492609892,73.4926543048249L838.545986533425,73.35408016979841L842.1873152590665,73.43022031425113L843.3577423494513,73.7337708630057L844.2680745308616,73.15925452539005L844.7882643488105,73.50078114737568L845.5685490757336,72.98746420439033L846.3488338026567,72.8325440813017L846.9990710750927,73.10356322212562L847.3892134385542,72.6702491129272L847.6493083475287,72.76972066654815L849.6000201648366,72.6996685192533L850.7704472552214,72.67640682797713L851.8108268911188,72.16345024840189L854.0216336174011,72.44213130852228L854.6718708898371,72.82632346540498L854.9319657988115,72.67751151928621L856.4925352526578,72.97628376859564L856.7526301616323,72.73888521378205L857.5329148885554,72.64892503155062L859.0934843424016,73.03298246613804L859.7437216148376,73.09890329397507L861.0441961597096,72.92104405438323L862.3446707045815,73.18500596288567L865.9859994302229,73.17426765191925L866.2460943391973,72.74524168806533L866.7662841571462,73.42478774625556L868.716995974454,73.0338784683442L874.0489416084289,73.07854917019068L874.4390839718906,72.92525721751963L876.7799381526601,72.80544762754039L878.2104601520192,72.80137542870824L879.1207923334294,72.85173505379134L881.3315990597118,72.86369327776856L881.7217414231734,73.38701719946482L882.3719786956093,73.07065508583065L883.0222159680453,73.18215651390688L883.8025006949684,73.26195017892712L885.3630701488149,73.3045551462626L885.493117603302,73.51923241985457L887.7039243295842,73.23485656810482L888.0940666930459,73.06587162286866L889.0043988744562,73.1573071796347L892.5156801456104,73.46281710411245L892.7757750545849,74.01825487831474L893.6861072359951,74.03303788965513L896.0269614167647,73.53025074930395L896.2870563257391,73.94633084893565L897.1973885071494,73.59250259284141L898.3678155975342,73.54863417912122L899.668290142406,73.25649533137084L899.7983375968934,73.21789164920312L901.0988121417652,73.60229727502275L901.6190019597141,73.56712964806746L901.7490494142012,73.62081621609605L904.2199510494578,74.15806496272296L904.8701883218938,73.59366707029506L905.1302832308683,73.50392801824768L905.6504730488169,73.5100061246331L906.8209001392017,73.54405361016455L909.1617543199712,73.80495382858817L911.7627034097151,73.23436202953201L912.4129406821511,72.91412503162263L913.5833677725359,72.77139136111248L914.363652499459,72.79044170865393L914.4936999539462,72.42717451225496L914.6237474084334,72.52642979833121L915.013889771895,72.54637705419674L915.4040321353565,72.54286023779252L918.2650761340748,72.50556459411933L920.6059303148443,73.05246787068614L921.1261201327931,72.69891385561147L921.7763574052291,73.2254620125351L922.6866895866394,72.74624851233159L923.8571166770242,72.54294642257321L924.1172115859986,72.73588439243832L925.4176861308704,73.0271584684225L926.1979708577937,72.70286299945042L926.4580657667681,72.36094375261251L927.2383504936912,72.62067397357754L927.4984454026655,72.79098821996956L927.75854031164,72.56648604668095L929.3191097654864,72.43254148329783L929.5792046744607,72.38885503683991L929.839299583435,72.05396468643659L932.8303910366404,72.23167430183287L934.0008181270252,72.81976422212614L934.3909604904868,72.72597665467123L936.471719762282,72.58851804242147L937.7721943071539,72.7529656406303L937.9022417616411,72.73551530141242L938.1623366706156,72.81309250404496L938.9426213975386,72.9993489159886L939.7229061244617,73.11818860686151L940.6332383058722,73.47284810631982L941.2834755783082,73.76363463640718L942.1938077597185,73.32394915617573L942.9740924866417,73.60273611300812L944.6647093949751,73.59661047023195L948.0459432116422,74.0324567751345L950.6468923013861,73.86013222204718L951.0370346648477,73.59765821866415L951.5572244827964,73.54374346765479L951.6872719372835,73.593043507581L952.597604118694,73.69184222667712L954.8084108449762,73.84484544858253L956.2389328443353,73.37401034109212L957.6694548436944,73.38760864608503L958.5797870251048,73.35681608587936L959.3600717520279,74.20338834941401L962.4812106597208,73.92650479554777L969.6338206565163,74.06117801790714L970.1540104744652,73.68556109405597L971.8446273827986,73.64989596021218L973.2751493821578,73.55402363680884L973.7953392001066,73.95167620615058L974.835718836004,73.40833885974837L974.9657662904913,73.43058624694447L975.4859561084401,72.9420883774643L976.6563831988248,73.02632926763778L976.7864306533119,72.42589357936328L978.0869051981839,72.39153319143577L978.216952652671,72.55962425148726L978.3470001071584,72.29816451043132L979.3873797430558,72.19117257707126L981.9883288327997,72.44800700178354L985.1094677404924,72.74436149936668L985.8897524674156,72.79161461311935L986.0197999219027,72.36803478065292L986.4099422853643,72.31984266894318L987.7104168302362,72.96407019574053L988.880843920621,72.69457853125306L989.2709862840826,72.93880791826109L990.5714608289545,73.19797837498731L991.2216981013905,73.1660794237385L995.9034064629295,72.69351917576984L997.0738335533141,72.66318546241911L997.3339284622887,73.23731744314415L997.8541182802375,72.74027431912089L998.6344030071606,72.58440753907985L999.0245453706221,72.6145813960573L999.9348775520324,72.71203925043943L1000.9752571879301,73.17729580959576L1001.3653995513915,73.64540441009382L1002.4057791872892,73.26029006569297L1002.9259690052379,73.4018721216674L1003.4461588231867,73.16551823990227L1006.4372502763922,73.26867606323003L1006.957440094341,73.40929690715637L1007.8677722757513,73.14243735200671L1008.3879620937001,72.90884754528167L1009.8184840930592,73.05341988289496L1011.3790535469054,73.20942049734003L1013.4598128187006,73.58914110516037L1016.7109991808805,73.54788463132758L1018.6617109981884,73.82333698930353L1020.482375361009,73.78777225271136L1021.0025651789579,73.7804718343802L1021.5227549969067,73.47790510110207L1022.5631346328041,73.43532479603687L1023.3434193597272,73.24310727866282L1023.4734668142146,72.77378015251435L1025.6842735404969,73.14392804880879L1026.8547006308816,72.94296604723189L1027.6349853578047,73.38760403661064L1028.6753649937023,73.34159220618744L1029.0655073571638,73.52101071351109L1031.926551355882,74.129046749402L1034.1373580821644,74.17589479059973L1034.6575479001133,74.0657843492304L1035.6979275360106,74.13105541892509L1036.0880698994724,74.37731678632764L1036.8683546263956,74.58803714268839L1039.209208807165,74.52974349962636L1039.4693037161394,74.41143419141054L1041.8101578969088,73.75412871615157L1042.3303477148577,73.09523905426954L1042.7204900783192,72.96098549805458L1045.0613442590886,72.58797413540668L1045.5815340770375,72.79003307449426L1046.4918662584478,72.76909430629831L1048.1824831667814,73.18313562309578L1048.9627678937045,72.84208318030124L1050.7834322565252,72.62230660423114L1052.3440017103715,73.08349685838988L1053.254333891782,73.24619075995804L1054.2947135276795,72.99305371798124L1055.3350931635769,72.99652679321326L1055.4651406180642,72.61368034577106L1056.635567708449,72.70104966813585L1058.3261846167825,72.37909888021579L1058.8463744347312,72.47094690317226L1060.6670387975519,72.60158106427127L1062.2276082513981,73.04069345626652L1062.3576557058855,73.1504698436226L1063.267987887296,73.4929072660297L1065.0886522501164,72.71337606463334L1065.8689369770398,72.91488008130148L1066.77926915845,72.71546083183483L1067.0393640674245,72.30040898113873L1068.2097911578091,72.27393828543899L1068.4698860667834,72.58574864221055L1068.5999335212707,71.9767040029904L1071.0708351565274,72.45015753095089L1071.460977519989,72.62200979677215L1072.6314046103737,72.64361026687493L1074.3220215187073,73.04377703647185L1076.142685881528,72.99655171776129L1077.4431604264,73.2492692401749L1079.523919698195,73.59082145647972L1080.954441697554,73.64407099385318L1083.2952958783237,73.25676253666364L1084.5957704231955,73.38911489232225L1084.7258178776829,72.99961552122187L1085.506102604606,73.17056346474186L1086.4164347860165,73.18135941177513L1086.9366246039651,72.97512160793434L1087.0666720584522,73.5230891852114L1087.1967195129394,73.21281033619664L1090.0577635116576,73.02542387938644L1090.1878109661448,73.2096919887125L1090.7080007840937,73.34873917360119L1090.968095693068,73.2812115369369L1092.1385227834528,73.78383305213782L1092.6587126014017,73.10351362461705L1096.4300887815302,73.71911042156592L1096.5601362360173,74.32561934264493L1097.730563326402,74.20410320701416L1098.1207056898638,73.83675840872542L1099.031037871274,73.97567189997551L1100.331512416146,74.09256209913656L1100.4615598706332,73.81170596808397L1100.5916073251203,73.43091378369303L1100.7216547796077,73.92179702541495L1101.3718920520434,74.30451567330283L1102.1521767789668,74.15587090212762L1102.6723665969155,73.5966974639357L1102.93246150589,73.45184012480189L1105.013220777685,73.80005835766207L1105.7935055046082,72.77357897642668L1105.9235529590953,73.01812784948561L1106.963932594993,73.46217445437833L1109.4348342302496,73.04659294713804L1111.645640956532,72.71859616216858L1115.0268747731989,72.13363465842014L1118.0179662264043,72.03850651797626L1118.9282984078147,72.11803016700071L1119.7085831347379,72.5290834434739L1120.0987254981994,73.05854730786876L1124.1301965873026,72.80338432830217L1124.2602440417897,72.28568834756283L1126.3410033135847,72.61573982453609L1126.4710507680718,72.89931864843999L1127.7715253129438,73.0225774801753L1128.1616676764056,73.38937985313572L1128.4217625853798,73.14620380188143L1129.852284584739,73.05983206971422L1130.632569311662,72.77171173486556L1131.0227116751237,72.95967214952861L1131.5429014930726,72.7693834726951L1133.883755673842,72.49838082562098L1134.0138031283293,72.87746255537417L1134.533992946278,73.03642636385621L1134.9241353097395,72.66347614687987L1135.184230218714,72.88677925332996L1137.0048945815347,73.08409787411796L1137.5250843994834,72.83062931589359L1138.9556063988425,73.20163038683211L1139.345748762304,73.6391529779234L1141.946697852048,73.72471199373501L1142.9870774879457,73.43946735549258L1144.2875520328175,73.49462287792892L1144.4175994873046,73.47315239363212L1145.8481214866638,74.060862812977L1148.8392129398692,73.2792572674046L1149.4894502123052,73.76145960155822L1151.7002569385875,73.87248579241225L1154.691348391793,73.4517288472776L1157.422344936024,73.69695025793152L1157.5523923905114,73.83172417519387L1158.07258220846,74.1405410774239L1158.5927720264087,73.62807108094319L1160.9336262071783,73.90411022783798L1161.7139109341015,73.7808419195598L1161.8439583885888,74.08192375431526L1167.3059514770507,74.3980506358854L1168.3463311129483,74.20572930546928L1169.3867107488459,73.72007470616245L1169.5167582033332,73.75647461711878L1171.7275649296153,73.20623165385393L1172.7679445655128,72.97657562978895L1173.4181818379489,72.18844607292937L1173.9383716558975,72.12555037002966L1175.3688936552567,72.2329699643218L1176.9294631091032,72.47064075420377L1177.3196054725647,72.13868078194707L1177.5797003815392,72.1876432100317L1178.0998901994878,71.6852911446806L1179.1402698353854,71.55120320043989L1186.9431171046172,72.25076563741118L1187.7234018315403,72.55178483665867L1187.8534492860274,72.79436957945444L1188.1135441950019,73.1902429621058L1190.0642560123097,72.85635966953771L1190.9745881937201,72.98210023386952L1193.9656796469255,73.16771520945235L1194.4858694648742,73.06462135753549L1195.9163914642334,73.47109931566291L1196.306533827695,72.42135885503416L1198.5173405539772,72.2344562258819L1199.2976252809003,72.68135191893936L1200.988242189234,72.93916602547267L1203.5891912789778,73.11379915591795L1204.7596183693624,73.43801691560287L1206.5802827321834,73.49203851622968L1206.8403776411576,73.44340443583002L1207.100472550132,73.23167648903518L1208.2708996405167,73.32612269691015L1209.4413267309014,73.2247914724764L1210.481706366799,72.88371839181104L1213.0826554565429,73.51147292067242L1213.3427503655173,73.41946284360529L1213.7328927289789,73.80096285269485L1213.9929876379533,73.43156261495602L1214.7732723648764,73.02724129802459L1216.333841818723,73.1323813135507L1216.46388927321,73.59384619540162L1217.3742214546203,72.94247753921877L1217.764363818082,73.00715733247779L1218.414601090518,72.82676996185893L1219.324933271928,73.2533978338638L1219.5850281809026,73.24821831253843L1226.2174483597496,73.36811822652925L1227.6479703591087,74.20921454231888L1228.0381127225703,74.2247590040111L1228.6883499950063,74.07004475351499L1230.7691092668013,74.48320253927193L1231.28929908475,74.66667415825242L1231.4193465392373,74.32495086578149L1231.6794414482117,74.38225582521034L1232.0695838116733,73.93842488566168L1232.9799159930838,74.80406462252222L1233.5001058110324,74.50231509999372L1234.020295628981,74.39214400878512L1235.190722719366,74.21497041410419L1235.3207701738531,73.87078915763027L1235.9710074462891,72.89593453559456L1236.4911972642378,72.38494918005819L1236.6212447187252,72.55728413261198L1238.571956536033,71.90446891844994L1242.603427625136,72.12777384590584L1244.1639970789822,72.86499728048005L1245.0743292603927,72.73076360024629L1245.7245665328287,72.30694719941675L1247.5452308956494,72.5809273778683L1248.7156579860339,72.94358996437404L1250.666369803342,72.7754131510402L1252.096891802701,72.86743224746544L1253.0072239841113,72.98655615356932L1253.1372714385986,73.33464822492033L1253.5274138020602,72.71987413616444L1254.3076985289833,72.61222916079817L1259.2495017994968,72.69017778782995L1259.6396441629583,72.82694863115881L1259.8997390719326,73.06305068937354L1260.2898814353944,73.49438764959217L1260.4199288898815,72.94540343719007L1260.9401187078304,72.87143984119803L1265.1016372514205,73.06142964079874L1266.9223016142412,73.40736718903855L1270.4335828853953,72.95889371048605L1271.2138676123186,73.08482306205576L1271.7340574302673,72.95692147006457L1274.074911611037,72.85336874674636L1274.7251488834727,72.9599400072006L1275.8955759738574,73.22352386615643L1276.6758607007807,73.67542650174562L1277.0660030642423,73.19513023843581L1277.4561454277039,73.38404096544798L1280.1871419719348,73.39515203630236L1281.617663971294,72.9888416108762L1283.3082808796275,72.85897406242367L1283.4383283341149,72.76473438339343L1284.7388028789867,72.92479902204053L1285.1289452424483,73.06265688857559L1285.649135060397,73.5324687249776L1287.8599417866792,73.66710057551438L1288.1200366956539,73.64582186822133L1288.5101790591152,73.66092490132456L1291.2411756033464,73.39488329856533L1291.5012705123208,73.46027228834754L1292.1515077847566,73.4957983948243L1293.5820297841158,73.83473728092429L1294.4923619655262,73.49675550037011L1294.6224094200134,73.45816739967938L1295.1425992379623,73.65787381914231L1297.3534059642445,73.90324390070128L1298.1336906911677,74.13241473518747L1299.4341652360397,73.88169304141542L1299.694260145014,74.66697841554662L1300.474544871937,74.38590170806185" fill="none"></path></g></g></g></g><g opacity="0.2"><g><g><g><path style="fill: none;" stroke="rgb(255, 112, 67)" stroke-width="2px" d="M133.29864084937356,570.893109307005L135.37940012116866,319.7829689205671L135.63949503014305,263.34747197300663L136.02963739360462,165.85906577953372L137.46015939296376,-357.0762986398023L142.40196266347712,-151.55829168610512L143.44234229937467,350.55453769019806L143.96253211732343,1145.302965564197L151.89542684104225,-333.41207703836267L153.3259488404014,107.18475776954261L153.97618611283735,-15.71446602987595L154.8865182942477,-356.457460325174L159.95836901924827,288.12730304440015L160.60860629168423,157.67702339038252L162.55931810899213,781.5968778570276L170.23211792373655,-286.5995850898139L170.49221283271095,265.96003544149687L171.5325924686085,121.02413431377846L173.09316192245484,-251.20666703589723L174.26358901283956,277.72155556855955L175.3039686487371,305.8052740377816L177.3847279205322,93.02140088780419L177.904917738481,-48.19208318491815L184.92748028078944,28.09454434984599L185.05752773527666,243.35946896966547L187.26833446155896,-10.29174617432409L187.65847682502053,74.23729821931107L188.04861918848212,192.70133421514183L189.99933100579,440.30702005161436L191.81999536861073,-182.1722178378841L194.03080209489303,248.45059885758442L194.2908970038674,-95.98987033110109L197.0218935480985,333.2459154246468L199.23270027438076,84.90320230678151L199.88293754681675,165.4167371045449L203.39421881797097,-256.67398391718507L204.6946933628429,374.0616274839826L205.47497808976607,422.7203522614855L206.38531027117642,279.8603178628348L206.51535772566362,-26.13501052367735L208.46606954297152,304.2642750180769L210.80692372374102,62.2098066377273L211.0670186327154,582.3718053624872L212.62758808656173,-285.6664831598755L213.53792026797208,356.68818175667434L213.66796772245928,153.89385596703391L213.92806263143365,-273.81258877592165L214.57829990386963,407.6498366346257L216.13886935771595,327.88863694641276L217.4393439025879,305.5720150330453L219.65015062887016,231.0118353360705L223.0313844455372,-35.30458908422969L223.551574263486,179.65740861110038L224.07176408143476,133.82267329034514L225.11214371733234,479.1303086992027L226.28257080771706,202.3621144520992L226.80276062566583,-57.893975403849026L227.9731877160506,166.79820680421892L228.49337753399934,47.892124314838725L229.6638046243841,1.668553269186532L230.18399444233287,7.2684501131833485L230.44408935130727,106.76497477364609L230.70418426028164,24.847608169530872L231.61451644169202,40.04899419271504L232.264753714128,60.604264277986374L232.52484862310237,130.3019716805697L233.17508589553833,11.598060864065758L233.43518080451273,98.0718719318275L233.9553706224615,69.30515594544795L234.47556044041028,281.84657859672325L235.25584516733343,-33.41310011960803L235.38589262182063,14.0799599080853L238.3769840750261,71.95436695598545L238.89717389297488,76.22288799988655L243.18873989105225,64.25956025519872L244.0990720724626,67.99404417123645L244.87935679938576,78.22148464555039L246.70002116220647,71.76346709279608L247.22021098015526,75.50521254653154L248.13054316156558,73.2756424113116L248.39063807054,76.9143458109296L249.17092279746316,184.74841491590718L249.43101770643753,91.32787868066805L251.25168206925827,101.35752155188123L251.38172952374546,81.31767530426288L252.6822040686174,73.51529117787544L253.07234643207897,93.45772960269841L254.24277352246372,86.1949035509769L254.76296334041245,73.31646603269007L255.28315315836124,98.94410402973824L256.453580248746,77.43263870777048L256.5836277032332,85.41521615166619L257.36391243015635,75.4224993994323L257.4939598846436,95.7325476347117L258.14419715707953,85.9032757274449L260.485051337849,77.95981079375417L260.8751937013106,98.41127544172576L262.04562079169534,102.46071503850163L265.94704442631115,70.87479020209594L267.63766133464463,63.2785822276154L268.4179460615678,135.85558664906827L268.80808842502944,110.886842313013L269.0681833340038,65.70078238959485L269.58837315195257,108.27759705108389L270.36865787887575,61.12590035547561L271.0188951513117,103.97958238253983L272.3193696961836,83.27078499705095L273.0996544231068,99.8829937687621L273.7498916955428,61.29108360288694L275.0503662404147,61.741132102947745L275.70060351285065,113.67035624081473L280.51235932887687,66.96247018768173L281.03254914682566,113.20364667751824L281.1625966013128,105.94301113645957L281.2926440558,89.02976317229695L283.6334982365695,112.99594877981059L285.1940676904158,89.830894816213L285.32411514490303,70.53763281526085L286.10439987182616,108.79253286417634L287.0147320532365,66.08077368309927L290.3959658699036,91.93322789860571L291.9565353237499,63.856947073016215L293.38705732310905,63.594124928136296L293.7771996865706,98.94584243218236L294.1673420500322,105.24423926489601L296.76829113977607,105.0921661259647L297.5485758666992,78.37110646195936L298.4589080481096,63.92430192885365L299.23919277503273,112.64454431986377L301.31995204682784,66.978372244637L301.7100944102894,109.11096534980288L303.14061640964854,113.36411934863833L303.53075877311016,71.73153321661783L303.92090113657173,68.07175735159018L304.0509485910589,78.48919887941753L310.2932264064442,59.71518677203102L310.68336876990577,87.6679066274499L311.0735111333674,93.23229237910158L311.20355858785456,80.92320641008621L314.06460258657285,80.47971215968789L315.62517204041916,75.37742503392559L315.88526694939355,86.67072994344221L316.4054567673423,78.29302845395995L316.9256465852911,70.96219641787889L317.44583640323987,90.19729093752221L320.6970227654197,83.7845310652242L320.8270702199069,84.73906410906221L322.25759221926603,87.32373898857844L323.2979718551636,88.27681864352479L323.81816167311234,89.74241445721356L324.07825658208674,87.84096984304938L326.289063308369,86.53762217785845L328.23977512567694,68.04215095735736L328.7599649436257,82.31677846876357L332.0111513058056,71.5114934854439L334.0919105776007,88.37676906012007L334.22195803208785,82.49401081214421L336.17266984939573,75.37695799274763L336.6928596673445,71.32413015898038L338.7736189391396,87.81253027936708L338.9036663936268,82.38343430762296L340.59428330196033,71.71873824507378L341.7647103923451,85.1000591334411L342.41494766478104,71.62776871622395L343.065184937217,68.86865833363379L343.45532730067856,88.13002456320055L344.1055645731146,84.68164276079301L344.49570693657614,70.51479568599575L346.05627639042245,72.21175762308661L347.09665602632003,72.86833307086755L348.0069882077304,84.6534745650278L348.91732038914074,87.5947490295676L350.0877474795255,70.45303193612358L350.6079372974742,82.05626636258773L350.8680322064487,68.73624314840771L351.128127115423,83.93969429688872L351.51826947888463,72.28112791351128L352.428601660295,68.16688545216368L353.5990287506797,87.1754366793565L354.89950329555165,74.04507395710317L355.41969311350044,71.12693785566427L355.6797880224748,73.02243966692322L356.0699303859364,81.96562574504156L356.72016765837236,87.62093732089039L357.1103100218339,68.0139080967952L357.2403574763211,73.95310237518572L357.3704049308083,84.46272866579892L359.84130656606504,86.77201299793012L361.01173365644974,69.01225985022757L361.7920183833729,69.57503262631275L362.7023505647832,72.54319620140711L362.8323980192705,84.48932323660284L364.0028251096552,71.56389581457114L364.91315729106554,69.28661847862617L367.64415383529666,86.7693544162301L368.1643436532454,72.28036993709014L369.4648181981173,71.24521204328323L369.9850080160661,88.26824352033083L371.15543510645085,67.78748117844196L372.84605201478433,72.5290696218297L373.23619437824595,81.46241713253102L374.0164791051691,83.05386998762816L374.2765740141435,69.33169747849956L378.6981874667081,82.62579005927245L379.47847219363126,83.38181824415744L381.6892789199136,155.4988957554521L381.949373828888,135.26726924370274L382.98975346478545,70.41054303230891L383.3798958282471,95.25534998463115L383.63999073722147,80.47760445614688L385.98084491799096,97.08245626726244L387.8015092808117,95.41833139292783L388.06160418978607,80.21881997107596L390.40245837055556,2680.000564769432L401.3264445474798,-1355.9018367686308L401.84663436542854,310.1326602926455L402.75696654683895,312.60404241382145L404.70767836414683,-1321.2584914842435L423.6946067192771,-758.3121058431175L424.3448439917131,276.24786815060304L426.81574562696983,-209.54409758115185L443.071677437869,-1386.8898901952432L446.9731010724848,317.3019143611472L448.01348070838236,-1294.2298432377725L455.0360432506908,2652.614283474162L455.68628052312675,72.02621096837163L457.5069448859475,71.76739497604376L458.28722961287065,72.31249330737364L459.4576567032554,72.9447795243218L461.4083685205633,71.21111649250173L461.9285583385121,72.19818407793605L462.18865324748646,72.1139663064464L463.87927015582,73.14252331727585L465.4398396096663,72.68910048332384L467.0004090635126,72.98380449648897L468.30088360838454,71.58860110854818L469.0811683353078,71.35773755646892L471.29197506159,72.70948654753141L472.0722597885132,71.9420755856234L472.2023072430004,71.7855967087441L473.242686878898,72.30609582160162L474.0229716058211,72.64036651290877L474.8032563327443,72.33673722439869L475.4534936051802,72.42574126683576L478.44458505838566,72.06713345623984L479.35491723979607,73.22072825543L480.00515451223197,72.7313998930332L481.6957714205655,72.4138767731402L482.60610360197586,71.84082600156165L484.55681541928374,72.3773677471645L486.11738487313005,72.3396177407709L486.5075272365917,72.43578908878277L488.3281915994124,72.64732115254475L488.4582390538996,72.51588948291942L488.71833396287394,72.38529508887893L492.8798525064642,72.24730733515435L493.0098999609514,71.44307787456052L493.13994741543854,71.98880544990317L494.05027959684895,71.69054069831941L495.48080159620804,72.97590135646732L497.431513413516,71.61664211669381L498.08175068595193,72.02544063363922L501.98317432056774,72.52682504355539L503.6737912289012,72.79428052528147L504.84421831928597,72.42223047659155L506.0146454096707,72.31836556491908L506.79493013659396,72.1985661557244L507.3151199545427,73.9618582386812L509.5259266808249,73.2396447104623L509.78602158979936,73.33475427356899L509.9160690442866,72.51409443821552L511.4766384981329,71.90943007669108L516.0282994051846,73.38320039831865L517.0686790410822,72.64953123053363L520.0597704942877,72.68022412629404L521.2301975846724,71.69072813270611L521.4902924936468,72.608861058186L521.7503874026212,72.90815772875618L522.27057722057,73.48545872953326L522.4006246750571,71.99308245544262L523.8311466744162,71.08343454047076L524.2212890378779,72.49186080648138L525.2616686737754,72.40656683205685L525.651811037237,72.6336590394971L528.7729499449297,72.13590539842988L529.2931397628785,71.48656471200582L529.5532346718528,72.37511235536783L531.5039464891607,71.48360695618845L533.1945633974942,72.67150276308405L536.1856548506997,72.36961290687736L538.1363666680076,71.86497826111179L539.1767463039051,73.15112315709223L539.826983576341,72.54400721558056L540.477220848777,73.77129204989456L540.9974106667258,71.8187509681548L541.2575055757002,71.9262754847357L543.3382648474953,71.53447376514725L545.6791190282648,72.0343695134917L545.809166482752,72.39666782477406L546.7194986641624,71.11710475937463L547.109641027624,72.8651482310816L550.2307799353166,72.8473847034997L550.6209222987782,72.60565819586293L551.5312544801885,71.52414530654977L551.9213968436502,72.44649653559088L552.0514442981373,71.95384481733663L552.3115392071118,72.97736633127585L552.4415866615989,73.01895822766818L555.6927730237787,71.98304853659573L556.8632001141635,72.14844187529775L559.9843390218562,71.67502689830815L561.0247186577537,73.6834481439227L562.8453830205743,72.4927650229186L562.9754304750616,73.35425826331357L563.6256677474976,72.32159314386462L565.1862372013439,71.83471069722901L568.9576133814725,73.69114325237229L569.2177082904469,72.54927443080607L569.4778031994213,72.6121457943209L570.5181828353188,74.28120729905612L572.7289895616011,72.74416087922145L573.379226834037,72.20410679858554L576.2402708327553,72.45520451063032L576.630413196217,73.28918712040263L577.2806504686529,73.3955731275629L578.711172468012,72.86466059271828L578.9712673769864,72.14439349851568L579.8815995583968,72.40006636035804L580.66188428532,71.86312657414823L581.5722164667303,72.32435728613956L582.3525011936534,71.41761357430312L582.742643557115,72.38911947127019L584.9534502833973,73.37011397660177L586.5140197372436,73.47423171872458L586.9041621007052,73.43382158584211L587.8144942821156,72.33237371068071L589.8952535539107,72.21992234736229L590.1553484628851,72.31092174213086L590.9356331898082,73.01305198476695L591.455823007757,72.63861678201272L593.5365822795521,72.80796581016256L595.7473890058344,71.77715186274759L598.3483380955784,73.3544874070007L600.6891922763477,72.35972007875017L600.9492871853221,72.68942385913397L601.2093820942965,72.80809763214882L601.5995244577581,72.2890392924071L601.9896668212197,72.7455269875403L604.200473547502,74.03485878302513L605.6309955468612,73.17147317622539L607.4516599096819,72.49136132473649L611.3530835442976,72.60710308841573L611.6131784532721,72.98821795838143L614.7343173609647,72.68306447815485L615.2545071789134,73.56624398008313L615.5146020878879,71.61252267962237L616.294886814811,72.46701751136249L616.6850291782725,73.86189906828207L616.945124087247,72.34688648748357L618.1155511776317,72.81566606790847L619.025883359042,73.00225391034326L620.7165002673756,72.78809776516675L621.7568799032732,72.28748214519408L623.4474968116067,73.91377307960488L623.707591720581,71.42501723257988L624.0977340840426,73.16236201128254L625.658303537889,74.57768164030267L626.1784933558378,71.92409012336924L626.8287306282737,72.23173071372776L627.0888255372481,72.11361100499897L628.38930008212,73.81744313326578L628.9094899000688,73.00958444861197L632.6808660801975,71.43482664210632L633.3311033526334,72.61325443782272L634.2414355340437,72.66147296367421L637.6226693507108,73.80204364763324L639.9635235314803,73.34682473911812L641.0039031673779,72.7143917672243L641.9142353487882,73.30967411081843L642.4344251667369,73.09315443862215L643.864947166096,73.02930934316959L644.6452318930192,72.74364440479866L645.4255166199424,72.36586473407198L648.2865606186607,72.4374420129077L649.7170826180198,73.04130874842923L650.3673198904557,71.90468757476253L651.5377469808406,71.42935602967538L651.6677944353277,73.63772599693658L653.228363889174,71.94244221552276L654.6588858885332,71.34858210757756L655.0490282519947,72.98576586346462L656.3495027968667,72.53532086758571L662.4617331577648,72.72673257083125L663.1119704302007,72.44031532026509L663.2420178846879,72.94971615472235L664.5424924295598,72.83330034815225L674.0359566071251,73.05424017632629L675.4664786064842,72.4421587683546L675.5965260609713,73.01801539150847L675.8566209699458,73.4152192378865L676.1167158789201,72.28126694451248L676.5068582423817,73.03956365189981L676.6369056968689,72.27591682561587L679.8880920590487,73.71519767529202L680.5383293314846,74.6363779543455L680.9284716949462,72.3617720733414L681.9688513308438,72.35719125931791L683.3993733302029,73.3070165589777L684.5698004205877,73.95248548948422L684.9599427840493,72.70728934278338L685.0899902385364,72.74811038951373L687.0407020558445,72.28784053621928L689.1214613276395,72.05115415983948L689.9017460545626,72.37089971603257L690.4219358725114,73.02642470736026L691.5923629628962,72.9772319346414L691.8524578718706,73.81873869622473L693.0228849622554,72.12659959008539L693.543074780204,73.93089191528509L694.3233595071273,73.72164562416816L694.9735967795632,72.63378931669456L698.3548305962303,73.47197941650569L699.525257686615,72.34324696483094L701.4759695039229,72.86503443163252L702.3863016853333,73.86183779165566L703.1665864122565,74.03933249168477L703.6867762302052,72.57268519168343L703.8168236846924,73.58000804919823L706.2877253199491,72.12895899766812L706.6778676834107,72.89605945700686L707.4581524103338,72.13901969285598L711.3595760449496,73.33101176498951L712.1398607718728,73.40968580404018L712.6600505898216,72.79302255218573L714.0905725891806,73.09598088738284L714.3506674981551,73.01825689350676L716.5614742244373,72.48261112546703L716.6915216789246,71.29323953024056L719.1624233141812,71.34686430231869L719.2924707686684,73.29893061893603L719.6826131321301,72.909183468587L720.8530402225147,72.61126474971724L722.2835622218738,72.05348988065901L725.5347485840538,72.78220594029523L725.9248909475153,73.17419303455188L727.3554129468745,72.13297029951644L727.7455553103359,72.88535767442477L728.0056502193104,72.02731909694387L728.2657451282847,72.56131348564753L729.8263145821311,72.59767369695913L732.0371213084134,72.11480667160896L734.7681178526445,72.66096678784407L735.6784500340549,73.37027720929575L736.7188296699524,72.16508131148873L737.2390194879011,74.14342860676288L738.1493516693115,72.53634403276834L738.2793991237986,73.07751551070987L738.409446578286,73.4648100512124L739.7099211231578,72.0380594992485L743.091154939825,72.7852229130205L743.7413922122608,72.8520077417532L745.822151484056,72.89897807817198L747.252673483415,73.24678369490721L747.7728633013638,72.33585051556906L747.902910755851,73.6144846479088L748.9432903917486,71.2615816563461L749.3334327552102,72.87586855113057L749.7235751186718,71.36041313084684L750.1137174821333,72.89576388739698L751.2841445725181,73.17344484179375L751.8043343904668,73.12939209668082L752.7146665718773,74.15900265354134L752.8447140263644,72.89805377947908L753.6249987532876,73.67573861744341L754.4052834802108,71.58613768517944L754.6653783891851,73.24178063858386L755.0555207526468,73.04216044204378L759.6071816596985,73.38792384785074L761.1677511135448,72.62747267487504L763.6386527488015,72.57197870822563L763.898747657776,72.89689415794345L766.3696492930326,71.7324096268548L766.6297442020069,72.94766673477926L769.2306932917509,73.2853400811075L772.3518321994435,73.4449075059311L772.741974562905,73.82851154574723L774.4325914712385,72.95970939412814L775.4729711071361,73.86567041292102L776.6433981975208,73.54601445448424L777.0335405609825,73.01873886764417L777.2936354699568,73.33929183350324L777.4236829244439,73.0856184434295L779.2443472872648,73.43614958271712L780.2847269231622,73.1852331259035L783.1457709218805,72.97821184573479L783.9260556488038,72.93576722586863L784.3161980122652,71.8046326274515L785.2265301936757,74.21173556749352L786.9171471020092,74.41297367294351L787.1772420109835,72.54886969611385L787.3072894654708,72.91851296369464L788.2176216468812,73.35711457799306L790.5584758276506,73.58232626241016L793.5495672808561,72.38769260125451L794.1998045532921,72.12946980786495L796.8007536430359,72.66066761372679L797.0608485520104,72.65405128286028L797.8411332789334,72.34900593785687L801.2223670956005,71.71156733499157L801.8726043680365,73.51566913622673L803.56322127637,73.24449225803619L804.0834110943188,72.4981908364714L806.4242652750883,72.6066350173785L807.4646449109857,72.47948344287045L810.4557363641912,74.53667212932635L810.8458787276528,72.0849994548189L810.97592618214,73.6401966293202L811.4961160000888,72.62482799627509L811.626163454576,73.52556144942429L815.007397271243,72.48761469672002L817.9984887244484,72.98396978890145L819.6891056327819,73.63889849171306L821.769864904577,72.84183891134217L823.2003869039362,73.11016513907924L825.2811461757314,73.69871117320224L827.101810538552,73.38133892769196L827.2318579930392,72.98440027007541L827.6220003565008,74.77712624583762L829.8328070827831,73.35689830754677L832.9539459904757,73.27149774268804L833.2140408994501,74.30120613617896L835.0347052622709,74.83585139593998L837.5056068975275,72.76149907492572L837.6356543520147,72.70947058471273L837.8957492609892,73.83055118202725L838.545986533425,73.14621896725862L842.1873152590665,73.54443053093024L843.3577423494513,74.18909668613747L844.2680745308616,72.29748001896661L844.7882643488105,74.013071080354L845.5685490757336,72.2174887899123L846.3488338026567,72.60016389666879L846.9990710750927,73.51009193336154L847.3892134385542,72.02027794912937L847.6493083475287,72.91892799697962L849.6000201648366,72.59459029831112L850.7704472552214,72.64151429106283L851.8108268911188,71.39401537903905L854.0216336174011,72.86015289870284L854.6718708898371,73.40261170072921L854.9319657988115,72.45429360010792L856.4925352526578,73.42444214255994L856.7526301616323,72.38278738156163L857.5329148885554,72.51398475820349L859.0934843424016,73.60906861801908L859.7437216148376,73.1977845357307L861.0441961597096,72.65425519499536L862.3446707045815,73.58094882563944L865.9859994302229,73.15816018546963L866.2460943391973,72.10170274228454L866.7662841571462,74.44410683354096L868.716995974454,72.44751455147718L874.0489416084289,73.14555522296047L874.4390839718906,72.6953192885129L876.7799381526601,72.62573324257158L878.2104601520192,72.79526713046005L879.1207923334294,72.92727449141614L881.3315990597118,72.88163061373433L881.7217414231734,74.17200308200933L882.3719786956093,72.59611191537937L883.0222159680453,73.34940865602118L883.8025006949684,73.38164067645744L885.3630701488149,73.36846259726576L885.493117603302,73.8412483302427L887.7039243295842,72.8082927904801L888.0940666930459,72.81239420501441L889.0043988744562,73.2944605147838L892.5156801456104,73.92108199082895L892.7757750545849,74.85141153961831L893.6861072359951,74.05521240666576L896.0269614167647,72.77607003877728L896.2870563257391,74.57045099838291L897.1973885071494,73.06176020870026L898.3678155975342,73.48283155854097L899.668290142406,72.81828705974522L899.7983375968934,73.15998612595155L901.0988121417652,74.17890571375227L901.6190019597141,73.51437820763448L901.7490494142012,73.70134606813912L904.2199510494578,74.96393808266322L904.8701883218938,72.7470702316532L905.1302832308683,73.36931944017658L905.6504730488169,73.51912328421116L906.8209001392017,73.59512483846169L909.1617543199712,74.19630415622373L911.7627034097151,72.37847433094777L912.4129406821511,72.43376953475843L913.5833677725359,72.55729085534722L914.363652499459,72.81901722996611L914.4936999539462,71.88227371765652L914.6237474084334,72.67531272744554L915.013889771895,72.57629793799515L915.4040321353565,72.53758501318612L918.2650761340748,72.44962112860958L920.6059303148443,73.87282278553641L921.1261201327931,72.1685828329995L921.7763574052291,74.01528424792065L922.6866895866394,72.0274282620262L923.8571166770242,72.2379932879357L924.1172115859986,73.02529134723596L925.4176861308704,73.46406958239879L926.1979708577937,72.21641979599224L926.4580657667681,71.84806488235552L927.2383504936912,73.01026930502513L927.4984454026655,73.04645958955751L927.75854031164,72.22973278674806L929.3191097654864,72.23162463822314L929.5792046744607,72.32332536715313L929.839299583435,71.55162916083151L932.8303910366404,72.49823872492738L934.0008181270252,73.70189910256596L934.3909604904868,72.58529530348886L936.471719762282,72.38233012404669L937.7721943071539,72.99963703794361L937.9022417616411,72.70933979258575L938.1623366706156,72.92945830799363L938.9426213975386,73.27873353390413L939.7229061244617,73.29644814317078L940.6332383058722,74.00483735550733L941.2834755783082,74.19981443153824L942.1938077597185,72.66442093582856L942.9740924866417,74.02091654825665L944.6647093949751,73.58742200606764L948.0459432116422,74.68622623248837L950.6468923013861,73.60164539241623L951.0370346648477,73.20394721358963L951.5572244827964,73.46287134114061L951.6872719372835,73.66699356747029L952.597604118694,73.84004030532145L954.8084108449762,74.07435028144067L956.2389328443353,72.66775767985644L957.6694548436944,73.40800610357434L958.5797870251048,73.31062724557086L959.3600717520279,75.473246744716L962.4812106597208,73.51117946474841L969.6338206565163,74.26318785144616L970.1540104744652,73.12213570827936L971.8446273827986,73.5963982594464L973.2751493821578,73.41021515170388L973.7953392001066,74.54815506016314L974.835718836004,72.59333284014502L974.9657662904913,73.46395732773857L975.4859561084401,72.20934157324416L976.6563831988248,73.1526906028979L976.7864306533119,71.52524004695152L978.0869051981839,72.33999260954442L978.216952652671,72.81176084156465L978.3470001071584,71.90597489884732L979.3873797430558,72.03068467703127L981.9883288327997,72.83325863885187L985.1094677404924,73.1888932457415L985.8897524674156,72.86249428374828L986.0197999219027,71.73266503195322L986.4099422853643,72.24755450137866L987.7104168302362,73.93041148593665L988.880843920621,72.2903410345217L989.2709862840826,73.30515199877323L990.5714608289545,73.58673406007671L991.2216981013905,73.11823099686524L995.9034064629295,71.98467880381679L997.0738335533141,72.61768489239313L997.3339284622887,74.09851541423166L997.8541182802375,71.9947096330859L998.6344030071606,72.3506073690184L999.0245453706221,72.65984218152357L999.9348775520324,72.85822603201262L1000.9752571879301,73.87518064833017L1001.3653995513915,74.34756731084082L1002.4057791872892,72.6826185490919L1002.9259690052379,73.61424520562906L1003.4461588231867,72.81098741725452L1006.4372502763922,73.4234127982217L1006.957440094341,73.62022817304575L1007.8677722757513,72.74214801928241L1008.3879620937001,72.55846283519412L1009.8184840930592,73.27027838931485L1011.3790535469054,73.44342141900756L1013.4598128187006,74.1587220168908L1016.7109991808805,73.48599992057854L1018.6617109981884,74.23651552626745L1020.482375361009,73.73442514782323L1021.0025651789579,73.76952120688344L1021.5227549969067,73.02405500118488L1022.5631346328041,73.37145433843892L1023.3434193597272,72.95478100260175L1023.4734668142146,72.06978946329167L1025.6842735404969,73.69914989325036L1026.8547006308816,72.64152304486663L1027.6349853578047,74.05456102067882L1028.6753649937023,73.27257446055256L1029.0655073571638,73.79013847449664L1031.926551355882,75.0411008032383L1034.1373580821644,74.24616685239636L1034.6575479001133,73.90061868717629L1035.6979275360106,74.22896202346726L1036.0880698994724,74.74670883743136L1036.8683546263956,74.90411767722952L1039.209208807165,74.44230303503326L1039.4693037161394,74.23397022908688L1041.8101578969088,72.76817050326304L1042.3303477148577,72.10690456144658L1042.7204900783192,72.75960516373209L1045.0613442590886,72.0284570914348L1045.5815340770375,73.09312148312557L1046.4918662584478,72.73768615400434L1048.1824831667814,73.80419759829203L1048.9627678937045,72.3305045161095L1050.7834322565252,72.2926417401261L1052.3440017103715,73.77528223962793L1053.254333891782,73.49023161231025L1054.2947135276795,72.61334815501613L1055.3350931635769,73.00173640606118L1055.4651406180642,72.03941067460795L1056.635567708449,72.83210365168298L1058.3261846167825,71.8961726983357L1058.8463744347312,72.60871893760708L1060.6670387975519,72.79753230591973L1062.2276082513981,73.69936204425954L1062.3576557058855,73.31513442465672L1063.267987887296,74.0065633996403L1065.0886522501164,71.54407926253873L1065.8689369770398,73.21713610630366L1066.77926915845,72.41633195763484L1067.0393640674245,71.67783120509455L1068.2097911578091,72.2342322418894L1068.4698860667834,73.05346417736791L1068.5999335212707,71.06313704416027L1071.0708351565274,73.1603378228915L1071.460977519989,72.87978819550409L1072.6314046103737,72.67601097202919L1074.3220215187073,73.64402719086706L1076.142685881528,72.92571373969565L1077.4431604264,73.62834552379513L1079.523919698195,74.10314978093709L1080.954441697554,73.72394529991334L1083.2952958783237,72.67579985087923L1084.5957704231955,73.58764342581026L1084.7258178776829,72.4153664645712L1085.506102604606,73.42698538002196L1086.4164347860165,73.19755333232501L1086.9366246039651,72.66576490217312L1087.0666720584522,74.34504055112711L1087.1967195129394,72.74739206267441L1090.0577635116576,72.7443441941711L1090.1878109661448,73.48609415270153L1090.7080007840937,73.55730995093427L1090.968095693068,73.17992008194051L1092.1385227834528,74.53776532493919L1092.6587126014017,72.08303448333578L1096.4300887815302,74.64250561698935L1096.5601362360173,75.23538272426339L1097.730563326402,74.02182900356797L1098.1207056898638,73.2857412112923L1099.031037871274,74.18404213685079L1100.331512416146,74.26789739787813L1100.4615598706332,73.39042177150498L1100.5916073251203,72.85972550710665L1100.7216547796077,74.65812188799777L1101.3718920520434,74.87859364513452L1102.1521767789668,73.93290374536485L1102.6723665969155,72.75793730664782L1102.93246150589,73.23455411610121L1105.013220777685,74.32238570695239L1105.7935055046082,71.23385990457348L1105.9235529590953,73.38495115907403L1106.963932594993,74.12824436171735L1109.4348342302496,72.42322068627766L1111.645640956532,72.22660098471448L1115.0268747731989,71.2561924027973L1118.0179662264043,71.8958143073105L1118.9282984078147,72.23731564053742L1119.7085831347379,73.14566335818358L1120.0987254981994,73.85274310446107L1124.1301965873026,72.42063985895231L1124.2602440417897,71.50914437645395L1126.3410033135847,73.11081703999582L1126.4710507680718,73.32468688429589L1127.7715253129438,73.2074657277783L1128.1616676764056,73.93958341257633L1128.4217625853798,72.78143972499993L1129.852284584739,72.9302744714634L1130.632569311662,72.33953123259238L1131.0227116751237,73.2416127715232L1131.5429014930726,72.48395045744485L1133.883755673842,72.09187685500973L1134.0138031283293,73.44608515000391L1134.533992946278,73.27487207657919L1134.9241353097395,72.10405082141529L1135.184230218714,73.2217339130051L1137.0048945815347,73.38007580529995L1137.5250843994834,72.45042647855706L1138.9556063988425,73.75813199324L1139.345748762304,74.29543686456032L1141.946697852048,73.85305051745252L1142.9870774879457,73.0116003981289L1144.2875520328175,73.57735616158345L1144.4175994873046,73.44094666718684L1145.8481214866638,74.94242844199442L1148.8392129398692,72.10684894904608L1149.4894502123052,74.4847631027884L1151.7002569385875,74.03902507869327L1154.691348391793,72.82059342957564L1157.422344936024,74.06478237391246L1157.5523923905114,74.03388505108734L1158.07258220846,74.60376643076904L1158.5927720264087,72.85936608622217L1160.9336262071783,74.31816894818013L1161.7139109341015,73.5959394571426L1161.8439583885888,74.53354650644832L1167.3059514770507,74.87224095824064L1168.3463311129483,73.91724730984504L1169.3867107488459,72.99159280720227L1169.5167582033332,73.81107448355323L1171.7275649296153,72.38086720895672L1172.7679445655128,72.63209159369143L1173.4181818379489,71.00625173763996L1173.9383716558975,72.03120681568004L1175.3688936552567,72.39409935575998L1176.9294631091032,72.8271469390267L1177.3196054725647,71.64074082356211L1177.5797003815392,72.26108685215848L1178.0998901994878,70.93176304665394L1179.1402698353854,71.35007128407887L1186.9431171046172,73.30010929286806L1187.7234018315403,73.00331363552993L1187.8534492860274,73.1582466936481L1188.1135441950019,73.78405303608275L1190.0642560123097,72.35553473068552L1190.9745881937201,73.17071108036714L1193.9656796469255,73.44613767282658L1194.4858694648742,72.90998057966033L1195.9163914642334,74.08081625285399L1196.306533827695,70.84674816409097L1198.5173405539772,71.9541022821536L1199.2976252809003,73.35169545852551L1200.988242189234,73.32588718527256L1203.5891912789778,73.37574885158597L1204.7596183693624,73.92434355513035L1206.5802827321834,73.57307091716984L1206.8403776411576,73.37045331523058L1207.100472550132,72.91408456884278L1208.2708996405167,73.46779200872254L1209.4413267309014,73.07279463582591L1210.481706366799,72.37210877081304L1213.0826554565429,74.45310471396431L1213.3427503655173,73.28144772800454L1213.7328927289789,74.37321286632942L1213.9929876379533,72.87746225834758L1214.7732723648764,72.42075932262742L1216.333841818723,73.29009133683985L1216.46388927321,74.28604351817802L1217.3742214546203,71.9654245549446L1217.764363818082,73.10417702236623L1218.414601090518,72.55618890593058L1219.324933271928,73.89333964187097L1219.5850281809026,73.24044903055051L1226.2174483597496,73.54796809751542L1227.6479703591087,75.47085901600343L1228.0381127225703,74.24807569654939L1228.6883499950063,73.83797337777082L1230.7691092668013,75.10293921790742L1231.28929908475,74.94188158672318L1231.4193465392373,73.81236592707518L1231.6794414482117,74.46821326435372L1232.0695838116733,73.27267847633863L1232.9799159930838,76.10252422781303L1233.5001058110324,74.04969081620106L1234.020295628981,74.22688737197211L1235.190722719366,73.94921002208275L1235.3207701738531,73.35451727291945L1235.9710074462891,71.43365260254097L1236.4911972642378,71.61847114675356L1236.6212447187252,72.81578656144279L1238.571956536033,70.92524609720687L1242.603427625136,72.4627312370896L1244.1639970789822,73.97083243234141L1245.0743292603927,72.5294130798955L1245.7245665328287,71.67122259817262L1247.5452308956494,72.99189764554558L1248.7156579860339,73.48758384413253L1250.666369803342,72.52314793103943L1252.096891802701,73.00546089210343L1253.0072239841113,73.16524201272512L1253.1372714385986,73.8567863319467L1253.5274138020602,71.79771300303065L1254.3076985289833,72.45076169774876L1259.2495017994968,72.80710072837758L1259.6396441629583,73.03210489615225L1259.8997390719326,73.41720377669566L1260.2898814353944,74.14139308991992L1260.4199288898815,72.12192711858705L1260.9401187078304,72.76049444720991L1265.1016372514205,73.34641434019983L1266.9223016142412,73.92627351139834L1270.4335828853953,72.2861834926573L1271.2138676123186,73.27371708941024L1271.7340574302673,72.76506908207784L1274.074911611037,72.69803966176903L1274.7251488834727,73.11979689788205L1275.8955759738574,73.61889965459022L1276.6758607007807,74.35328045512938L1277.0660030642423,72.4746858434711L1277.4561454277039,73.6674070559663L1280.1871419719348,73.41181864258397L1281.617663971294,72.3793759727368L1283.3082808796275,72.66417273974497L1283.4383283341149,72.62337486484813L1284.7388028789867,73.16489598001112L1285.1289452424483,73.26944368837826L1285.649135060397,74.23718647958049L1287.8599417866792,73.86904835131963L1288.1200366956539,73.61390380728176L1288.5101790591152,73.68357945097938L1291.2411756033464,72.99582089442652L1291.5012705123208,73.55835577302082L1292.1515077847566,73.5490875545396L1293.5820297841158,74.3431456100742L1294.4923619655262,72.98978282953897L1294.6224094200134,73.40028524864306L1295.1425992379623,73.95743344833676L1297.3534059642445,74.27129902303989L1298.1336906911677,74.47617098691654L1299.4341652360397,73.50561050075743L1299.694260145014,75.84490647674335L1300.474544871937,73.96428664683481" fill="none"></path></g></g></g></g></g><g><g opacity="0.0662495"><span fill="rgb(0, 0, 0)" stroke="none" stroke-width="1px">Alt + Scroll to Zoom</span></g></g></g><g transform="translate(82, 377)" clip-path="url(#clip_1)"><clipPath id="clip_1"><rect width="1430" height="22"></rect></clipPath><g><g><line x1="0" y1="0" x2="0" y2="5" style="visibility: inherit;" fill="rgb(0, 0, 0)" stroke="rgb(204, 204, 204)" stroke-width="1px"></line><line x1="130.0474544871937" y1="0" x2="130.0474544871937" y2="5" style="visibility: inherit;" fill="rgb(0, 0, 0)" stroke="rgb(204, 204, 204)" stroke-width="1px"></line><line x1="260.0949089743874" y1="0" x2="260.0949089743874" y2="5" style="visibility: inherit;" fill="rgb(0, 0, 0)" stroke="rgb(204, 204, 204)" stroke-width="1px"></line><line x1="390.1423634615811" y1="0" x2="390.1423634615811" y2="5" style="visibility: inherit;" fill="rgb(0, 0, 0)" stroke="rgb(204, 204, 204)" stroke-width="1px"></line><line x1="520.1898179487748" y1="0" x2="520.1898179487748" y2="5" style="visibility: inherit;" fill="rgb(0, 0, 0)" stroke="rgb(204, 204, 204)" stroke-width="1px"></line><line x1="650.2372724359685" y1="0" x2="650.2372724359685" y2="5" style="visibility: inherit;" fill="rgb(0, 0, 0)" stroke="rgb(204, 204, 204)" stroke-width="1px"></line><line x1="780.2847269231622" y1="0" x2="780.2847269231622" y2="5" style="visibility: inherit;" fill="rgb(0, 0, 0)" stroke="rgb(204, 204, 204)" stroke-width="1px"></line><line x1="910.332181410356" y1="0" x2="910.332181410356" y2="5" style="visibility: inherit;" fill="rgb(0, 0, 0)" stroke="rgb(204, 204, 204)" stroke-width="1px"></line><line x1="1040.3796358975496" y1="0" x2="1040.3796358975496" y2="5" style="visibility: inherit;" fill="rgb(0, 0, 0)" stroke="rgb(204, 204, 204)" stroke-width="1px"></line><line x1="1170.4270903847435" y1="0" x2="1170.4270903847435" y2="5" style="visibility: inherit;" fill="rgb(0, 0, 0)" stroke="rgb(204, 204, 204)" stroke-width="1px"></line><line x1="1300.474544871937" y1="0" x2="1300.474544871937" y2="5" style="visibility: inherit;" fill="rgb(0, 0, 0)" stroke="rgb(204, 204, 204)" stroke-width="1px"></line><line x1="1430.5219993591309" y1="0" x2="1430.5219993591309" y2="5" style="visibility: inherit;" fill="rgb(0, 0, 0)" stroke="rgb(204, 204, 204)" stroke-width="1px"></line></g><g transform="translate(0, 8)"><text style="text-anchor: middle; visibility: hidden; font-family: &quot;Helvetica Neue&quot;, sans-serif; font-size: 12px; font-weight: 200;" x="0" y="0" dx="0em" dy="0.95em" fill="rgb(50, 49, 63)" stroke="none" stroke-width="1px">0</text><text style="text-anchor: middle; visibility: inherit; font-family: &quot;Helvetica Neue&quot;, sans-serif; font-size: 12px; font-weight: 200;" x="130.0474544871937" y="0" dx="0em" dy="0.95em" fill="rgb(50, 49, 63)" stroke="none" stroke-width="1px">1k</text><text style="text-anchor: middle; visibility: inherit; font-family: &quot;Helvetica Neue&quot;, sans-serif; font-size: 12px; font-weight: 200;" x="260.0949089743874" y="0" dx="0em" dy="0.95em" fill="rgb(50, 49, 63)" stroke="none" stroke-width="1px">2k</text><text style="text-anchor: middle; visibility: inherit; font-family: &quot;Helvetica Neue&quot;, sans-serif; font-size: 12px; font-weight: 200;" x="390.1423634615811" y="0" dx="0em" dy="0.95em" fill="rgb(50, 49, 63)" stroke="none" stroke-width="1px">3k</text><text style="text-anchor: middle; visibility: inherit; font-family: &quot;Helvetica Neue&quot;, sans-serif; font-size: 12px; font-weight: 200;" x="520.1898179487748" y="0" dx="0em" dy="0.95em" fill="rgb(50, 49, 63)" stroke="none" stroke-width="1px">4k</text><text style="text-anchor: middle; visibility: inherit; font-family: &quot;Helvetica Neue&quot;, sans-serif; font-size: 12px; font-weight: 200;" x="650.2372724359685" y="0" dx="0em" dy="0.95em" fill="rgb(50, 49, 63)" stroke="none" stroke-width="1px">5k</text><text style="text-anchor: middle; visibility: inherit; font-family: &quot;Helvetica Neue&quot;, sans-serif; font-size: 12px; font-weight: 200;" x="780.2847269231622" y="0" dx="0em" dy="0.95em" fill="rgb(50, 49, 63)" stroke="none" stroke-width="1px">6k</text><text style="text-anchor: middle; visibility: inherit; font-family: &quot;Helvetica Neue&quot;, sans-serif; font-size: 12px; font-weight: 200;" x="910.332181410356" y="0" dx="0em" dy="0.95em" fill="rgb(50, 49, 63)" stroke="none" stroke-width="1px">7k</text><text style="text-anchor: middle; visibility: inherit; font-family: &quot;Helvetica Neue&quot;, sans-serif; font-size: 12px; font-weight: 200;" x="1040.3796358975496" y="0" dx="0em" dy="0.95em" fill="rgb(50, 49, 63)" stroke="none" stroke-width="1px">8k</text><text style="text-anchor: middle; visibility: inherit; font-family: &quot;Helvetica Neue&quot;, sans-serif; font-size: 12px; font-weight: 200;" x="1170.4270903847435" y="0" dx="0em" dy="0.95em" fill="rgb(50, 49, 63)" stroke="none" stroke-width="1px">9k</text><text style="text-anchor: middle; visibility: inherit; font-family: &quot;Helvetica Neue&quot;, sans-serif; font-size: 12px; font-weight: 200;" x="1300.474544871937" y="0" dx="0em" dy="0.95em" fill="rgb(50, 49, 63)" stroke="none" stroke-width="1px">10k</text><text style="text-anchor: middle; visibility: hidden; font-family: &quot;Helvetica Neue&quot;, sans-serif; font-size: 12px; font-weight: 200;" x="1430.5219993591309" y="0" dx="0em" dy="0.95em" fill="rgb(50, 49, 63)" stroke="none" stroke-width="1px">11k</text></g><line x1="0" y1="0" x2="1430.5219993591309" y2="0" fill="rgb(0, 0, 0)" stroke="rgb(204, 204, 204)" stroke-width="1px"></line></g></g></g></g></svg>